{
DisplayStrings = (

glyphs = (
{
glyphname = breve;
lastChange = "2014-11-17 07:04:19 +0000";
layers = (
{
anchors = (
{
name = _top;
position = "{0, 507}";
}
);
layerId = UUID0;
name = Bold;
paths = (
{
closed = 1;
nodes = (
"148 723 OFFCURVE",
"128 651 OFFCURVE",
"58 651 CURVE SMOOTH",
"-19 651 OFFCURVE",
"-4 766 OFFCURVE",
"-41 766 CURVE SMOOTH",
"-64 766 OFFCURVE",
"-110 743 OFFCURVE",
"-110 687 CURVE SMOOTH",
"-110 627 OFFCURVE",
"-51 552 OFFCURVE",
"45 552 CURVE SMOOTH",
"127 552 OFFCURVE",
"223 631 OFFCURVE",
"223 691 CURVE SMOOTH",
"223 709 OFFCURVE",
"211 723 OFFCURVE",
"192 723 CURVE SMOOTH"
);
}
);
width = 0;
},
{
anchors = (
{
name = _top;
position = "{0, 470}";
}
);
layerId = "6FA4A80C-3D50-4FAF-A835-1EC9F66A3889";
name = Light;
paths = (
{
closed = 1;
nodes = (
"138 682 OFFCURVE",
"121 626 OFFCURVE",
"58 626 CURVE SMOOTH",
"-15 626 OFFCURVE",
"-15 712 OFFCURVE",
"-40 712 CURVE SMOOTH",
"-55 712 OFFCURVE",
"-72 696 OFFCURVE",
"-72 670 CURVE SMOOTH",
"-72 628 OFFCURVE",
"-7 575 OFFCURVE",
"47 575 CURVE SMOOTH",
"111 575 OFFCURVE",
"186 629 OFFCURVE",
"186 663 CURVE SMOOTH",
"186 676 OFFCURVE",
"181 682 OFFCURVE",
"167 682 CURVE SMOOTH"
);
}
);
width = 0;
}
);
unicode = 02D8;
},
{
glyphname = dotaccent;
lastChange = "2014-11-17 07:04:19 +0000";
layers = (
{
anchors = (
{
name = _top;
position = "{0, 603}";
}
);
layerId = UUID0;
name = Bold;
paths = (
{
closed = 1;
nodes = (
"-42 702 OFFCURVE",
"12 645 OFFCURVE",
"49 645 CURVE SMOOTH",
"69 645 OFFCURVE",
"94 670 OFFCURVE",
"94 687 CURVE SMOOTH",
"94 713 OFFCURVE",
"49 804 OFFCURVE",
"20 804 CURVE SMOOTH",
"-9 804 OFFCURVE",
"-42 763 OFFCURVE",
"-42 734 CURVE SMOOTH"
);
}
);
width = 0;
},
{
anchors = (
{
name = _top;
position = "{0, 566}";
}
);
layerId = "6FA4A80C-3D50-4FAF-A835-1EC9F66A3889";
name = Light;
paths = (
{
closed = 1;
nodes = (
"-20 713 OFFCURVE",
"27 673 OFFCURVE",
"51 673 CURVE SMOOTH",
"59 673 OFFCURVE",
"69 682 OFFCURVE",
"69 687 CURVE SMOOTH",
"69 713 OFFCURVE",
"40 789 OFFCURVE",
"19 789 CURVE SMOOTH",
"1 789 OFFCURVE",
"-20 760 OFFCURVE",
"-20 740 CURVE SMOOTH"
);
}
);
width = 0;
}
);
unicode = 02D9;
},
{
glyphname = ring;
lastChange = "2014-11-17 07:04:19 +0000";
layers = (
{
anchors = (
{
name = _top;
position = "{0, 507}";
}
);
layerId = UUID0;
name = Bold;
paths = (
{
closed = 1;
nodes = (
"1 774 OFFCURVE",
"-56 723 OFFCURVE",
"-56 653 CURVE SMOOTH",
"-56 596 OFFCURVE",
"-14 550 OFFCURVE",
"43 550 CURVE SMOOTH",
"103 550 OFFCURVE",
"160 601 OFFCURVE",
"160 671 CURVE SMOOTH",
"160 728 OFFCURVE",
"118 774 OFFCURVE",
"61 774 CURVE SMOOTH"
);
},
{
closed = 1;
nodes = (
"67 698 OFFCURVE",
"78 684 OFFCURVE",
"78 665 CURVE SMOOTH",
"78 640 OFFCURVE",
"64 622 OFFCURVE",
"50 622 CURVE SMOOTH",
"36 622 OFFCURVE",
"25 638 OFFCURVE",
"25 656 CURVE SMOOTH",
"25 681 OFFCURVE",
"39 698 OFFCURVE",
"53 698 CURVE SMOOTH"
);
}
);
width = 0;
},
{
anchors = (
{
name = _top;
position = "{0, 470}";
}
);
layerId = "6FA4A80C-3D50-4FAF-A835-1EC9F66A3889";
name = Light;
paths = (
{
closed = 1;
nodes = (
"0 731 OFFCURVE",
"-37 673 OFFCURVE",
"-37 629 CURVE SMOOTH",
"-37 586 OFFCURVE",
"-8 551 OFFCURVE",
"31 551 CURVE SMOOTH",
"83 551 OFFCURVE",
"120 609 OFFCURVE",
"120 653 CURVE SMOOTH",
"120 696 OFFCURVE",
"91 731 OFFCURVE",
"52 731 CURVE SMOOTH"
);
},
{
closed = 1;
nodes = (
"62 686 OFFCURVE",
"73 669 OFFCURVE",
"73 647 CURVE SMOOTH",
"73 615 OFFCURVE",
"54 594 OFFCURVE",
"36 594 CURVE SMOOTH",
"20 594 OFFCURVE",
"9 611 OFFCURVE",
"9 632 CURVE SMOOTH",
"9 664 OFFCURVE",
"29 686 OFFCURVE",
"46 686 CURVE SMOOTH"
);
}
);
width = 0;
}
);
unicode = 02DA;
},
{
glyphname = hungarumlaut;
lastChange = "2014-11-17 07:04:19 +0000";
layers = (
{
anchors = (
{
name = _top;
position = "{0, 603}";
}
);
layerId = UUID0;
name = Bold;
paths = (
{
closed = 1;
nodes = (
"-32 887 OFFCURVE",
"-52 858 OFFCURVE",
"-80 784 CURVE SMOOTH",
"-97 740 OFFCURVE",
"-106 721 OFFCURVE",
"-106 692 CURVE SMOOTH",
"-106 672 OFFCURVE",
"-96 648 OFFCURVE",
"-75 648 CURVE SMOOTH",
"-53 648 OFFCURVE",
"-32 671 OFFCURVE",
"5 714 CURVE SMOOTH",
"41 756 OFFCURVE",
"63 769 OFFCURVE",
"63 809 CURVE SMOOTH",
"63 847 OFFCURVE",
"37 887 OFFCURVE",
"-2 887 CURVE SMOOTH"
);
},
{
closed = 1;
nodes = (
"152 875 OFFCURVE",
"143 851 OFFCURVE",
"100 783 CURVE SMOOTH",
"70 736 OFFCURVE",
"63 711 OFFCURVE",
"63 692 CURVE SMOOTH",
"63 674 OFFCURVE",
"72 649 OFFCURVE",
"92 649 CURVE SMOOTH",
"117 649 OFFCURVE",
"145 677 OFFCURVE",
"177 705 CURVE SMOOTH",
"221 743 OFFCURVE",
"248 754 OFFCURVE",
"248 801 CURVE SMOOTH",
"248 842 OFFCURVE",
"223 875 OFFCURVE",
"186 875 CURVE SMOOTH"
);
}
);
width = 0;
},
{
anchors = (
{
name = _top;
position = "{0, 566}";
}
);
layerId = "6FA4A80C-3D50-4FAF-A835-1EC9F66A3889";
name = Light;
paths = (
{
closed = 1;
nodes = (
"18 863 OFFCURVE",
"10 832 OFFCURVE",
"-13 774 CURVE SMOOTH",
"-33 722 OFFCURVE",
"-47 700 OFFCURVE",
"-47 684 CURVE SMOOTH",
"-47 672 OFFCURVE",
"-40 662 OFFCURVE",
"-29 662 CURVE SMOOTH",
"-8 662 OFFCURVE",
"6 691 OFFCURVE",
"39 746 CURVE SMOOTH",
"60 781 OFFCURVE",
"78 808 OFFCURVE",
"78 821 CURVE SMOOTH",
"78 843 OFFCURVE",
"60 863 OFFCURVE",
"39 863 CURVE SMOOTH"
);
},
{
closed = 1;
nodes = (
"164 857 OFFCURVE",
"149 822 OFFCURVE",
"115 758 CURVE SMOOTH",
"90 711 OFFCURVE",
"81 698 OFFCURVE",
"81 682 CURVE SMOOTH",
"81 671 OFFCURVE",
"88 663 OFFCURVE",
"98 663 CURVE SMOOTH",
"122 663 OFFCURVE",
"139 696 OFFCURVE",
"168 736 CURVE SMOOTH",
"198 778 OFFCURVE",
"217 796 OFFCURVE",
"217 815 CURVE SMOOTH",
"217 836 OFFCURVE",
"200 857 OFFCURVE",
"180 857 CURVE SMOOTH"
);
}
);
width = 0;
}
);
unicode = 02DD;
},
{
glyphname = ogonek;
lastChange = "2014-11-17 07:04:19 +0000";
layers = (
{
anchors = (
{
name = _ogonek;
position = "{0, 0}";
}
);
layerId = UUID0;
name = Bold;
paths = (
{
closed = 1;
nodes = (
"85 67 OFFCURVE",
"56 88 OFFCURVE",
"33 88 CURVE SMOOTH",
"-15 88 OFFCURVE",
"-129 -46 OFFCURVE",
"-129 -115 CURVE SMOOTH",
"-129 -146 OFFCURVE",
"-88 -177 OFFCURVE",
"-41 -177 CURVE SMOOTH",
"3 -177 OFFCURVE",
"111 -173 OFFCURVE",
"111 -120 CURVE SMOOTH",
"111 -101 OFFCURVE",
"87 -76 OFFCURVE",
"66 -76 CURVE SMOOTH",
"53 -76 OFFCURVE",
"39 -79 OFFCURVE",
"29 -79 CURVE SMOOTH",
"18 -79 OFFCURVE",
"-2 -79 OFFCURVE",
"-2 -68 CURVE SMOOTH",
"-2 -44 OFFCURVE",
"85 -2 OFFCURVE",
"85 43 CURVE SMOOTH"
);
}
);
width = 0;
},
{
anchors = (
{
name = _ogonek;
position = "{0, 0}";
}
);
layerId = "6FA4A80C-3D50-4FAF-A835-1EC9F66A3889";
name = Light;
paths = (
{
closed = 1;
nodes = (
"46 27 OFFCURVE",
"35 31 OFFCURVE",
"24 31 CURVE SMOOTH",
"-19 31 OFFCURVE",
"-109 -65 OFFCURVE",
"-109 -124 CURVE SMOOTH",
"-109 -161 OFFCURVE",
"-67 -190 OFFCURVE",
"-27 -190 CURVE SMOOTH",
"11 -190 OFFCURVE",
"69 -171 OFFCURVE",
"69 -144 CURVE SMOOTH",
"69 -131 OFFCURVE",
"60 -124 OFFCURVE",
"48 -124 CURVE SMOOTH",
"32 -124 OFFCURVE",
"18 -140 OFFCURVE",
"-10 -140 CURVE SMOOTH",
"-38 -140 OFFCURVE",
"-53 -132 OFFCURVE",
"-53 -117 CURVE SMOOTH",
"-53 -62 OFFCURVE",
"46 -31 OFFCURVE",
"46 13 CURVE SMOOTH"
);
}
);
width = 0;
}
);
unicode = 02DB;
},
{
glyphname = caron;
lastChange = "2014-11-17 07:04:19 +0000";
layers = (
{
anchors = (
{
name = _top;
position = "{0, 507}";
}
);
layerId = UUID0;
name = Bold;
paths = (
{
closed = 1;
nodes = (
"140 728 OFFCURVE",
"93 715 OFFCURVE",
"28 668 CURVE",
"-32 718 OFFCURVE",
"-45 762 OFFCURVE",
"-90 762 CURVE SMOOTH",
"-118 762 OFFCURVE",
"-135 737 OFFCURVE",
"-135 708 CURVE SMOOTH",
"-135 653 OFFCURVE",
"-10 546 OFFCURVE",
"15 546 CURVE SMOOTH",
"40 546 OFFCURVE",
"63 575 OFFCURVE",
"102 604 CURVE SMOOTH",
"145 636 OFFCURVE",
"195 663 OFFCURVE",
"195 693 CURVE SMOOTH",
"195 716 OFFCURVE",
"183 728 OFFCURVE",
"158 728 CURVE SMOOTH"
);
}
);
width = 0;
},
{
anchors = (
{
name = _top;
position = "{0, 470}";
}
);
layerId = "6FA4A80C-3D50-4FAF-A835-1EC9F66A3889";
name = Light;
paths = (
{
closed = 1;
nodes = (
"150 718 OFFCURVE",
"97 690 OFFCURVE",
"18 612 CURVE",
"-68 678 OFFCURVE",
"-80 752 OFFCURVE",
"-112 752 CURVE SMOOTH",
"-124 752 OFFCURVE",
"-135 741 OFFCURVE",
"-135 725 CURVE SMOOTH",
"-135 670 OFFCURVE",
"-4 557 OFFCURVE",
"15 557 CURVE SMOOTH",
"35 557 OFFCURVE",
"63 592 OFFCURVE",
"102 621 CURVE SMOOTH",
"145 653 OFFCURVE",
"193 668 OFFCURVE",
"193 698 CURVE SMOOTH",
"193 710 OFFCURVE",
"184 718 OFFCURVE",
"168 718 CURVE SMOOTH"
);
}
);
width = 0;
}
);
unicode = 02C7;
},
{
glyphname = dotlessi;
lastChange = "2014-11-17 07:04:19 +0000";
layers = (
{
anchors = (
{
name = ogonek;
position = "{53, 7}";
},
{
name = top;
position = "{183, 507}";
}
);
layerId = UUID0;
name = Bold;
paths = (
{
closed = 1;
nodes = (
"250 455 OFFCURVE",
"210 528 OFFCURVE",
"160 528 CURVE SMOOTH",
"124 528 OFFCURVE",
"108 382 OFFCURVE",
"88 286 CURVE SMOOTH",
"68 188 OFFCURVE",
"44 114 OFFCURVE",
"44 67 CURVE SMOOTH",
"44 40 OFFCURVE",
"65 13 OFFCURVE",
"96 13 CURVE SMOOTH",
"116 13 OFFCURVE",
"137 20 OFFCURVE",
"147 52 CURVE SMOOTH",
"187 174 OFFCURVE",
"250 383 OFFCURVE",
"250 411 CURVE SMOOTH"
);
}
);
width = 260;
},
{
anchors = (
{
name = ogonek;
position = "{31, -30}";
},
{
name = top;
position = "{171, 470}";
}
);
layerId = "6FA4A80C-3D50-4FAF-A835-1EC9F66A3889";
name = Light;
paths = (
{
closed = 1;
nodes = (
"197 480 OFFCURVE",
"178 502 OFFCURVE",
"164 502 CURVE SMOOTH",
"147 502 OFFCURVE",
"140 476 OFFCURVE",
"101 308 CURVE SMOOTH",
"82 227 OFFCURVE",
"32 71 OFFCURVE",
"32 49 CURVE SMOOTH",
"32 31 OFFCURVE",
"43 17 OFFCURVE",
"56 17 CURVE SMOOTH",
"66 17 OFFCURVE",
"81 31 OFFCURVE",
"95 73 CURVE SMOOTH",
"167 300 OFFCURVE",
"197 432 OFFCURVE",
"197 462 CURVE SMOOTH"
);
}
);
width = 260;
}
);
unicode = 0131;
},
{
glyphname = fraction;
lastChange = "2014-11-17 07:04:19 +0000";
layers = (
{
layerId = UUID0;
name = Bold;
paths = (
{
closed = 1;
nodes = (
"564 546 OFFCURVE",
"655 657 OFFCURVE",
"655 709 CURVE SMOOTH",
"655 736 OFFCURVE",
"619 796 OFFCURVE",
"585 796 CURVE SMOOTH",
"573 796 OFFCURVE",
"564 782 OFFCURVE",
"558 772 CURVE SMOOTH",
"413 531 OFFCURVE",
"67 104 OFFCURVE",
"68 46 CURVE SMOOTH",
"68 20 OFFCURVE",
"101 -8 OFFCURVE",
"121 -8 CURVE SMOOTH",
"146 -8 OFFCURVE",
"261 158 OFFCURVE",
"385 311 CURVE SMOOTH"
);
}
);
width = 823;
},
{
layerId = "6FA4A80C-3D50-4FAF-A835-1EC9F66A3889";
name = Light;
paths = (
{
closed = 1;
nodes = (
"419 445 OFFCURVE",
"591 645 OFFCURVE",
"591 685 CURVE SMOOTH",
"591 703 OFFCURVE",
"577 737 OFFCURVE",
"566 737 CURVE SMOOTH",
"557 737 OFFCURVE",
"554 731 OFFCURVE",
"541 713 CURVE SMOOTH",
"196 225 OFFCURVE",
"69 45 OFFCURVE",
"69 18 CURVE SMOOTH",
"69 4 OFFCURVE",
"85 -17 OFFCURVE",
"91 -17 CURVE SMOOTH",
"105 -17 OFFCURVE",
"124 11 OFFCURVE",
"324 307 CURVE SMOOTH"
);
}
);
width = 761;
}
);
unicode = 2044;
},
{
glyphname = fi;
lastChange = "2014-11-17 07:04:19 +0000";
layers = (
{
layerId = UUID0;
name = Bold;
paths = (
{
closed = 1;
nodes = (
"552 729 OFFCURVE",
"425 791 OFFCURVE",
"365 791 CURVE SMOOTH",
"226 791 OFFCURVE",
"174 680 OFFCURVE",
"130 398 CURVE SMOOTH",
"93 163 OFFCURVE",
"60 136 OFFCURVE",
"60 94 CURVE SMOOTH",
"60 67 OFFCURVE",
"107 13 OFFCURVE",
"129 13 CURVE SMOOTH",
"178 13 OFFCURVE",
"207 181 OFFCURVE",
"257 386 CURVE SMOOTH",
"283 494 OFFCURVE",
"313 669 OFFCURVE",
"358 669 CURVE SMOOTH",
"396 669 OFFCURVE",
"446 552 OFFCURVE",
"504 552 CURVE SMOOTH",
"534 552 OFFCURVE",
"552 587 OFFCURVE",
"552 642 CURVE SMOOTH"
);
},
{
closed = 1;
nodes = (
"528 446 OFFCURVE",
"506 467 OFFCURVE",
"453 467 CURVE SMOOTH",
"382 467 OFFCURVE",
"118 460 OFFCURVE",
"25 422 CURVE SMOOTH",
"2 413 OFFCURVE",
"-10 400 OFFCURVE",
"-10 389 CURVE SMOOTH",
"-10 352 OFFCURVE",
"24 313 OFFCURVE",
"63 313 CURVE SMOOTH",
"80 313 OFFCURVE",
"141 323 OFFCURVE",
"207 335 CURVE SMOOTH",
"268 346 OFFCURVE",
"334 357 OFFCURVE",
"371 360 CURVE",
"361 295 OFFCURVE",
"310 133 OFFCURVE",
"310 80 CURVE SMOOTH",
"310 40 OFFCURVE",
"333 13 OFFCURVE",
"361 13 CURVE SMOOTH",
"392 13 OFFCURVE",
"404 20 OFFCURVE",
"414 52 CURVE SMOOTH",
"477 261 OFFCURVE",
"528 358 OFFCURVE",
"528 412 CURVE SMOOTH"
);
}
);
width = 518;
},
{
layerId = "6FA4A80C-3D50-4FAF-A835-1EC9F66A3889";
name = Light;
paths = (
{
closed = 1;
nodes = (
"515 688 OFFCURVE",
"432 780 OFFCURVE",
"356 780 CURVE SMOOTH",
"285 780 OFFCURVE",
"239 727 OFFCURVE",
"213 592 CURVE SMOOTH",
"158 306 OFFCURVE",
"79 75 OFFCURVE",
"79 51 CURVE SMOOTH",
"79 31 OFFCURVE",
"97 13 OFFCURVE",
"108 13 CURVE SMOOTH",
"141 13 OFFCURVE",
"223 375 OFFCURVE",
"268 558 CURVE SMOOTH",
"292 656 OFFCURVE",
"309 726 OFFCURVE",
"362 726 CURVE SMOOTH",
"422 726 OFFCURVE",
"467 608 OFFCURVE",
"502 608 CURVE SMOOTH",
"509 608 OFFCURVE",
"515 619 OFFCURVE",
"515 640 CURVE SMOOTH"
);
},
{
closed = 1;
nodes = (
"503 484 OFFCURVE",
"482 499 OFFCURVE",
"447 499 CURVE SMOOTH",
"423 499 OFFCURVE",
"218 477 OFFCURVE",
"105 448 CURVE SMOOTH",
"84 443 OFFCURVE",
"72 436 OFFCURVE",
"72 427 CURVE SMOOTH",
"72 414 OFFCURVE",
"92 396 OFFCURVE",
"109 396 CURVE SMOOTH",
"129 396 OFFCURVE",
"206 413 OFFCURVE",
"281 425 CURVE SMOOTH",
"345 435 OFFCURVE",
"416 447 OFFCURVE",
"445 448 CURVE",
"416 330 OFFCURVE",
"340 79 OFFCURVE",
"340 54 CURVE SMOOTH",
"340 35 OFFCURVE",
"349 17 OFFCURVE",
"365 17 CURVE SMOOTH",
"375 17 OFFCURVE",
"387 31 OFFCURVE",
"399 73 CURVE SMOOTH",
"446 237 OFFCURVE",
"503 418 OFFCURVE",
"503 453 CURVE SMOOTH"
);
}
);
width = 534;
}
);
unicode = FB01;
},
{
glyphname = fl;
lastChange = "2014-11-17 07:04:19 +0000";
layers = (
{
layerId = UUID0;
name = Bold;
paths = (
{
closed = 1;
nodes = (
"366 737 OFFCURVE",
"330 791 OFFCURVE",
"253 791 CURVE SMOOTH",
"180 791 OFFCURVE",
"117 746 OFFCURVE",
"115 637 CURVE SMOOTH",
"112 483 OFFCURVE",
"69 259 OFFCURVE",
"30 116 CURVE SMOOTH",
"28 109 OFFCURVE",
"27 103 OFFCURVE",
"27 96 CURVE SMOOTH",
"27 51 OFFCURVE",
"69 13 OFFCURVE",
"93 13 CURVE SMOOTH",
"181 13 OFFCURVE",
"239 429 OFFCURVE",
"239 559 CURVE SMOOTH",
"239 632 OFFCURVE",
"254 669 OFFCURVE",
"273 669 CURVE SMOOTH",
"295 669 OFFCURVE",
"305 648 OFFCURVE",
"325 648 CURVE SMOOTH",
"355 648 OFFCURVE",
"366 672 OFFCURVE",
"366 695 CURVE SMOOTH"
);
},
{
closed = 1;
nodes = (
"553 761 OFFCURVE",
"504 791 OFFCURVE",
"458 791 CURVE SMOOTH",
"423 791 OFFCURVE",
"410 663 OFFCURVE",
"410 616 CURVE SMOOTH",
"410 512 OFFCURVE",
"248 479 OFFCURVE",
"120 479 CURVE SMOOTH",
"77 479 OFFCURVE",
"-1 472 OFFCURVE",
"-1 433 CURVE SMOOTH",
"-1 407 OFFCURVE",
"30 356 OFFCURVE",
"73 356 CURVE SMOOTH",
"202 356 OFFCURVE",
"304 356 OFFCURVE",
"388 422 CURVE",
"351 225 OFFCURVE",
"298 159 OFFCURVE",
"298 95 CURVE SMOOTH",
"298 49 OFFCURVE",
"330 12 OFFCURVE",
"361 12 CURVE SMOOTH",
"464 12 OFFCURVE",
"553 614 OFFCURVE",
"553 691 CURVE SMOOTH"
);
}
);
width = 515;
},
{
layerId = "6FA4A80C-3D50-4FAF-A835-1EC9F66A3889";
name = Light;
paths = (
{
closed = 1;
nodes = (
"415 744 OFFCURVE",
"388 780 OFFCURVE",
"342 780 CURVE SMOOTH",
"279 780 OFFCURVE",
"231 736 OFFCURVE",
"211 622 CURVE SMOOTH",
"162 336 OFFCURVE",
"74 75 OFFCURVE",
"74 52 CURVE SMOOTH",
"74 31 OFFCURVE",
"92 13 OFFCURVE",
"104 13 CURVE SMOOTH",
"114 13 OFFCURVE",
"125 37 OFFCURVE",
"139 77 CURVE SMOOTH",
"180 195 OFFCURVE",
"235 441 OFFCURVE",
"266 580 CURVE SMOOTH",
"287 673 OFFCURVE",
"302 726 OFFCURVE",
"340 726 CURVE SMOOTH",
"383 726 OFFCURVE",
"373 671 OFFCURVE",
"400 671 CURVE SMOOTH",
"408 671 OFFCURVE",
"415 676 OFFCURVE",
"415 706 CURVE SMOOTH"
);
},
{
closed = 1;
nodes = (
"531 752 OFFCURVE",
"500 780 OFFCURVE",
"486 780 CURVE SMOOTH",
"474 780 OFFCURVE",
"473 762 OFFCURVE",
"473 720 CURVE SMOOTH",
"473 484 OFFCURVE",
"357 502 OFFCURVE",
"115 455 CURVE SMOOTH",
"89 450 OFFCURVE",
"73 443 OFFCURVE",
"73 432 CURVE SMOOTH",
"73 421 OFFCURVE",
"93 402 OFFCURVE",
"110 402 CURVE SMOOTH",
"158 402 OFFCURVE",
"379 437 OFFCURVE",
"449 502 CURVE",
"427 309 OFFCURVE",
"351 82 OFFCURVE",
"351 58 CURVE SMOOTH",
"351 37 OFFCURVE",
"367 17 OFFCURVE",
"382 17 CURVE SMOOTH",
"415 17 OFFCURVE",
"531 524 OFFCURVE",
"531 721 CURVE SMOOTH"
);
}
);
width = 558;
}
);
unicode = FB02;
},
{
glyphname = Lslash;
lastChange = "2014-11-17 07:04:19 +0000";
layers = (
{
anchors = (
{
name = top;
position = "{307, 657}";
}
);
components = (
{
name = L;
transform = "{1, 0, 0, 1, 0, 0}";
}
);
layerId = UUID0;
name = Bold;
paths = (
{
closed = 1;
nodes = (
"400 479 OFFCURVE",
"381 483 OFFCURVE",
"356 483 CURVE SMOOTH",
"327 483 OFFCURVE",
"0 444 OFFCURVE",
"0 393 CURVE SMOOTH",
"0 376 OFFCURVE",
"28 336 OFFCURVE",
"61 336 CURVE SMOOTH",
"82 336 OFFCURVE",
"172 358 OFFCURVE",
"248 381 CURVE SMOOTH",
"353 414 OFFCURVE",
"400 433 OFFCURVE",
"400 462 CURVE SMOOTH"
);
}
);
width = 546;
},
{
anchors = (
{
name = top;
position = "{234, 620}";
}
);
components = (
{
name = L;
transform = "{1, 0, 0, 1, 0, 0}";
}
);
layerId = "6FA4A80C-3D50-4FAF-A835-1EC9F66A3889";
name = Light;
paths = (
{
closed = 1;
nodes = (
"354 452 OFFCURVE",
"349 456 OFFCURVE",
"338 456 CURVE SMOOTH",
"300 456 OFFCURVE",
"23 378 OFFCURVE",
"23 351 CURVE SMOOTH",
"23 336 OFFCURVE",
"53 323 OFFCURVE",
"72 323 CURVE SMOOTH",
"90 323 OFFCURVE",
"183 362 OFFCURVE",
"215 374 CURVE SMOOTH",
"324 415 OFFCURVE",
"354 428 OFFCURVE",
"354 443 CURVE SMOOTH"
);
}
);
width = 496;
}
);
unicode = 0141;
},
{
glyphname = L;
lastChange = "2014-11-17 07:04:19 +0000";
layers = (
{
anchors = (
{
name = top;
position = "{338, 743}";
}
);
layerId = UUID0;
name = Bold;
paths = (
{
closed = 1;
nodes = (
"315 710 OFFCURVE",
"246 760 OFFCURVE",
"218 760 CURVE SMOOTH",
"195 760 OFFCURVE",
"189 747 OFFCURVE",
"189 727 CURVE SMOOTH",
"189 595 OFFCURVE",
"41 227 OFFCURVE",
"41 131 CURVE SMOOTH",
"41 73 OFFCURVE",
"105 14 OFFCURVE",
"171 14 CURVE SMOOTH",
"329 14 OFFCURVE",
"488 66 OFFCURVE",
"488 154 CURVE SMOOTH",
"488 173 OFFCURVE",
"484 186 OFFCURVE",
"463 186 CURVE SMOOTH",
"438 186 OFFCURVE",
"336 145 OFFCURVE",
"194 145 CURVE SMOOTH",
"184 145 OFFCURVE",
"182 145 OFFCURVE",
"182 152 CURVE SMOOTH",
"182 178 OFFCURVE",
"201 244 OFFCURVE",
"216 287 CURVE SMOOTH",
"254 393 OFFCURVE",
"315 562 OFFCURVE",
"315 659 CURVE SMOOTH"
);
}
);
width = 546;
},
{
anchors = (
{
name = top;
position = "{283, 683}";
}
);
layerId = "6FA4A80C-3D50-4FAF-A835-1EC9F66A3889";
name = Light;
paths = (
{
closed = 1;
nodes = (
"263 674 OFFCURVE",
"237 706 OFFCURVE",
"221 706 CURVE SMOOTH",
"208 706 OFFCURVE",
"205 700 OFFCURVE",
"205 677 CURVE SMOOTH",
"205 550 OFFCURVE",
"73 187 OFFCURVE",
"73 97 CURVE SMOOTH",
"73 54 OFFCURVE",
"124 18 OFFCURVE",
"186 18 CURVE SMOOTH",
"313 18 OFFCURVE",
"494 81 OFFCURVE",
"494 121 CURVE SMOOTH",
"494 130 OFFCURVE",
"493 131 OFFCURVE",
"483 131 CURVE SMOOTH",
"456 131 OFFCURVE",
"330 77 OFFCURVE",
"169 77 CURVE SMOOTH",
"151 77 OFFCURVE",
"136 90 OFFCURVE",
"136 110 CURVE SMOOTH",
"136 128 OFFCURVE",
"143 161 OFFCURVE",
"183 296 CURVE SMOOTH",
"230 458 OFFCURVE",
"263 595 OFFCURVE",
"263 640 CURVE SMOOTH"
);
}
);
width = 546;
}
);
unicode = 004C;
},
{
glyphname = lslash;
lastChange = "2014-11-17 07:04:19 +0000";
layers = (
{
anchors = (
{
name = top;
position = "{300, 733}";
}
);
layerId = UUID0;
name = Bold;
paths = (
{
closed = 1;
nodes = (
"305 458 OFFCURVE",
"324 628 OFFCURVE",
"324 682 CURVE SMOOTH",
"324 736 OFFCURVE",
"253 808 OFFCURVE",
"224 808 CURVE SMOOTH",
"201 808 OFFCURVE",
"193 796 OFFCURVE",
"193 779 CURVE SMOOTH",
"193 449 OFFCURVE",
"84 132 OFFCURVE",
"84 106 CURVE SMOOTH",
"84 76 OFFCURVE",
"142 12 OFFCURVE",
"171 12 CURVE SMOOTH",
"203 12 OFFCURVE",
"255 234 OFFCURVE",
"287 374 CURVE SMOOTH"
);
},
{
closed = 1;
nodes = (
"409 483 OFFCURVE",
"390 487 OFFCURVE",
"365 487 CURVE SMOOTH",
"336 487 OFFCURVE",
"46 450 OFFCURVE",
"46 399 CURVE SMOOTH",
"46 382 OFFCURVE",
"74 342 OFFCURVE",
"107 342 CURVE SMOOTH",
"128 342 OFFCURVE",
"171 361 OFFCURVE",
"247 384 CURVE SMOOTH",
"352 417 OFFCURVE",
"409 437 OFFCURVE",
"409 466 CURVE SMOOTH"
);
}
);
width = 383;
},
{
anchors = (
{
name = top;
position = "{258, 717}";
}
);
layerId = "6FA4A80C-3D50-4FAF-A835-1EC9F66A3889";
name = Light;
paths = (
{
closed = 1;
nodes = (
"228 362 OFFCURVE",
"267 569 OFFCURVE",
"267 720 CURVE SMOOTH",
"267 751 OFFCURVE",
"233 782 OFFCURVE",
"222 782 CURVE SMOOTH",
"210 782 OFFCURVE",
"209 776 OFFCURVE",
"209 757 CURVE SMOOTH",
"209 477 OFFCURVE",
"89 99 OFFCURVE",
"89 58 CURVE SMOOTH",
"89 42 OFFCURVE",
"108 17 OFFCURVE",
"121 17 CURVE SMOOTH",
"132 17 OFFCURVE",
"147 62 OFFCURVE",
"167 136 CURVE SMOOTH"
);
},
{
closed = 1;
nodes = (
"370 470 OFFCURVE",
"365 474 OFFCURVE",
"354 474 CURVE SMOOTH",
"316 474 OFFCURVE",
"39 396 OFFCURVE",
"39 369 CURVE SMOOTH",
"39 354 OFFCURVE",
"69 341 OFFCURVE",
"88 341 CURVE SMOOTH",
"106 341 OFFCURVE",
"199 380 OFFCURVE",
"231 392 CURVE SMOOTH",
"340 433 OFFCURVE",
"370 446 OFFCURVE",
"370 461 CURVE SMOOTH"
);
}
);
width = 351;
}
);
unicode = 0142;
},
{
glyphname = Z;
lastChange = "2014-11-17 07:04:19 +0000";
layers = (
{
anchors = (
{
name = top;
position = "{378, 743}";
}
);
layerId = UUID0;
name = Bold;
paths = (
{
closed = 1;
nodes = (
"563 592 OFFCURVE",
"524 674 OFFCURVE",
"479 690 CURVE SMOOTH",
"427 709 OFFCURVE",
"364 731 OFFCURVE",
"259 731 CURVE SMOOTH",
"156 731 OFFCURVE",
"119 707 OFFCURVE",
"119 685 CURVE SMOOTH",
"119 653 OFFCURVE",
"163 585 OFFCURVE",
"202 585 CURVE SMOOTH",
"231 585 OFFCURVE",
"239 596 OFFCURVE",
"312 596 CURVE SMOOTH",
"381 596 OFFCURVE",
"435 584 OFFCURVE",
"435 550 CURVE SMOOTH",
"434 507 OFFCURVE",
"50 278 OFFCURVE",
"49 158 CURVE SMOOTH",
"49 112 OFFCURVE",
"101 13 OFFCURVE",
"173 13 CURVE SMOOTH",
"309 13 OFFCURVE",
"560 74 OFFCURVE",
"560 141 CURVE SMOOTH",
"560 163 OFFCURVE",
"541 176 OFFCURVE",
"493 176 CURVE SMOOTH",
"406 176 OFFCURVE",
"320 151 OFFCURVE",
"225 151 CURVE SMOOTH",
"216 151 OFFCURVE",
"210 156 OFFCURVE",
"210 166 CURVE SMOOTH",
"210 207 OFFCURVE",
"563 414 OFFCURVE",
"563 553 CURVE SMOOTH"
);
}
);
width = 646;
},
{
anchors = (
{
name = top;
position = "{374, 683}";
}
);
layerId = "6FA4A80C-3D50-4FAF-A835-1EC9F66A3889";
name = Light;
paths = (
{
closed = 1;
nodes = (
"562 613 OFFCURVE",
"521 655 OFFCURVE",
"460 675 CURVE SMOOTH",
"406 692 OFFCURVE",
"355 699 OFFCURVE",
"278 699 CURVE SMOOTH",
"180 699 OFFCURVE",
"125 678 OFFCURVE",
"126 667 CURVE SMOOTH",
"127 648 OFFCURVE",
"153 621 OFFCURVE",
"180 621 CURVE SMOOTH",
"214 621 OFFCURVE",
"259 637 OFFCURVE",
"338 637 CURVE SMOOTH",
"416 637 OFFCURVE",
"502 617 OFFCURVE",
"502 594 CURVE SMOOTH",
"502 479 OFFCURVE",
"65 223 OFFCURVE",
"65 105 CURVE SMOOTH",
"65 66 OFFCURVE",
"108 26 OFFCURVE",
"153 26 CURVE SMOOTH",
"342 26 OFFCURVE",
"524 74 OFFCURVE",
"524 103 CURVE SMOOTH",
"524 117 OFFCURVE",
"521 121 OFFCURVE",
"507 121 CURVE SMOOTH",
"441 121 OFFCURVE",
"263 84 OFFCURVE",
"161 84 CURVE SMOOTH",
"137 84 OFFCURVE",
"128 101 OFFCURVE",
"128 111 CURVE SMOOTH",
"128 175 OFFCURVE",
"562 457 OFFCURVE",
"562 581 CURVE SMOOTH"
);
}
);
width = 606;
}
);
unicode = 005A;
},
{
glyphname = z;
lastChange = "2014-11-17 07:04:19 +0000";
layers = (
{
anchors = (
{
name = top;
position = "{256, 507}";
}
);
layerId = UUID0;
name = Bold;
paths = (
{
closed = 1;
nodes = (
"321 518 OFFCURVE",
"289 528 OFFCURVE",
"238 528 CURVE SMOOTH",
"129 528 OFFCURVE",
"53 509 OFFCURVE",
"53 471 CURVE SMOOTH",
"53 447 OFFCURVE",
"97 382 OFFCURVE",
"129 382 CURVE SMOOTH",
"173 382 OFFCURVE",
"189 394 OFFCURVE",
"250 394 CURVE SMOOTH",
"293 394 OFFCURVE",
"325 394 OFFCURVE",
"325 383 CURVE SMOOTH",
"325 349 OFFCURVE",
"0 205 OFFCURVE",
"0 125 CURVE SMOOTH",
"0 94 OFFCURVE",
"64 11 OFFCURVE",
"134 11 CURVE SMOOTH",
"300 11 OFFCURVE",
"444 44 OFFCURVE",
"444 109 CURVE SMOOTH",
"444 136 OFFCURVE",
"416 147 OFFCURVE",
"391 147 CURVE SMOOTH",
"327 147 OFFCURVE",
"260 139 OFFCURVE",
"173 139 CURVE SMOOTH",
"169 139 OFFCURVE",
"167 140 OFFCURVE",
"167 142 CURVE SMOOTH",
"167 161 OFFCURVE",
"445 271 OFFCURVE",
"445 395 CURVE SMOOTH",
"445 421 OFFCURVE",
"399 498 OFFCURVE",
"351 511 CURVE SMOOTH"
);
}
);
width = 480;
},
{
anchors = (
{
name = top;
position = "{215, 470}";
}
);
layerId = "6FA4A80C-3D50-4FAF-A835-1EC9F66A3889";
name = Light;
paths = (
{
closed = 1;
nodes = (
"323 491 OFFCURVE",
"271 502 OFFCURVE",
"209 502 CURVE SMOOTH",
"110 502 OFFCURVE",
"54 489 OFFCURVE",
"54 471 CURVE SMOOTH",
"54 454 OFFCURVE",
"78 431 OFFCURVE",
"93 431 CURVE SMOOTH",
"128 431 OFFCURVE",
"167 442 OFFCURVE",
"209 442 CURVE SMOOTH",
"288 442 OFFCURVE",
"325 435 OFFCURVE",
"325 418 CURVE SMOOTH",
"325 359 OFFCURVE",
"5 172 OFFCURVE",
"5 99 CURVE SMOOTH",
"5 64 OFFCURVE",
"51 17 OFFCURVE",
"109 17 CURVE SMOOTH",
"184 17 OFFCURVE",
"393 45 OFFCURVE",
"393 82 CURVE SMOOTH",
"393 95 OFFCURVE",
"383 96 OFFCURVE",
"362 96 CURVE SMOOTH",
"325 96 OFFCURVE",
"219 76 OFFCURVE",
"111 76 CURVE SMOOTH",
"85 76 OFFCURVE",
"74 86 OFFCURVE",
"74 100 CURVE SMOOTH",
"74 150 OFFCURVE",
"380 312 OFFCURVE",
"380 416 CURVE SMOOTH",
"380 438 OFFCURVE",
"361 467 OFFCURVE",
"340 480 CURVE SMOOTH"
);
}
);
width = 418;
}
);
unicode = 007A;
},
{
glyphname = exclam;
lastChange = "2014-11-17 07:04:19 +0000";
layers = (
{
layerId = UUID0;
name = Bold;
paths = (
{
closed = 1;
nodes = (
"374 740 OFFCURVE",
"283 823 OFFCURVE",
"241 823 CURVE SMOOTH",
"225 823 OFFCURVE",
"209 815 OFFCURVE",
"209 794 CURVE SMOOTH",
"209 494 OFFCURVE",
"160 356 OFFCURVE",
"167 322 CURVE SMOOTH",
"168 283 OFFCURVE",
"210 236 OFFCURVE",
"247 236 CURVE SMOOTH",
"299 236 OFFCURVE",
"374 655 OFFCURVE",
"374 715 CURVE SMOOTH"
);
},
{
closed = 1;
nodes = (
"259 78 OFFCURVE",
"208 181 OFFCURVE",
"176 181 CURVE SMOOTH",
"143 181 OFFCURVE",
"106 135 OFFCURVE",
"106 103 CURVE SMOOTH",
"106 66 OFFCURVE",
"170 1 OFFCURVE",
"210 1 CURVE SMOOTH",
"232 1 OFFCURVE",
"259 29 OFFCURVE",
"259 46 CURVE SMOOTH"
);
}
);
width = 478;
},
{
layerId = "6FA4A80C-3D50-4FAF-A835-1EC9F66A3889";
name = Light;
paths = (
{
closed = 1;
nodes = (
"258 781 OFFCURVE",
"216 803 OFFCURVE",
"200 803 CURVE SMOOTH",
"194 803 OFFCURVE",
"192 795 OFFCURVE",
"192 779 CURVE SMOOTH",
"192 516 OFFCURVE",
"128 283 OFFCURVE",
"128 267 CURVE SMOOTH",
"128 250 OFFCURVE",
"140 234 OFFCURVE",
"153 234 CURVE SMOOTH",
"184 234 OFFCURVE",
"258 646 OFFCURVE",
"258 766 CURVE SMOOTH"
);
},
{
closed = 1;
nodes = (
"144 36 OFFCURVE",
"110 122 OFFCURVE",
"88 122 CURVE SMOOTH",
"70 122 OFFCURVE",
"48 92 OFFCURVE",
"48 72 CURVE SMOOTH",
"48 44 OFFCURVE",
"96 -5 OFFCURVE",
"125 -5 CURVE SMOOTH",
"134 -5 OFFCURVE",
"144 4 OFFCURVE",
"144 9 CURVE SMOOTH"
);
}
);
width = 314;
}
);
unicode = 0021;
},
{
glyphname = quotedbl;
lastChange = "2014-11-17 07:04:19 +0000";
layers = (
{
layerId = UUID0;
name = Bold;
paths = (
{
closed = 1;
nodes = (
"232 836 OFFCURVE",
"174 882 OFFCURVE",
"150 882 CURVE SMOOTH",
"142 882 OFFCURVE",
"135 878 OFFCURVE",
"135 867 CURVE SMOOTH",
"135 730 OFFCURVE",
"117 605 OFFCURVE",
"117 574 CURVE SMOOTH",
"117 553 OFFCURVE",
"150 528 OFFCURVE",
"165 528 CURVE SMOOTH",
"211 528 OFFCURVE",
"232 783 OFFCURVE",
"232 823 CURVE SMOOTH"
);
},
{
closed = 1;
nodes = (
"442 836 OFFCURVE",
"384 882 OFFCURVE",
"360 882 CURVE SMOOTH",
"352 882 OFFCURVE",
"344 878 OFFCURVE",
"344 867 CURVE SMOOTH",
"344 730 OFFCURVE",
"326 605 OFFCURVE",
"326 574 CURVE SMOOTH",
"326 553 OFFCURVE",
"360 528 OFFCURVE",
"375 528 CURVE SMOOTH",
"420 528 OFFCURVE",
"442 783 OFFCURVE",
"442 823 CURVE SMOOTH"
);
}
);
width = 484;
},
{
layerId = "6FA4A80C-3D50-4FAF-A835-1EC9F66A3889";
name = Light;
paths = (
{
closed = 1;
nodes = (
"96 805 OFFCURVE",
"70 826 OFFCURVE",
"59 826 CURVE SMOOTH",
"51 826 OFFCURVE",
"47 819 OFFCURVE",
"47 806 CURVE SMOOTH",
"47 710 OFFCURVE",
"29 622 OFFCURVE",
"29 600 CURVE SMOOTH",
"29 584 OFFCURVE",
"43 566 OFFCURVE",
"56 566 CURVE SMOOTH",
"76 566 OFFCURVE",
"96 743 OFFCURVE",
"96 792 CURVE SMOOTH"
);
},
{
closed = 1;
nodes = (
"243 805 OFFCURVE",
"218 826 OFFCURVE",
"207 826 CURVE SMOOTH",
"199 826 OFFCURVE",
"195 819 OFFCURVE",
"195 806 CURVE SMOOTH",
"195 710 OFFCURVE",
"177 622 OFFCURVE",
"177 600 CURVE SMOOTH",
"177 584 OFFCURVE",
"191 566 OFFCURVE",
"203 566 CURVE SMOOTH",
"224 566 OFFCURVE",
"243 743 OFFCURVE",
"243 792 CURVE SMOOTH"
);
}
);
width = 249;
}
);
unicode = 0022;
},
{
glyphname = numbersign;
lastChange = "2014-11-17 07:04:19 +0000";
layers = (
{
layerId = UUID0;
name = Bold;
paths = (
{
closed = 1;
nodes = (
"298 528 OFFCURVE",
"158 132 OFFCURVE",
"178 104 CURVE SMOOTH",
"179 45 OFFCURVE",
"203 -4 OFFCURVE",
"232 -4 CURVE SMOOTH",
"267 -4 OFFCURVE",
"290 97 OFFCURVE",
"325 221 CURVE SMOOTH",
"381 422 OFFCURVE",
"438 599 OFFCURVE",
"438 645 CURVE SMOOTH",
"438 699 OFFCURVE",
"358 748 OFFCURVE",
"329 748 CURVE SMOOTH",
"306 748 OFFCURVE",
"299 736 OFFCURVE",
"298 719 CURVE SMOOTH"
);
},
{
closed = 1;
nodes = (
"532 549 OFFCURVE",
"394 122 OFFCURVE",
"413 81 CURVE SMOOTH",
"414 39 OFFCURVE",
"429 -4 OFFCURVE",
"455 -4 CURVE SMOOTH",
"491 -4 OFFCURVE",
"522 77 OFFCURVE",
"556 202 CURVE SMOOTH",
"611 403 OFFCURVE",
"672 599 OFFCURVE",
"672 645 CURVE SMOOTH",
"672 699 OFFCURVE",
"593 748 OFFCURVE",
"563 748 CURVE SMOOTH",
"540 748 OFFCURVE",
"533 736 OFFCURVE",
"533 719 CURVE SMOOTH"
);
},
{
closed = 1;
nodes = (
"766 571 OFFCURVE",
"766 589 OFFCURVE",
"669 589 CURVE SMOOTH",
"536 589 OFFCURVE",
"104 582 OFFCURVE",
"104 507 CURVE SMOOTH",
"104 474 OFFCURVE",
"124 427 OFFCURVE",
"148 427 CURVE SMOOTH",
"168 427 OFFCURVE",
"301 451 OFFCURVE",
"444 469 CURVE SMOOTH",
"553 484 OFFCURVE",
"767 490 OFFCURVE",
"767 550 CURVE SMOOTH"
);
},
{
closed = 1;
nodes = (
"723 282 OFFCURVE",
"723 300 OFFCURVE",
"624 300 CURVE SMOOTH",
"493 300 OFFCURVE",
"62 293 OFFCURVE",
"62 218 CURVE SMOOTH",
"62 185 OFFCURVE",
"82 137 OFFCURVE",
"106 138 CURVE SMOOTH",
"125 138 OFFCURVE",
"257 161 OFFCURVE",
"401 180 CURVE SMOOTH",
"510 195 OFFCURVE",
"723 201 OFFCURVE",
"723 261 CURVE SMOOTH"
);
}
);
width = 780;
},
{
layerId = "6FA4A80C-3D50-4FAF-A835-1EC9F66A3889";
name = Light;
paths = (
{
closed = 1;
nodes = (
"239 548 OFFCURVE",
"102 62 OFFCURVE",
"102 32 CURVE SMOOTH",
"102 6 OFFCURVE",
"121 -10 OFFCURVE",
"130 -10 CURVE SMOOTH",
"143 -10 OFFCURVE",
"155 26 OFFCURVE",
"173 91 CURVE SMOOTH",
"238 325 OFFCURVE",
"298 569 OFFCURVE",
"298 658 CURVE SMOOTH",
"298 689 OFFCURVE",
"263 717 OFFCURVE",
"252 717 CURVE SMOOTH",
"239 717 OFFCURVE",
"239 710 OFFCURVE",
"239 683 CURVE SMOOTH"
);
},
{
closed = 1;
nodes = (
"455 540 OFFCURVE",
"317 62 OFFCURVE",
"317 29 CURVE SMOOTH",
"317 12 OFFCURVE",
"331 -10 OFFCURVE",
"344 -10 CURVE SMOOTH",
"355 -10 OFFCURVE",
"370 17 OFFCURVE",
"389 89 CURVE SMOOTH",
"451 324 OFFCURVE",
"514 569 OFFCURVE",
"514 658 CURVE SMOOTH",
"514 689 OFFCURVE",
"479 717 OFFCURVE",
"467 717 CURVE SMOOTH",
"455 717 OFFCURVE",
"455 710 OFFCURVE",
"455 683 CURVE SMOOTH"
);
},
{
closed = 1;
nodes = (
"609 549 OFFCURVE",
"595 559 OFFCURVE",
"564 559 CURVE SMOOTH",
"492 559 OFFCURVE",
"111 532 OFFCURVE",
"111 490 CURVE SMOOTH",
"111 478 OFFCURVE",
"127 457 OFFCURVE",
"140 457 CURVE SMOOTH",
"159 457 OFFCURVE",
"201 466 OFFCURVE",
"280 476 CURVE SMOOTH",
"561 512 OFFCURVE",
"609 519 OFFCURVE",
"609 536 CURVE SMOOTH"
);
},
{
closed = 1;
nodes = (
"548 234 OFFCURVE",
"535 243 OFFCURVE",
"503 243 CURVE SMOOTH",
"431 243 OFFCURVE",
"50 216 OFFCURVE",
"50 174 CURVE SMOOTH",
"50 162 OFFCURVE",
"68 141 OFFCURVE",
"79 141 CURVE SMOOTH",
"102 141 OFFCURVE",
"140 150 OFFCURVE",
"219 160 CURVE SMOOTH",
"501 196 OFFCURVE",
"548 203 OFFCURVE",
"548 221 CURVE SMOOTH"
);
}
);
width = 589;
}
);
unicode = 0023;
},
{
glyphname = dollar;
lastChange = "2014-11-17 07:04:19 +0000";
layers = (
{
layerId = UUID0;
name = Bold;
paths = (
{
closed = 1;
nodes = (
"511 670 OFFCURVE",
"478 751 OFFCURVE",
"427 751 CURVE SMOOTH",
"357 751 OFFCURVE",
"174 680 OFFCURVE",
"118 613 CURVE SMOOTH",
"100 590 OFFCURVE",
"86 535 OFFCURVE",
"86 492 CURVE SMOOTH",
"86 362 OFFCURVE",
"398 253 OFFCURVE",
"398 183 CURVE SMOOTH",
"398 137 OFFCURVE",
"280 128 OFFCURVE",
"201 128 CURVE SMOOTH",
"124 128 OFFCURVE",
"107 212 OFFCURVE",
"58 212 CURVE SMOOTH",
"41 212 OFFCURVE",
"31 189 OFFCURVE",
"31 147 CURVE SMOOTH",
"31 78 OFFCURVE",
"100 -15 OFFCURVE",
"218 -15 CURVE SMOOTH",
"343 -15 OFFCURVE",
"535 48 OFFCURVE",
"533 174 CURVE SMOOTH",
"532 347 OFFCURVE",
"218 464 OFFCURVE",
"218 506 CURVE SMOOTH",
"218 531 OFFCURVE",
"369 597 OFFCURVE",
"431 598 CURVE SMOOTH",
"470 598 OFFCURVE",
"471 588 OFFCURVE",
"490 588 CURVE SMOOTH",
"501 588 OFFCURVE",
"511 597 OFFCURVE",
"511 614 CURVE SMOOTH"
);
},
{
closed = 1;
nodes = (
"461 811 OFFCURVE",
"456 842 OFFCURVE",
"429 844 CURVE SMOOTH",
"370 845 OFFCURVE",
"304 556 OFFCURVE",
"266 367 CURVE SMOOTH",
"220 171 OFFCURVE",
"177 -3 OFFCURVE",
"176 -46 CURVE SMOOTH",
"175 -64 OFFCURVE",
"191 -87 OFFCURVE",
"209 -88 CURVE SMOOTH",
"254 -89 OFFCURVE",
"273 134 OFFCURVE",
"447 715 CURVE SMOOTH",
"457 748 OFFCURVE",
"460 772 OFFCURVE",
"460 788 CURVE SMOOTH"
);
}
);
width = 592;
},
{
layerId = "6FA4A80C-3D50-4FAF-A835-1EC9F66A3889";
name = Light;
paths = (
{
closed = 1;
nodes = (
"504 600 OFFCURVE",
"486 639 OFFCURVE",
"449 639 CURVE SMOOTH",
"369 639 OFFCURVE",
"224 598 OFFCURVE",
"156 536 CURVE SMOOTH",
"141 524 OFFCURVE",
"129 484 OFFCURVE",
"129 457 CURVE SMOOTH",
"129 353 OFFCURVE",
"391 268 OFFCURVE",
"391 181 CURVE SMOOTH",
"391 120 OFFCURVE",
"303 74 OFFCURVE",
"195 74 CURVE SMOOTH",
"111 74 OFFCURVE",
"58 173 OFFCURVE",
"36 173 CURVE SMOOTH",
"25 173 OFFCURVE",
"19 166 OFFCURVE",
"19 152 CURVE SMOOTH",
"19 113 OFFCURVE",
"94 17 OFFCURVE",
"206 17 CURVE SMOOTH",
"331 17 OFFCURVE",
"455 85 OFFCURVE",
"455 182 CURVE SMOOTH",
"455 295 OFFCURVE",
"187 393 OFFCURVE",
"187 466 CURVE SMOOTH",
"187 519 OFFCURVE",
"340 579 OFFCURVE",
"448 579 CURVE SMOOTH",
"465 579 OFFCURVE",
"480 571 OFFCURVE",
"493 571 CURVE SMOOTH",
"499 571 OFFCURVE",
"504 573 OFFCURVE",
"504 581 CURVE SMOOTH"
);
},
{
closed = 1;
nodes = (
"432 736 OFFCURVE",
"427 745 OFFCURVE",
"415 745 CURVE SMOOTH",
"383 745 OFFCURVE",
"375 716 OFFCURVE",
"261 346 CURVE SMOOTH",
"231 249 OFFCURVE",
"154 34 OFFCURVE",
"154 -37 CURVE SMOOTH",
"154 -52 OFFCURVE",
"159 -62 OFFCURVE",
"169 -62 CURVE SMOOTH",
"211 -62 OFFCURVE",
"264 201 OFFCURVE",
"424 676 CURVE SMOOTH",
"430 694 OFFCURVE",
"432 709 OFFCURVE",
"432 720 CURVE SMOOTH"
);
}
);
width = 503;
}
);
unicode = 0024;
},
{
glyphname = percent;
lastChange = "2014-11-17 07:04:19 +0000";
layers = (
{
layerId = UUID0;
name = Bold;
paths = (
{
closed = 1;
nodes = (
"629 623 LINE",
"494 437 OFFCURVE",
"249 111 OFFCURVE",
"236 56 CURVE SMOOTH",
"229 26 OFFCURVE",
"259 -3 OFFCURVE",
"286 -9 CURVE SMOOTH",
"309 -15 OFFCURVE",
"435 156 OFFCURVE",
"551 310 CURVE SMOOTH",
"726 549 OFFCURVE",
"801 626 OFFCURVE",
"816 678 CURVE SMOOTH",
"827 722 OFFCURVE",
"783 794 OFFCURVE",
"756 794 CURVE SMOOTH",
"716 794 OFFCURVE",
"492 630 OFFCURVE",
"380 657 CURVE SMOOTH",
"346 665 OFFCURVE",
"339 682 OFFCURVE",
"312 689 CURVE SMOOTH",
"292 694 OFFCURVE",
"279 686 OFFCURVE",
"275 665 CURVE SMOOTH",
"263 621 OFFCURVE",
"365 559 OFFCURVE",
"397 552 CURVE SMOOTH",
"452 538 OFFCURVE",
"572 566 OFFCURVE",
"649 621 CURVE"
);
},
{
closed = 1;
nodes = (
"312 287 OFFCURVE",
"406 412 OFFCURVE",
"406 519 CURVE SMOOTH",
"406 572 OFFCURVE",
"367 697 OFFCURVE",
"280 697 CURVE SMOOTH",
"170 697 OFFCURVE",
"83 538 OFFCURVE",
"83 464 CURVE SMOOTH",
"83 381 OFFCURVE",
"131 287 OFFCURVE",
"199 287 CURVE SMOOTH"
);
},
{
closed = 1;
nodes = (
"211 407 OFFCURVE",
"203 436 OFFCURVE",
"203 468 CURVE SMOOTH",
"203 507 OFFCURVE",
"245 576 OFFCURVE",
"269 576 CURVE SMOOTH",
"277 576 OFFCURVE",
"291 550 OFFCURVE",
"291 512 CURVE SMOOTH",
"291 450 OFFCURVE",
"243 407 OFFCURVE",
"225 407 CURVE SMOOTH"
);
},
{
closed = 1;
nodes = (
"809 -1 OFFCURVE",
"902 124 OFFCURVE",
"902 230 CURVE SMOOTH",
"902 283 OFFCURVE",
"863 409 OFFCURVE",
"776 409 CURVE SMOOTH",
"666 409 OFFCURVE",
"580 250 OFFCURVE",
"580 176 CURVE SMOOTH",
"580 92 OFFCURVE",
"628 -1 OFFCURVE",
"696 -1 CURVE SMOOTH"
);
},
{
closed = 1;
nodes = (
"708 119 OFFCURVE",
"699 147 OFFCURVE",
"699 180 CURVE SMOOTH",
"699 219 OFFCURVE",
"741 287 OFFCURVE",
"766 287 CURVE SMOOTH",
"773 287 OFFCURVE",
"787 261 OFFCURVE",
"787 223 CURVE SMOOTH",
"787 161 OFFCURVE",
"739 119 OFFCURVE",
"721 119 CURVE SMOOTH"
);
}
);
width = 991;
},
{
layerId = "6FA4A80C-3D50-4FAF-A835-1EC9F66A3889";
name = Light;
paths = (
{
closed = 1;
nodes = (
"631 687 LINE",
"333 255 OFFCURVE",
"179 43 OFFCURVE",
"179 20 CURVE SMOOTH",
"179 6 OFFCURVE",
"193 -16 OFFCURVE",
"201 -16 CURVE SMOOTH",
"221 -16 OFFCURVE",
"292 98 OFFCURVE",
"435 308 CURVE SMOOTH",
"530 448 OFFCURVE",
"686 639 OFFCURVE",
"686 688 CURVE SMOOTH",
"686 708 OFFCURVE",
"664 742 OFFCURVE",
"653 742 CURVE SMOOTH",
"629 742 OFFCURVE",
"516 655 OFFCURVE",
"413 655 CURVE SMOOTH",
"349 655 OFFCURVE",
"324 690 OFFCURVE",
"308 690 CURVE SMOOTH",
"301 690 OFFCURVE",
"292 687 OFFCURVE",
"292 677 CURVE SMOOTH",
"292 642 OFFCURVE",
"366 599 OFFCURVE",
"436 599 CURVE SMOOTH",
"500 599 OFFCURVE",
"566 623 OFFCURVE",
"626 665 CURVE"
);
},
{
closed = 1;
nodes = (
"284 312 OFFCURVE",
"387 422 OFFCURVE",
"387 542 CURVE SMOOTH",
"387 635 OFFCURVE",
"336 696 OFFCURVE",
"282 696 CURVE SMOOTH",
"202 696 OFFCURVE",
"103 584 OFFCURVE",
"103 432 CURVE SMOOTH",
"103 371 OFFCURVE",
"150 312 OFFCURVE",
"203 312 CURVE SMOOTH"
);
},
{
closed = 1;
nodes = (
"178 369 OFFCURVE",
"162 406 OFFCURVE",
"162 441 CURVE SMOOTH",
"162 542 OFFCURVE",
"235 641 OFFCURVE",
"278 641 CURVE SMOOTH",
"305 641 OFFCURVE",
"329 599 OFFCURVE",
"329 534 CURVE SMOOTH",
"329 452 OFFCURVE",
"255 369 OFFCURVE",
"211 369 CURVE SMOOTH"
);
},
{
closed = 1;
nodes = (
"658 16 OFFCURVE",
"760 126 OFFCURVE",
"760 246 CURVE SMOOTH",
"760 339 OFFCURVE",
"711 400 OFFCURVE",
"655 400 CURVE SMOOTH",
"576 400 OFFCURVE",
"477 288 OFFCURVE",
"477 136 CURVE SMOOTH",
"477 75 OFFCURVE",
"524 16 OFFCURVE",
"576 16 CURVE SMOOTH"
);
},
{
closed = 1;
nodes = (
"551 73 OFFCURVE",
"535 110 OFFCURVE",
"535 145 CURVE SMOOTH",
"535 246 OFFCURVE",
"608 345 OFFCURVE",
"651 345 CURVE SMOOTH",
"679 345 OFFCURVE",
"702 303 OFFCURVE",
"702 238 CURVE SMOOTH",
"702 156 OFFCURVE",
"629 73 OFFCURVE",
"585 73 CURVE SMOOTH"
);
}
);
width = 835;
}
);
unicode = 0025;
},
{
glyphname = ampersand;
lastChange = "2014-11-17 07:33:11 +0000";
layers = (
{
background = {
paths = (
{
closed = 1;
nodes = (
"709 393 OFFCURVE",
"698 421 OFFCURVE",
"660 421 CURVE SMOOTH",
"623 421 OFFCURVE",
"241 120 OFFCURVE",
"142 120 CURVE",
"144 117 LINE",
"144 175 OFFCURVE",
"514 403 OFFCURVE",
"513 575 CURVE SMOOTH",
"512 628 OFFCURVE",
"484 726 OFFCURVE",
"381 726 CURVE SMOOTH",
"254 726 OFFCURVE",
"163 641 OFFCURVE",
"164 541 CURVE SMOOTH",
"166 348 OFFCURVE",
"380 9 OFFCURVE",
"588 9 CURVE SMOOTH",
"669 9 OFFCURVE",
"714 36 OFFCURVE",
"714 79 CURVE SMOOTH",
"714 104 OFFCURVE",
"691 111 OFFCURVE",
"620 111 CURVE SMOOTH",
"445 111 OFFCURVE",
"304 363 OFFCURVE",
"302 531 CURVE SMOOTH",
"301 571 OFFCURVE",
"313 605 OFFCURVE",
"343 605 CURVE SMOOTH",
"361 605 OFFCURVE",
"372 580 OFFCURVE",
"373 552 CURVE SMOOTH",
"374 444 OFFCURVE",
"3 232 OFFCURVE",
"3 139 CURVE SMOOTH",
"3 92 OFFCURVE",
"81 -3 OFFCURVE",
"148 -3 CURVE SMOOTH",
"300 -3 OFFCURVE",
"709 292 OFFCURVE",
"709 367 CURVE SMOOTH"
);
}
);
};
layerId = UUID0;
name = Bold;
paths = (
{
closed = 1;
nodes = (
"709 393 OFFCURVE",
"698 421 OFFCURVE",
"660 421 CURVE SMOOTH",
"623 421 OFFCURVE",
"241 117 OFFCURVE",
"146 117 CURVE SMOOTH",
"142 117 OFFCURVE",
"140 119 OFFCURVE",
"140 122 CURVE SMOOTH",
"140 179 OFFCURVE",
"514 403 OFFCURVE",
"513 575 CURVE SMOOTH",
"512 628 OFFCURVE",
"484 726 OFFCURVE",
"381 726 CURVE SMOOTH",
"254 726 OFFCURVE",
"163 641 OFFCURVE",
"164 541 CURVE SMOOTH",
"166 348 OFFCURVE",
"380 9 OFFCURVE",
"588 9 CURVE SMOOTH",
"669 9 OFFCURVE",
"714 36 OFFCURVE",
"714 79 CURVE SMOOTH",
"714 104 OFFCURVE",
"691 111 OFFCURVE",
"620 111 CURVE SMOOTH",
"445 111 OFFCURVE",
"304 363 OFFCURVE",
"302 531 CURVE SMOOTH",
"301 571 OFFCURVE",
"313 605 OFFCURVE",
"343 605 CURVE SMOOTH",
"361 605 OFFCURVE",
"372 580 OFFCURVE",
"373 552 CURVE SMOOTH",
"374 444 OFFCURVE",
"3 232 OFFCURVE",
"3 139 CURVE SMOOTH",
"3 92 OFFCURVE",
"81 -3 OFFCURVE",
"148 -3 CURVE SMOOTH",
"300 -3 OFFCURVE",
"709 292 OFFCURVE",
"709 367 CURVE SMOOTH"
);
}
);
width = 786;
},
{
layerId = "6FA4A80C-3D50-4FAF-A835-1EC9F66A3889";
name = Light;
paths = (
{
closed = 1;
nodes = (
"620 344 OFFCURVE",
"614 351 OFFCURVE",
"598 351 CURVE SMOOTH",
"568 351 OFFCURVE",
"247 71 OFFCURVE",
"123 71 CURVE SMOOTH",
"100 71 OFFCURVE",
"83 86 OFFCURVE",
"83 107 CURVE SMOOTH",
"83 180 OFFCURVE",
"481 396 OFFCURVE",
"481 547 CURVE SMOOTH",
"481 592 OFFCURVE",
"461 657 OFFCURVE",
"368 657 CURVE SMOOTH",
"260 657 OFFCURVE",
"187 564 OFFCURVE",
"187 469 CURVE SMOOTH",
"187 277 OFFCURVE",
"359 26 OFFCURVE",
"539 26 CURVE SMOOTH",
"599 26 OFFCURVE",
"621 42 OFFCURVE",
"621 61 CURVE SMOOTH",
"621 76 OFFCURVE",
"604 80 OFFCURVE",
"541 80 CURVE SMOOTH",
"387 80 OFFCURVE",
"248 292 OFFCURVE",
"248 463 CURVE SMOOTH",
"248 537 OFFCURVE",
"296 605 OFFCURVE",
"358 605 CURVE SMOOTH",
"402 605 OFFCURVE",
"419 579 OFFCURVE",
"419 547 CURVE SMOOTH",
"419 416 OFFCURVE",
"22 209 OFFCURVE",
"22 115 CURVE SMOOTH",
"22 60 OFFCURVE",
"77 15 OFFCURVE",
"120 15 CURVE SMOOTH",
"262 15 OFFCURVE",
"620 295 OFFCURVE",
"620 330 CURVE SMOOTH"
);
}
);
width = 660;
}
);
unicode = 0026;
},
{
glyphname = quotesingle;
lastChange = "2014-11-17 07:04:19 +0000";
layers = (
{
layerId = UUID0;
name = Bold;
paths = (
{
closed = 1;
nodes = (
"258 836 OFFCURVE",
"188 882 OFFCURVE",
"165 882 CURVE SMOOTH",
"157 882 OFFCURVE",
"149 878 OFFCURVE",
"149 867 CURVE SMOOTH",
"149 738 OFFCURVE",
"119 605 OFFCURVE",
"119 574 CURVE SMOOTH",
"119 553 OFFCURVE",
"153 528 OFFCURVE",
"167 528 CURVE SMOOTH",
"208 510 OFFCURVE",
"258 789 OFFCURVE",
"258 823 CURVE SMOOTH"
);
}
);
width = 220;
},
{
layerId = "6FA4A80C-3D50-4FAF-A835-1EC9F66A3889";
name = Light;
paths = (
{
closed = 1;
nodes = (
"220 805 OFFCURVE",
"193 826 OFFCURVE",
"182 826 CURVE SMOOTH",
"174 826 OFFCURVE",
"171 819 OFFCURVE",
"171 806 CURVE SMOOTH",
"171 711 OFFCURVE",
"151 622 OFFCURVE",
"151 600 CURVE SMOOTH",
"151 585 OFFCURVE",
"165 566 OFFCURVE",
"178 566 CURVE SMOOTH",
"199 566 OFFCURVE",
"220 743 OFFCURVE",
"220 792 CURVE SMOOTH"
);
}
);
width = 332;
}
);
unicode = 0027;
},
{
glyphname = parenleft;
lastChange = "2014-11-17 07:04:19 +0000";
layers = (
{
layerId = UUID0;
name = Bold;
paths = (
{
closed = 1;
nodes = (
"211 626 OFFCURVE",
"576 742 OFFCURVE",
"576 825 CURVE SMOOTH",
"576 858 OFFCURVE",
"543 888 OFFCURVE",
"506 888 CURVE SMOOTH",
"396 888 OFFCURVE",
"73 623 OFFCURVE",
"73 275 CURVE SMOOTH",
"73 61 OFFCURVE",
"258 -100 OFFCURVE",
"432 -100 CURVE SMOOTH",
"454 -100 OFFCURVE",
"465 -90 OFFCURVE",
"465 -77 CURVE SMOOTH",
"465 -1 OFFCURVE",
"211 28 OFFCURVE",
"211 258 CURVE SMOOTH"
);
}
);
width = 478;
},
{
layerId = "6FA4A80C-3D50-4FAF-A835-1EC9F66A3889";
name = Light;
paths = (
{
closed = 1;
nodes = (
"146 628 OFFCURVE",
"537 791 OFFCURVE",
"537 831 CURVE SMOOTH",
"537 848 OFFCURVE",
"517 868 OFFCURVE",
"500 868 CURVE SMOOTH",
"449 868 OFFCURVE",
"84 640 OFFCURVE",
"84 271 CURVE SMOOTH",
"84 8 OFFCURVE",
"315 -98 OFFCURVE",
"407 -98 CURVE SMOOTH",
"426 -98 OFFCURVE",
"434 -90 OFFCURVE",
"434 -79 CURVE SMOOTH",
"434 -33 OFFCURVE",
"146 -9 OFFCURVE",
"146 262 CURVE SMOOTH"
);
}
);
width = 489;
}
);
unicode = 0028;
},
{
glyphname = parenright;
lastChange = "2014-11-17 07:04:19 +0000";
layers = (
{
layerId = UUID0;
name = Bold;
paths = (
{
closed = 1;
nodes = (
"88 -105 OFFCURVE",
"456 176 OFFCURVE",
"455 616 CURVE SMOOTH",
"455 751 OFFCURVE",
"349 893 OFFCURVE",
"242 893 CURVE SMOOTH",
"190 893 OFFCURVE",
"160 866 OFFCURVE",
"160 817 CURVE SMOOTH",
"160 733 OFFCURVE",
"315 747 OFFCURVE",
"315 553 CURVE SMOOTH",
"315 183 OFFCURVE",
"-38 -10 OFFCURVE",
"-38 -81 CURVE SMOOTH",
"-38 -94 OFFCURVE",
"-26 -105 OFFCURVE",
"-4 -105 CURVE SMOOTH"
);
}
);
width = 530;
},
{
layerId = "6FA4A80C-3D50-4FAF-A835-1EC9F66A3889";
name = Light;
paths = (
{
closed = 1;
nodes = (
"41 -78 OFFCURVE",
"411 164 OFFCURVE",
"411 547 CURVE SMOOTH",
"411 733 OFFCURVE",
"288 844 OFFCURVE",
"220 844 CURVE SMOOTH",
"200 844 OFFCURVE",
"178 839 OFFCURVE",
"178 818 CURVE SMOOTH",
"178 774 OFFCURVE",
"343 749 OFFCURVE",
"343 528 CURVE SMOOTH",
"343 182 OFFCURVE",
"-28 -27 OFFCURVE",
"-28 -64 CURVE SMOOTH",
"-28 -74 OFFCURVE",
"-20 -78 OFFCURVE",
"-12 -78 CURVE SMOOTH"
);
}
);
width = 490;
}
);
unicode = 0029;
},
{
glyphname = asterisk;
lastChange = "2014-11-17 07:04:19 +0000";
layers = (
{
layerId = UUID0;
name = Bold;
paths = (
{
closed = 1;
nodes = (
"334 681 OFFCURVE",
"402 717 OFFCURVE",
"402 727 CURVE SMOOTH",
"402 744 OFFCURVE",
"377 762 OFFCURVE",
"363 762 CURVE SMOOTH",
"350 762 OFFCURVE",
"314 716 OFFCURVE",
"280 698 CURVE",
"283 713 OFFCURVE",
"297 750 OFFCURVE",
"297 762 CURVE SMOOTH",
"297 779 OFFCURVE",
"258 806 OFFCURVE",
"241 806 CURVE SMOOTH",
"232 806 OFFCURVE",
"228 802 OFFCURVE",
"228 789 CURVE SMOOTH",
"228 775 OFFCURVE",
"231 732 OFFCURVE",
"231 694 CURVE",
"212 705 OFFCURVE",
"188 730 OFFCURVE",
"188 739 CURVE SMOOTH",
"188 756 OFFCURVE",
"135 768 OFFCURVE",
"108 768 CURVE SMOOTH",
"97 768 OFFCURVE",
"97 762 OFFCURVE",
"97 753 CURVE SMOOTH",
"97 739 OFFCURVE",
"159 687 OFFCURVE",
"213 664 CURVE",
"184 643 OFFCURVE",
"92 616 OFFCURVE",
"92 603 CURVE SMOOTH",
"92 592 OFFCURVE",
"110 576 OFFCURVE",
"123 576 CURVE SMOOTH",
"135 576 OFFCURVE",
"197 604 OFFCURVE",
"223 629 CURVE",
"220 615 OFFCURVE",
"203 557 OFFCURVE",
"203 545 CURVE SMOOTH",
"203 532 OFFCURVE",
"221 515 OFFCURVE",
"233 515 CURVE SMOOTH",
"249 515 OFFCURVE",
"266 588 OFFCURVE",
"271 623 CURVE",
"297 601 OFFCURVE",
"344 577 OFFCURVE",
"362 577 CURVE SMOOTH",
"373 577 OFFCURVE",
"389 586 OFFCURVE",
"389 597 CURVE SMOOTH",
"389 608 OFFCURVE",
"322 637 OFFCURVE",
"294 662 CURVE"
);
}
);
width = 375;
},
{
layerId = "6FA4A80C-3D50-4FAF-A835-1EC9F66A3889";
name = Light;
paths = (
{
closed = 1;
nodes = (
"299 680 OFFCURVE",
"370 717 OFFCURVE",
"370 726 CURVE SMOOTH",
"370 737 OFFCURVE",
"355 746 OFFCURVE",
"344 746 CURVE SMOOTH",
"332 746 OFFCURVE",
"294 709 OFFCURVE",
"250 680 CURVE",
"260 710 OFFCURVE",
"269 744 OFFCURVE",
"269 753 CURVE SMOOTH",
"269 768 OFFCURVE",
"248 786 OFFCURVE",
"239 786 CURVE SMOOTH",
"231 786 OFFCURVE",
"227 783 OFFCURVE",
"227 772 CURVE SMOOTH",
"227 760 OFFCURVE",
"227 715 OFFCURVE",
"225 683 CURVE",
"207 691 OFFCURVE",
"175 732 OFFCURVE",
"169 739 CURVE SMOOTH",
"160 750 OFFCURVE",
"140 753 OFFCURVE",
"125 753 CURVE SMOOTH",
"116 753 OFFCURVE",
"115 748 OFFCURVE",
"115 742 CURVE SMOOTH",
"115 725 OFFCURVE",
"182 675 OFFCURVE",
"213 664 CURVE",
"162 633 OFFCURVE",
"106 617 OFFCURVE",
"106 607 CURVE SMOOTH",
"106 597 OFFCURVE",
"116 586 OFFCURVE",
"127 586 CURVE SMOOTH",
"137 586 OFFCURVE",
"198 622 OFFCURVE",
"220 643 CURVE",
"213 607 OFFCURVE",
"193 564 OFFCURVE",
"193 554 CURVE SMOOTH",
"193 548 OFFCURVE",
"202 536 OFFCURVE",
"211 536 CURVE SMOOTH",
"224 536 OFFCURVE",
"240 614 OFFCURVE",
"244 643 CURVE",
"276 615 OFFCURVE",
"313 587 OFFCURVE",
"326 587 CURVE SMOOTH",
"334 587 OFFCURVE",
"346 596 OFFCURVE",
"346 604 CURVE SMOOTH",
"346 616 OFFCURVE",
"292 636 OFFCURVE",
"258 663 CURVE"
);
}
);
width = 348;
}
);
unicode = 002A;
},
{
glyphname = plus;
lastChange = "2014-11-17 07:04:19 +0000";
layers = (
{
layerId = UUID0;
name = Bold;
paths = (
{
closed = 1;
nodes = (
"220 267 OFFCURVE",
"633 281 OFFCURVE",
"633 372 CURVE SMOOTH",
"633 395 OFFCURVE",
"584 401 OFFCURVE",
"516 401 CURVE SMOOTH",
"468 401 OFFCURVE",
"296 394 OFFCURVE",
"251 390 CURVE SMOOTH",
"179 383 OFFCURVE",
"111 381 OFFCURVE",
"86 381 CURVE SMOOTH",
"64 381 OFFCURVE",
"55 372 OFFCURVE",
"55 354 CURVE SMOOTH",
"55 321 OFFCURVE",
"86 267 OFFCURVE",
"131 267 CURVE SMOOTH"
);
},
{
closed = 1;
nodes = (
"410 372 OFFCURVE",
"433 463 OFFCURVE",
"433 501 CURVE SMOOTH",
"433 525 OFFCURVE",
"355 604 OFFCURVE",
"310 604 CURVE SMOOTH",
"294 604 OFFCURVE",
"281 596 OFFCURVE",
"281 572 CURVE SMOOTH",
"281 329 OFFCURVE",
"232 198 OFFCURVE",
"232 158 CURVE SMOOTH",
"232 119 OFFCURVE",
"286 71 OFFCURVE",
"315 71 CURVE SMOOTH",
"338 71 OFFCURVE",
"349 108 OFFCURVE",
"386 267 CURVE SMOOTH"
);
}
);
width = 600;
},
{
layerId = "6FA4A80C-3D50-4FAF-A835-1EC9F66A3889";
name = Light;
paths = (
{
closed = 1;
nodes = (
"311 287 OFFCURVE",
"591 322 OFFCURVE",
"591 356 CURVE SMOOTH",
"591 369 OFFCURVE",
"574 375 OFFCURVE",
"549 375 CURVE SMOOTH",
"491 375 OFFCURVE",
"359 349 OFFCURVE",
"186 349 CURVE SMOOTH",
"131 349 OFFCURVE",
"92 351 OFFCURVE",
"81 351 CURVE SMOOTH",
"66 351 OFFCURVE",
"55 346 OFFCURVE",
"55 333 CURVE SMOOTH",
"55 312 OFFCURVE",
"82 287 OFFCURVE",
"109 287 CURVE SMOOTH"
);
},
{
closed = 1;
nodes = (
"360 418 OFFCURVE",
"376 476 OFFCURVE",
"376 505 CURVE SMOOTH",
"376 526 OFFCURVE",
"340 562 OFFCURVE",
"327 562 CURVE SMOOTH",
"319 562 OFFCURVE",
"312 555 OFFCURVE",
"310 534 CURVE SMOOTH",
"273 216 OFFCURVE",
"253 151 OFFCURVE",
"253 116 CURVE SMOOTH",
"253 92 OFFCURVE",
"267 69 OFFCURVE",
"280 69 CURVE SMOOTH",
"300 69 OFFCURVE",
"307 156 OFFCURVE",
"338 314 CURVE SMOOTH"
);
}
);
width = 600;
}
);
unicode = 002B;
},
{
glyphname = comma;
lastChange = "2014-11-17 07:04:19 +0000";
layers = (
{
layerId = UUID0;
name = Bold;
paths = (
{
closed = 1;
nodes = (
"113 -225 OFFCURVE",
"221 -90 OFFCURVE",
"221 19 CURVE SMOOTH",
"221 78 OFFCURVE",
"172 142 OFFCURVE",
"119 142 CURVE SMOOTH",
"78 142 OFFCURVE",
"33 89 OFFCURVE",
"33 62 CURVE SMOOTH",
"33 28 OFFCURVE",
"104 20 OFFCURVE",
"104 -30 CURVE SMOOTH",
"104 -97 OFFCURVE",
"20 -178 OFFCURVE",
"20 -204 CURVE SMOOTH",
"20 -219 OFFCURVE",
"31 -225 OFFCURVE",
"50 -225 CURVE SMOOTH"
);
}
);
width = 262;
},
{
layerId = "6FA4A80C-3D50-4FAF-A835-1EC9F66A3889";
name = Light;
paths = (
{
closed = 1;
nodes = (
"56 -150 OFFCURVE",
"148 -47 OFFCURVE",
"148 30 CURVE SMOOTH",
"148 75 OFFCURVE",
"115 111 OFFCURVE",
"79 111 CURVE SMOOTH",
"59 111 OFFCURVE",
"43 81 OFFCURVE",
"43 66 CURVE SMOOTH",
"43 43 OFFCURVE",
"84 45 OFFCURVE",
"84 15 CURVE SMOOTH",
"84 -65 OFFCURVE",
"0 -109 OFFCURVE",
"0 -139 CURVE SMOOTH",
"0 -147 OFFCURVE",
"5 -150 OFFCURVE",
"15 -150 CURVE SMOOTH"
);
}
);
width = 210;
}
);
unicode = 002C;
},
{
glyphname = hyphen;
lastChange = "2014-11-17 07:04:19 +0000";
layers = (
{
layerId = UUID0;
name = Bold;
paths = (
{
closed = 1;
nodes = (
"406 281 OFFCURVE",
"497 299 OFFCURVE",
"497 335 CURVE SMOOTH",
"497 356 OFFCURVE",
"474 369 OFFCURVE",
"421 369 CURVE SMOOTH",
"244 369 OFFCURVE",
"50 339 OFFCURVE",
"50 301 CURVE SMOOTH",
"50 268 OFFCURVE",
"86 221 OFFCURVE",
"117 221 CURVE SMOOTH",
"143 221 OFFCURVE",
"214 243 OFFCURVE",
"296 260 CURVE SMOOTH"
);
}
);
width = 531;
},
{
layerId = "6FA4A80C-3D50-4FAF-A835-1EC9F66A3889";
name = Light;
paths = (
{
closed = 1;
nodes = (
"362 304 OFFCURVE",
"382 308 OFFCURVE",
"382 324 CURVE SMOOTH",
"382 337 OFFCURVE",
"362 344 OFFCURVE",
"330 344 CURVE SMOOTH",
"275 344 OFFCURVE",
"55 313 OFFCURVE",
"55 284 CURVE SMOOTH",
"55 272 OFFCURVE",
"76 253 OFFCURVE",
"91 253 CURVE SMOOTH",
"112 253 OFFCURVE",
"149 262 OFFCURVE",
"226 277 CURVE SMOOTH"
);
}
);
width = 420;
}
);
unicode = 002D;
},
{
glyphname = period;
lastChange = "2014-11-17 07:04:19 +0000";
layers = (
{
layerId = UUID0;
name = Bold;
paths = (
{
closed = 1;
nodes = (
"33 64 OFFCURVE",
"101 -5 OFFCURVE",
"144 -5 CURVE SMOOTH",
"167 -5 OFFCURVE",
"198 26 OFFCURVE",
"198 46 CURVE SMOOTH",
"198 79 OFFCURVE",
"145 187 OFFCURVE",
"109 187 CURVE SMOOTH",
"74 187 OFFCURVE",
"33 138 OFFCURVE",
"33 103 CURVE SMOOTH"
);
}
);
width = 237;
},
{
layerId = "6FA4A80C-3D50-4FAF-A835-1EC9F66A3889";
name = Light;
paths = (
{
closed = 1;
nodes = (
"68 44 OFFCURVE",
"116 -6 OFFCURVE",
"146 -6 CURVE SMOOTH",
"155 -6 OFFCURVE",
"166 4 OFFCURVE",
"166 9 CURVE SMOOTH",
"166 36 OFFCURVE",
"131 122 OFFCURVE",
"109 122 CURVE SMOOTH",
"90 122 OFFCURVE",
"68 92 OFFCURVE",
"68 72 CURVE SMOOTH"
);
}
);
width = 237;
}
);
unicode = 002E;
},
{
glyphname = slash;
lastChange = "2014-11-17 07:04:19 +0000";
layers = (
{
layerId = UUID0;
name = Bold;
paths = (
{
closed = 1;
nodes = (
"96 -80 OFFCURVE",
"179 116 OFFCURVE",
"252 293 CURVE SMOOTH",
"365 568 OFFCURVE",
"421 675 OFFCURVE",
"421 729 CURVE SMOOTH",
"421 774 OFFCURVE",
"350 857 OFFCURVE",
"325 857 CURVE SMOOTH",
"304 857 OFFCURVE",
"303 844 OFFCURVE",
"297 827 CURVE SMOOTH",
"223 615 OFFCURVE",
"-5 86 OFFCURVE",
"-5 14 CURVE SMOOTH",
"-5 -17 OFFCURVE",
"43 -80 OFFCURVE",
"73 -80 CURVE SMOOTH"
);
}
);
width = 282;
},
{
layerId = "6FA4A80C-3D50-4FAF-A835-1EC9F66A3889";
name = Light;
paths = (
{
closed = 1;
nodes = (
"69 -75 OFFCURVE",
"83 -41 OFFCURVE",
"220 288 CURVE SMOOTH",
"285 444 OFFCURVE",
"407 654 OFFCURVE",
"407 707 CURVE SMOOTH",
"407 728 OFFCURVE",
"381 763 OFFCURVE",
"371 763 CURVE SMOOTH",
"361 763 OFFCURVE",
"360 756 OFFCURVE",
"350 734 CURVE SMOOTH",
"108 196 OFFCURVE",
"26 -2 OFFCURVE",
"26 -39 CURVE SMOOTH",
"26 -50 OFFCURVE",
"47 -75 OFFCURVE",
"56 -75 CURVE SMOOTH"
);
}
);
width = 392;
}
);
unicode = 002F;
},
{
glyphname = zero;
lastChange = "2014-11-17 07:04:19 +0000";
layers = (
{
anchors = (
{
name = top;
position = "{414, 723}";
}
);
layerId = UUID0;
name = Bold;
paths = (
{
closed = 1;
nodes = (
"33 140 OFFCURVE",
"109 13 OFFCURVE",
"213 13 CURVE SMOOTH",
"390 13 OFFCURVE",
"518 344 OFFCURVE",
"518 531 CURVE SMOOTH",
"518 673 OFFCURVE",
"450 747 OFFCURVE",
"347 747 CURVE SMOOTH",
"203 747 OFFCURVE",
"33 487 OFFCURVE",
"33 230 CURVE SMOOTH"
);
},
{
closed = 1;
nodes = (
"368 616 OFFCURVE",
"376 585 OFFCURVE",
"376 521 CURVE SMOOTH",
"376 380 OFFCURVE",
"267 134 OFFCURVE",
"212 134 CURVE SMOOTH",
"188 134 OFFCURVE",
"180 172 OFFCURVE",
"180 230 CURVE SMOOTH",
"180 411 OFFCURVE",
"305 616 OFFCURVE",
"349 616 CURVE SMOOTH"
);
}
);
width = 513;
},
{
layerId = "6FA4A80C-3D50-4FAF-A835-1EC9F66A3889";
name = Light;
paths = (
{
closed = 1;
nodes = (
"62 92 OFFCURVE",
"130 20 OFFCURVE",
"195 20 CURVE SMOOTH",
"308 20 OFFCURVE",
"445 270 OFFCURVE",
"445 474 CURVE SMOOTH",
"445 634 OFFCURVE",
"407 716 OFFCURVE",
"336 716 CURVE SMOOTH",
"213 716 OFFCURVE",
"62 431 OFFCURVE",
"62 185 CURVE SMOOTH"
);
},
{
closed = 1;
nodes = (
"365 661 OFFCURVE",
"383 595 OFFCURVE",
"383 470 CURVE SMOOTH",
"383 303 OFFCURVE",
"264 77 OFFCURVE",
"202 77 CURVE SMOOTH",
"140 77 OFFCURVE",
"126 141 OFFCURVE",
"126 203 CURVE SMOOTH",
"126 396 OFFCURVE",
"264 661 OFFCURVE",
"328 661 CURVE SMOOTH"
);
}
);
width = 493;
}
);
unicode = 0030;
},
{
glyphname = one;
lastChange = "2014-11-17 07:04:19 +0000";
layers = (
{
layerId = UUID0;
name = Bold;
paths = (
{
closed = 1;
nodes = (
"274 480 OFFCURVE",
"297 571 OFFCURVE",
"297 648 CURVE SMOOTH",
"297 671 OFFCURVE",
"207 751 OFFCURVE",
"164 751 CURVE SMOOTH",
"149 751 OFFCURVE",
"135 743 OFFCURVE",
"135 722 CURVE SMOOTH",
"135 378 OFFCURVE",
"46 167 OFFCURVE",
"46 99 CURVE SMOOTH",
"46 61 OFFCURVE",
"99 13 OFFCURVE",
"128 13 CURVE SMOOTH",
"175 13 OFFCURVE",
"198 184 OFFCURVE",
"239 343 CURVE SMOOTH"
);
}
);
width = 302;
},
{
layerId = "6FA4A80C-3D50-4FAF-A835-1EC9F66A3889";
name = Light;
paths = (
{
closed = 1;
nodes = (
"238 457 OFFCURVE",
"257 605 OFFCURVE",
"257 652 CURVE SMOOTH",
"257 677 OFFCURVE",
"239 712 OFFCURVE",
"216 712 CURVE SMOOTH",
"207 712 OFFCURVE",
"199 704 OFFCURVE",
"197 681 CURVE SMOOTH",
"161 314 OFFCURVE",
"80 117 OFFCURVE",
"80 50 CURVE SMOOTH",
"80 29 OFFCURVE",
"93 4 OFFCURVE",
"105 4 CURVE SMOOTH",
"132 4 OFFCURVE",
"163 165 OFFCURVE",
"209 343 CURVE SMOOTH"
);
}
);
width = 321;
}
);
unicode = 0031;
},
{
glyphname = two;
lastChange = "2014-11-17 07:04:19 +0000";
layers = (
{
layerId = UUID0;
name = Bold;
paths = (
{
closed = 1;
nodes = (
"244 507 OFFCURVE",
"265 593 OFFCURVE",
"332 593 CURVE SMOOTH",
"355 593 OFFCURVE",
"370 580 OFFCURVE",
"370 550 CURVE SMOOTH",
"370 414 OFFCURVE",
"7 193 OFFCURVE",
"8 141 CURVE SMOOTH",
"8 94 OFFCURVE",
"97 16 OFFCURVE",
"143 16 CURVE SMOOTH",
"238 16 OFFCURVE",
"545 86 OFFCURVE",
"545 142 CURVE SMOOTH",
"545 171 OFFCURVE",
"512 182 OFFCURVE",
"448 182 CURVE SMOOTH",
"391 182 OFFCURVE",
"257 164 OFFCURVE",
"146 142 CURVE",
"141 127 LINE",
"338 228 OFFCURVE",
"512 396 OFFCURVE",
"512 559 CURVE SMOOTH",
"512 665 OFFCURVE",
"443 745 OFFCURVE",
"333 745 CURVE SMOOTH",
"205 745 OFFCURVE",
"122 654 OFFCURVE",
"122 585 CURVE SMOOTH",
"122 556 OFFCURVE",
"193 507 OFFCURVE",
"227 507 CURVE SMOOTH"
);
}
);
width = 583;
},
{
layerId = "6FA4A80C-3D50-4FAF-A835-1EC9F66A3889";
name = Light;
paths = (
{
closed = 1;
nodes = (
"213 577 OFFCURVE",
"264 653 OFFCURVE",
"342 653 CURVE SMOOTH",
"400 653 OFFCURVE",
"431 604 OFFCURVE",
"431 543 CURVE SMOOTH",
"431 312 OFFCURVE",
"59 148 OFFCURVE",
"59 87 CURVE SMOOTH",
"59 50 OFFCURVE",
"102 23 OFFCURVE",
"137 23 CURVE SMOOTH",
"203 23 OFFCURVE",
"491 73 OFFCURVE",
"491 108 CURVE SMOOTH",
"491 122 OFFCURVE",
"476 122 OFFCURVE",
"447 122 CURVE SMOOTH",
"398 122 OFFCURVE",
"155 76 OFFCURVE",
"103 74 CURVE",
"101 70 LINE",
"325 225 OFFCURVE",
"494 379 OFFCURVE",
"494 549 CURVE SMOOTH",
"494 640 OFFCURVE",
"429 714 OFFCURVE",
"333 714 CURVE SMOOTH",
"257 714 OFFCURVE",
"156 637 OFFCURVE",
"156 605 CURVE SMOOTH",
"156 587 OFFCURVE",
"182 577 OFFCURVE",
"196 577 CURVE SMOOTH"
);
}
);
width = 580;
}
);
unicode = 0032;
},
{
glyphname = three;
lastChange = "2014-11-17 07:04:19 +0000";
layers = (
{
layerId = UUID0;
name = Bold;
paths = (
{
closed = 1;
nodes = (
"314 318 OFFCURVE",
"526 477 OFFCURVE",
"526 591 CURVE SMOOTH",
"526 665 OFFCURVE",
"454 745 OFFCURVE",
"363 745 CURVE SMOOTH",
"274 745 OFFCURVE",
"102 695 OFFCURVE",
"102 635 CURVE SMOOTH",
"102 613 OFFCURVE",
"170 547 OFFCURVE",
"193 547 CURVE SMOOTH",
"233 547 OFFCURVE",
"304 612 OFFCURVE",
"365 612 CURVE SMOOTH",
"370 612 OFFCURVE",
"374 608 OFFCURVE",
"374 600 CURVE SMOOTH",
"374 492 OFFCURVE",
"153 411 OFFCURVE",
"153 355 CURVE SMOOTH",
"153 331 OFFCURVE",
"177 318 OFFCURVE",
"211 318 CURVE SMOOTH"
);
},
{
closed = 1;
nodes = (
"-27 34 OFFCURVE",
"0 12 OFFCURVE",
"81 12 CURVE SMOOTH",
"259 12 OFFCURVE",
"511 129 OFFCURVE",
"511 258 CURVE SMOOTH",
"511 351 OFFCURVE",
"404 398 OFFCURVE",
"230 398 CURVE SMOOTH",
"196 398 OFFCURVE",
"153 384 OFFCURVE",
"153 359 CURVE SMOOTH",
"153 283 OFFCURVE",
"333 325 OFFCURVE",
"333 258 CURVE SMOOTH",
"333 154 OFFCURVE",
"-27 108 OFFCURVE",
"-27 59 CURVE SMOOTH"
);
}
);
width = 547;
},
{
layerId = "6FA4A80C-3D50-4FAF-A835-1EC9F66A3889";
name = Light;
paths = (
{
closed = 1;
nodes = (
"278 344 OFFCURVE",
"543 450 OFFCURVE",
"543 572 CURVE SMOOTH",
"543 640 OFFCURVE",
"484 706 OFFCURVE",
"398 706 CURVE SMOOTH",
"328 706 OFFCURVE",
"193 653 OFFCURVE",
"193 621 CURVE SMOOTH",
"193 610 OFFCURVE",
"221 586 OFFCURVE",
"232 586 CURVE SMOOTH",
"246 586 OFFCURVE",
"330 650 OFFCURVE",
"405 650 CURVE SMOOTH",
"471 650 OFFCURVE",
"479 608 OFFCURVE",
"479 585 CURVE SMOOTH",
"479 451 OFFCURVE",
"199 393 OFFCURVE",
"199 350 CURVE SMOOTH",
"199 344 OFFCURVE",
"208 344 OFFCURVE",
"228 344 CURVE SMOOTH"
);
},
{
closed = 1;
nodes = (
"67 26 OFFCURVE",
"94 18 OFFCURVE",
"163 18 CURVE SMOOTH",
"325 18 OFFCURVE",
"535 112 OFFCURVE",
"535 231 CURVE SMOOTH",
"535 316 OFFCURVE",
"396 361 OFFCURVE",
"240 361 CURVE SMOOTH",
"209 361 OFFCURVE",
"197 361 OFFCURVE",
"197 342 CURVE SMOOTH",
"197 315 OFFCURVE",
"458 315 OFFCURVE",
"458 234 CURVE SMOOTH",
"458 72 OFFCURVE",
"67 66 OFFCURVE",
"67 45 CURVE SMOOTH"
);
}
);
width = 584;
}
);
unicode = 0033;
},
{
glyphname = four;
lastChange = "2014-11-17 07:04:19 +0000";
layers = (
{
layerId = UUID0;
name = Bold;
paths = (
{
closed = 1;
nodes = (
"317 232 OFFCURVE",
"470 296 OFFCURVE",
"470 367 CURVE SMOOTH",
"470 411 OFFCURVE",
"442 416 OFFCURVE",
"397 416 CURVE SMOOTH",
"352 416 OFFCURVE",
"276 357 OFFCURVE",
"207 357 CURVE SMOOTH",
"189 357 OFFCURVE",
"185 359 OFFCURVE",
"185 373 CURVE SMOOTH",
"185 419 OFFCURVE",
"372 643 OFFCURVE",
"372 682 CURVE SMOOTH",
"372 714 OFFCURVE",
"324 756 OFFCURVE",
"293 756 CURVE SMOOTH",
"237 756 OFFCURVE",
"47 470 OFFCURVE",
"47 372 CURVE SMOOTH",
"47 286 OFFCURVE",
"104 232 OFFCURVE",
"186 232 CURVE SMOOTH"
);
},
{
closed = 1;
nodes = (
"528 514 OFFCURVE",
"450 579 OFFCURVE",
"418 579 CURVE SMOOTH",
"402 579 OFFCURVE",
"387 570 OFFCURVE",
"387 549 CURVE SMOOTH",
"387 334 OFFCURVE",
"284 148 OFFCURVE",
"284 65 CURVE SMOOTH",
"284 30 OFFCURVE",
"326 -18 OFFCURVE",
"350 -18 CURVE SMOOTH",
"403 -18 OFFCURVE",
"528 421 OFFCURVE",
"528 481 CURVE SMOOTH"
);
}
);
width = 545;
},
{
layerId = "6FA4A80C-3D50-4FAF-A835-1EC9F66A3889";
name = Light;
paths = (
{
closed = 1;
nodes = (
"317 206 OFFCURVE",
"466 272 OFFCURVE",
"466 302 CURVE SMOOTH",
"466 308 OFFCURVE",
"461 319 OFFCURVE",
"453 319 CURVE SMOOTH",
"437 319 OFFCURVE",
"306 260 OFFCURVE",
"223 260 CURVE SMOOTH",
"177 260 OFFCURVE",
"148 280 OFFCURVE",
"148 336 CURVE SMOOTH",
"148 471 OFFCURVE",
"373 652 OFFCURVE",
"373 685 CURVE SMOOTH",
"373 702 OFFCURVE",
"360 707 OFFCURVE",
"342 707 CURVE SMOOTH",
"305 707 OFFCURVE",
"86 469 OFFCURVE",
"86 331 CURVE SMOOTH",
"86 248 OFFCURVE",
"151 206 OFFCURVE",
"221 206 CURVE SMOOTH"
);
},
{
closed = 1;
nodes = (
"498 483 OFFCURVE",
"466 507 OFFCURVE",
"454 507 CURVE SMOOTH",
"443 507 OFFCURVE",
"437 497 OFFCURVE",
"437 474 CURVE SMOOTH",
"437 217 OFFCURVE",
"351 67 OFFCURVE",
"351 18 CURVE SMOOTH",
"351 0 OFFCURVE",
"356 -8 OFFCURVE",
"365 -8 CURVE SMOOTH",
"408 -8 OFFCURVE",
"498 314 OFFCURVE",
"498 457 CURVE SMOOTH"
);
}
);
width = 554;
}
);
unicode = 0034;
},
{
glyphname = five;
lastChange = "2014-11-17 07:04:19 +0000";
layers = (
{
layerId = UUID0;
name = Bold;
paths = (
{
closed = 1;
nodes = (
"576 725 OFFCURVE",
"498 739 OFFCURVE",
"393 739 CURVE SMOOTH",
"304 739 OFFCURVE",
"283 738 OFFCURVE",
"249 732 CURVE SMOOTH",
"193 722 OFFCURVE",
"113 569 OFFCURVE",
"113 499 CURVE SMOOTH",
"113 352 OFFCURVE",
"302 323 OFFCURVE",
"302 248 CURVE SMOOTH",
"302 196 OFFCURVE",
"209 134 OFFCURVE",
"146 134 CURVE SMOOTH",
"78 134 OFFCURVE",
"46 208 OFFCURVE",
"11 208 CURVE SMOOTH",
"-3 208 OFFCURVE",
"-13 186 OFFCURVE",
"-13 161 CURVE SMOOTH",
"-13 83 OFFCURVE",
"81 9 OFFCURVE",
"187 9 CURVE SMOOTH",
"307 9 OFFCURVE",
"459 126 OFFCURVE",
"459 251 CURVE SMOOTH",
"459 362 OFFCURVE",
"269 429 OFFCURVE",
"269 500 CURVE SMOOTH",
"269 526 OFFCURVE",
"295 595 OFFCURVE",
"323 602 CURVE SMOOTH",
"434 628 OFFCURVE",
"576 651 OFFCURVE",
"576 695 CURVE SMOOTH"
);
}
);
width = 506;
},
{
layerId = "6FA4A80C-3D50-4FAF-A835-1EC9F66A3889";
name = Light;
paths = (
{
closed = 1;
nodes = (
"598 701 OFFCURVE",
"545 703 OFFCURVE",
"471 703 CURVE SMOOTH",
"401 703 OFFCURVE",
"320 691 OFFCURVE",
"291 680 CURVE",
"260 671 OFFCURVE",
"176 553 OFFCURVE",
"176 496 CURVE SMOOTH",
"176 376 OFFCURVE",
"394 336 OFFCURVE",
"394 234 CURVE SMOOTH",
"394 163 OFFCURVE",
"284 79 OFFCURVE",
"213 79 CURVE SMOOTH",
"145 79 OFFCURVE",
"72 178 OFFCURVE",
"63 178 CURVE SMOOTH",
"55 178 OFFCURVE",
"51 169 OFFCURVE",
"51 159 CURVE SMOOTH",
"51 113 OFFCURVE",
"127 26 OFFCURVE",
"220 26 CURVE SMOOTH",
"333 26 OFFCURVE",
"455 140 OFFCURVE",
"455 246 CURVE SMOOTH",
"455 346 OFFCURVE",
"240 417 OFFCURVE",
"240 492 CURVE SMOOTH",
"240 521 OFFCURVE",
"293 623 OFFCURVE",
"323 629 CURVE SMOOTH",
"373 640 OFFCURVE",
"598 659 OFFCURVE",
"598 680 CURVE SMOOTH"
);
}
);
width = 553;
}
);
unicode = 0035;
},
{
glyphname = six;
lastChange = "2014-11-17 07:04:19 +0000";
layers = (
{
layerId = UUID0;
name = Bold;
paths = (
{
closed = 1;
nodes = (
"13 90 OFFCURVE",
"75 17 OFFCURVE",
"171 17 CURVE SMOOTH",
"334 17 OFFCURVE",
"512 171 OFFCURVE",
"512 291 CURVE SMOOTH",
"512 368 OFFCURVE",
"393 435 OFFCURVE",
"273 446 CURVE",
"202 360 LINE",
"296 348 OFFCURVE",
"351 314 OFFCURVE",
"351 278 CURVE SMOOTH",
"351 218 OFFCURVE",
"274 146 OFFCURVE",
"188 146 CURVE SMOOTH",
"166 146 OFFCURVE",
"154 162 OFFCURVE",
"154 189 CURVE SMOOTH",
"154 343 OFFCURVE",
"474 640 OFFCURVE",
"474 689 CURVE SMOOTH",
"474 717 OFFCURVE",
"419 742 OFFCURVE",
"378 742 CURVE SMOOTH",
"303 742 OFFCURVE",
"13 361 OFFCURVE",
"13 178 CURVE SMOOTH"
);
}
);
width = 542;
},
{
layerId = "6FA4A80C-3D50-4FAF-A835-1EC9F66A3889";
name = Light;
paths = (
{
closed = 1;
nodes = (
"66 79 OFFCURVE",
"124 21 OFFCURVE",
"202 21 CURVE SMOOTH",
"331 21 OFFCURVE",
"479 129 OFFCURVE",
"479 238 CURVE SMOOTH",
"479 305 OFFCURVE",
"375 393 OFFCURVE",
"192 405 CURVE",
"168 366 LINE",
"321 353 OFFCURVE",
"415 292 OFFCURVE",
"415 233 CURVE SMOOTH",
"415 153 OFFCURVE",
"293 76 OFFCURVE",
"207 76 CURVE SMOOTH",
"162 76 OFFCURVE",
"126 101 OFFCURVE",
"126 158 CURVE SMOOTH",
"126 431 OFFCURVE",
"450 660 OFFCURVE",
"450 686 CURVE SMOOTH",
"450 696 OFFCURVE",
"427 708 OFFCURVE",
"409 708 CURVE SMOOTH",
"367 708 OFFCURVE",
"66 415 OFFCURVE",
"66 168 CURVE SMOOTH"
);
}
);
width = 564;
}
);
unicode = 0036;
},
{
glyphname = seven;
lastChange = "2014-11-17 07:04:19 +0000";
layers = (
{
layerId = UUID0;
name = Bold;
paths = (
{
closed = 1;
nodes = (
"425 736 OFFCURVE",
"370 741 OFFCURVE",
"300 741 CURVE SMOOTH",
"191 741 OFFCURVE",
"85 731 OFFCURVE",
"85 703 CURVE SMOOTH",
"85 676 OFFCURVE",
"139 594 OFFCURVE",
"175 594 CURVE SMOOTH",
"207 594 OFFCURVE",
"301 608 OFFCURVE",
"334 608 CURVE SMOOTH",
"354 608 OFFCURVE",
"369 607 OFFCURVE",
"369 598 CURVE SMOOTH",
"369 546 OFFCURVE",
"92 185 OFFCURVE",
"92 86 CURVE SMOOTH",
"92 45 OFFCURVE",
"130 0 OFFCURVE",
"159 0 CURVE SMOOTH",
"200 0 OFFCURVE",
"274 171 OFFCURVE",
"377 350 CURVE SMOOTH",
"432 445 OFFCURVE",
"500 551 OFFCURVE",
"500 587 CURVE SMOOTH",
"500 637 OFFCURVE",
"464 701 OFFCURVE",
"436 726 CURVE SMOOTH"
);
}
);
width = 472;
},
{
layerId = "6FA4A80C-3D50-4FAF-A835-1EC9F66A3889";
name = Light;
paths = (
{
closed = 1;
nodes = (
"431 704 OFFCURVE",
"370 707 OFFCURVE",
"337 707 CURVE SMOOTH",
"278 707 OFFCURVE",
"106 682 OFFCURVE",
"106 675 CURVE SMOOTH",
"106 655 OFFCURVE",
"138 621 OFFCURVE",
"157 621 CURVE SMOOTH",
"208 621 OFFCURVE",
"310 648 OFFCURVE",
"372 648 CURVE SMOOTH",
"401 648 OFFCURVE",
"415 636 OFFCURVE",
"415 625 CURVE SMOOTH",
"415 572 OFFCURVE",
"107 123 OFFCURVE",
"107 59 CURVE SMOOTH",
"107 45 OFFCURVE",
"118 20 OFFCURVE",
"128 20 CURVE SMOOTH",
"149 20 OFFCURVE",
"221 173 OFFCURVE",
"313 327 CURVE SMOOTH",
"370 423 OFFCURVE",
"478 580 OFFCURVE",
"478 623 CURVE SMOOTH",
"478 647 OFFCURVE",
"467 681 OFFCURVE",
"448 693 CURVE SMOOTH"
);
}
);
width = 455;
}
);
unicode = 0037;
},
{
glyphname = eight;
lastChange = "2014-11-17 07:04:19 +0000";
layers = (
{
layerId = UUID0;
name = Bold;
paths = (
{
closed = 1;
nodes = (
"209 219 OFFCURVE",
"593 427 OFFCURVE",
"593 597 CURVE SMOOTH",
"593 700 OFFCURVE",
"522 745 OFFCURVE",
"423 745 CURVE SMOOTH",
"275 745 OFFCURVE",
"179 682 OFFCURVE",
"179 619 CURVE SMOOTH",
"179 591 OFFCURVE",
"226 561 OFFCURVE",
"251 561 CURVE SMOOTH",
"294 561 OFFCURVE",
"341 621 OFFCURVE",
"422 621 CURVE SMOOTH",
"447 621 OFFCURVE",
"456 607 OFFCURVE",
"456 593 CURVE SMOOTH",
"456 492 OFFCURVE",
"70 319 OFFCURVE",
"70 142 CURVE SMOOTH",
"70 81 OFFCURVE",
"174 15 OFFCURVE",
"226 15 CURVE SMOOTH",
"343 15 OFFCURVE",
"506 100 OFFCURVE",
"506 197 CURVE SMOOTH",
"506 348 OFFCURVE",
"297 450 OFFCURVE",
"187 562 CURVE SMOOTH",
"160 589 OFFCURVE",
"137 627 OFFCURVE",
"113 627 CURVE SMOOTH",
"90 627 OFFCURVE",
"78 567 OFFCURVE",
"78 533 CURVE SMOOTH",
"78 431 OFFCURVE",
"366 299 OFFCURVE",
"366 221 CURVE SMOOTH",
"366 170 OFFCURVE",
"281 134 OFFCURVE",
"239 134 CURVE SMOOTH",
"234 134 OFFCURVE",
"209 151 OFFCURVE",
"209 161 CURVE SMOOTH"
);
}
);
width = 590;
},
{
layerId = "6FA4A80C-3D50-4FAF-A835-1EC9F66A3889";
name = Light;
paths = (
{
closed = 1;
nodes = (
"165 257 OFFCURVE",
"607 468 OFFCURVE",
"607 614 CURVE SMOOTH",
"607 676 OFFCURVE",
"556 720 OFFCURVE",
"470 720 CURVE SMOOTH",
"368 720 OFFCURVE",
"230 683 OFFCURVE",
"230 656 CURVE SMOOTH",
"230 641 OFFCURVE",
"263 619 OFFCURVE",
"281 619 CURVE SMOOTH",
"314 619 OFFCURVE",
"396 662 OFFCURVE",
"480 662 CURVE SMOOTH",
"532 662 OFFCURVE",
"545 639 OFFCURVE",
"545 619 CURVE SMOOTH",
"545 514 OFFCURVE",
"103 276 OFFCURVE",
"103 139 CURVE SMOOTH",
"103 75 OFFCURVE",
"178 25 OFFCURVE",
"236 25 CURVE SMOOTH",
"342 25 OFFCURVE",
"494 122 OFFCURVE",
"494 227 CURVE SMOOTH",
"494 324 OFFCURVE",
"274 461 OFFCURVE",
"141 579 CURVE SMOOTH",
"126 592 OFFCURVE",
"117 601 OFFCURVE",
"112 601 CURVE SMOOTH",
"104 601 OFFCURVE",
"100 586 OFFCURVE",
"100 569 CURVE SMOOTH",
"100 496 OFFCURVE",
"430 312 OFFCURVE",
"430 235 CURVE SMOOTH",
"430 150 OFFCURVE",
"314 78 OFFCURVE",
"235 78 CURVE SMOOTH",
"193 78 OFFCURVE",
"165 108 OFFCURVE",
"165 138 CURVE SMOOTH"
);
}
);
width = 608;
}
);
unicode = 0038;
},
{
glyphname = nine;
lastChange = "2014-11-17 07:04:19 +0000";
layers = (
{
layerId = UUID0;
name = Bold;
paths = (
{
closed = 1;
nodes = (
"205 755 OFFCURVE",
"66 584 OFFCURVE",
"66 436 CURVE SMOOTH",
"66 379 OFFCURVE",
"157 279 OFFCURVE",
"221 279 CURVE SMOOTH",
"325 279 OFFCURVE",
"499 406 OFFCURVE",
"499 495 CURVE SMOOTH",
"499 517 OFFCURVE",
"461 544 OFFCURVE",
"431 544 CURVE SMOOTH",
"377 544 OFFCURVE",
"313 394 OFFCURVE",
"230 394 CURVE SMOOTH",
"208 394 OFFCURVE",
"187 415 OFFCURVE",
"187 435 CURVE SMOOTH",
"187 505 OFFCURVE",
"282 628 OFFCURVE",
"311 628 CURVE SMOOTH",
"321 628 OFFCURVE",
"333 601 OFFCURVE",
"333 577 CURVE SMOOTH",
"333 548 OFFCURVE",
"329 530 OFFCURVE",
"329 509 CURVE SMOOTH",
"329 495 OFFCURVE",
"347 484 OFFCURVE",
"385 484 CURVE SMOOTH",
"437 484 OFFCURVE",
"450 540 OFFCURVE",
"450 602 CURVE SMOOTH",
"450 668 OFFCURVE",
"416 755 OFFCURVE",
"320 755 CURVE SMOOTH"
);
},
{
closed = 1;
nodes = (
"496 531 OFFCURVE",
"462 549 OFFCURVE",
"421 549 CURVE SMOOTH",
"358 548 OFFCURVE",
"273 255 OFFCURVE",
"273 111 CURVE SMOOTH",
"273 50 OFFCURVE",
"285 -3 OFFCURVE",
"318 -3 CURVE SMOOTH",
"358 -3 OFFCURVE",
"392 198 OFFCURVE",
"436 331 CURVE SMOOTH",
"455 389 OFFCURVE",
"496 472 OFFCURVE",
"496 499 CURVE SMOOTH"
);
}
);
width = 506;
},
{
layerId = "6FA4A80C-3D50-4FAF-A835-1EC9F66A3889";
name = Light;
paths = (
{
closed = 1;
nodes = (
"209 710 OFFCURVE",
"71 524 OFFCURVE",
"71 411 CURVE SMOOTH",
"71 340 OFFCURVE",
"122 287 OFFCURVE",
"192 287 CURVE SMOOTH",
"305 287 OFFCURVE",
"442 462 OFFCURVE",
"442 534 CURVE SMOOTH",
"442 547 OFFCURVE",
"438 551 OFFCURVE",
"424 551 CURVE SMOOTH",
"393 551 OFFCURVE",
"323 342 OFFCURVE",
"195 342 CURVE SMOOTH",
"159 342 OFFCURVE",
"127 363 OFFCURVE",
"127 404 CURVE SMOOTH",
"127 482 OFFCURVE",
"237 650 OFFCURVE",
"336 650 CURVE SMOOTH",
"370 650 OFFCURVE",
"386 629 OFFCURVE",
"386 598 CURVE SMOOTH",
"386 575 OFFCURVE",
"374 551 OFFCURVE",
"374 532 CURVE SMOOTH",
"374 522 OFFCURVE",
"382 516 OFFCURVE",
"395 516 CURVE SMOOTH",
"421 516 OFFCURVE",
"440 562 OFFCURVE",
"440 604 CURVE SMOOTH",
"440 659 OFFCURVE",
"401 710 OFFCURVE",
"337 710 CURVE SMOOTH"
);
},
{
closed = 1;
nodes = (
"456 533 OFFCURVE",
"451 553 OFFCURVE",
"430 553 CURVE SMOOTH",
"413 553 OFFCURVE",
"285 174 OFFCURVE",
"285 63 CURVE SMOOTH",
"285 31 OFFCURVE",
"294 9 OFFCURVE",
"313 9 CURVE SMOOTH",
"337 9 OFFCURVE",
"338 153 OFFCURVE",
"393 321 CURVE SMOOTH",
"427 425 OFFCURVE",
"456 479 OFFCURVE",
"456 514 CURVE SMOOTH"
);
}
);
width = 478;
}
);
unicode = 0039;
},
{
glyphname = colon;
lastChange = "2014-11-17 07:04:19 +0000";
layers = (
{
layerId = UUID0;
name = Bold;
paths = (
{
closed = 1;
nodes = (
"47 99 OFFCURVE",
"114 -10 OFFCURVE",
"150 -10 CURVE SMOOTH",
"179 -10 OFFCURVE",
"197 17 OFFCURVE",
"197 47 CURVE SMOOTH",
"197 92 OFFCURVE",
"156 241 OFFCURVE",
"99 241 CURVE SMOOTH",
"76 241 OFFCURVE",
"47 181 OFFCURVE",
"47 143 CURVE SMOOTH"
);
},
{
closed = 1;
nodes = (
"92 395 OFFCURVE",
"159 286 OFFCURVE",
"195 286 CURVE SMOOTH",
"224 286 OFFCURVE",
"241 313 OFFCURVE",
"241 343 CURVE SMOOTH",
"241 388 OFFCURVE",
"201 537 OFFCURVE",
"144 537 CURVE SMOOTH",
"121 537 OFFCURVE",
"92 477 OFFCURVE",
"92 439 CURVE SMOOTH"
);
}
);
width = 246;
},
{
layerId = "6FA4A80C-3D50-4FAF-A835-1EC9F66A3889";
name = Light;
paths = (
{
closed = 1;
nodes = (
"35 48 OFFCURVE",
"83 -6 OFFCURVE",
"112 -6 CURVE SMOOTH",
"121 -6 OFFCURVE",
"130 3 OFFCURVE",
"130 9 CURVE SMOOTH",
"130 38 OFFCURVE",
"97 129 OFFCURVE",
"73 129 CURVE SMOOTH",
"55 129 OFFCURVE",
"35 98 OFFCURVE",
"35 76 CURVE SMOOTH"
);
},
{
closed = 1;
nodes = (
"128 418 OFFCURVE",
"176 363 OFFCURVE",
"205 363 CURVE SMOOTH",
"214 363 OFFCURVE",
"224 372 OFFCURVE",
"224 379 CURVE SMOOTH",
"224 407 OFFCURVE",
"191 499 OFFCURVE",
"166 499 CURVE SMOOTH",
"148 499 OFFCURVE",
"128 467 OFFCURVE",
"128 446 CURVE SMOOTH"
);
}
);
width = 246;
}
);
unicode = 003A;
},
{
glyphname = semicolon;
lastChange = "2014-11-17 07:04:19 +0000";
layers = (
{
components = (
{
name = comma;
transform = "{1, 0, 0, 1, 1, 7}";
}
);
layerId = UUID0;
name = Bold;
paths = (
{
closed = 1;
nodes = (
"120 395 OFFCURVE",
"186 286 OFFCURVE",
"223 286 CURVE SMOOTH",
"251 286 OFFCURVE",
"269 313 OFFCURVE",
"269 343 CURVE SMOOTH",
"269 388 OFFCURVE",
"229 537 OFFCURVE",
"171 537 CURVE SMOOTH",
"148 537 OFFCURVE",
"120 477 OFFCURVE",
"120 439 CURVE SMOOTH"
);
}
);
width = 306;
},
{
components = (
{
name = comma;
transform = "{1, 0, 0, 1, -5, -32}";
}
);
layerId = "6FA4A80C-3D50-4FAF-A835-1EC9F66A3889";
name = Light;
paths = (
{
closed = 1;
nodes = (
"131 418 OFFCURVE",
"179 363 OFFCURVE",
"208 363 CURVE SMOOTH",
"218 363 OFFCURVE",
"227 372 OFFCURVE",
"227 379 CURVE SMOOTH",
"227 407 OFFCURVE",
"194 499 OFFCURVE",
"169 499 CURVE SMOOTH",
"152 499 OFFCURVE",
"131 467 OFFCURVE",
"131 446 CURVE SMOOTH"
);
}
);
width = 306;
}
);
unicode = 003B;
},
{
glyphname = less;
lastChange = "2014-11-17 07:04:19 +0000";
layers = (
{
layerId = UUID0;
name = Bold;
paths = (
{
closed = 1;
nodes = (
"348 606 OFFCURVE",
"105 437 OFFCURVE",
"40 378 CURVE SMOOTH",
"23 363 OFFCURVE",
"10 303 OFFCURVE",
"10 280 CURVE SMOOTH",
"10 195 OFFCURVE",
"293 46 OFFCURVE",
"377 46 CURVE SMOOTH",
"404 46 OFFCURVE",
"426 55 OFFCURVE",
"426 77 CURVE SMOOTH",
"426 127 OFFCURVE",
"172 244 OFFCURVE",
"172 297 CURVE SMOOTH",
"172 326 OFFCURVE",
"382 451 OFFCURVE",
"475 494 CURVE SMOOTH",
"493 503 OFFCURVE",
"501 511 OFFCURVE",
"501 526 CURVE SMOOTH",
"501 547 OFFCURVE",
"472 606 OFFCURVE",
"435 606 CURVE SMOOTH"
);
}
);
width = 475;
},
{
layerId = "6FA4A80C-3D50-4FAF-A835-1EC9F66A3889";
name = Light;
paths = (
{
closed = 1;
nodes = (
"458 508 OFFCURVE",
"216 409 OFFCURVE",
"155 361 CURVE SMOOTH",
"140 349 OFFCURVE",
"119 318 OFFCURVE",
"119 299 CURVE SMOOTH",
"119 251 OFFCURVE",
"410 125 OFFCURVE",
"473 125 CURVE SMOOTH",
"494 125 OFFCURVE",
"504 129 OFFCURVE",
"504 140 CURVE SMOOTH",
"504 169 OFFCURVE",
"197 274 OFFCURVE",
"197 307 CURVE SMOOTH",
"197 342 OFFCURVE",
"425 424 OFFCURVE",
"522 456 CURVE SMOOTH",
"541 462 OFFCURVE",
"560 465 OFFCURVE",
"560 480 CURVE SMOOTH",
"560 489 OFFCURVE",
"550 508 OFFCURVE",
"521 508 CURVE SMOOTH"
);
}
);
width = 574;
}
);
unicode = 003C;
},
{
glyphname = equal;
lastChange = "2014-11-17 07:04:19 +0000";
layers = (
{
layerId = UUID0;
name = Bold;
paths = (
{
closed = 1;
nodes = (
"621 483 OFFCURVE",
"531 488 OFFCURVE",
"416 488 CURVE SMOOTH",
"274 488 OFFCURVE",
"104 484 OFFCURVE",
"104 447 CURVE SMOOTH",
"104 422 OFFCURVE",
"136 362 OFFCURVE",
"162 362 CURVE SMOOTH",
"217 362 OFFCURVE",
"311 369 OFFCURVE",
"394 377 CURVE SMOOTH",
"479 385 OFFCURVE",
"621 404 OFFCURVE",
"621 444 CURVE SMOOTH"
);
},
{
closed = 1;
nodes = (
"589 307 OFFCURVE",
"547 313 OFFCURVE",
"482 313 CURVE SMOOTH",
"424 313 OFFCURVE",
"62 280 OFFCURVE",
"62 255 CURVE SMOOTH",
"62 230 OFFCURVE",
"94 170 OFFCURVE",
"120 170 CURVE SMOOTH",
"190 170 OFFCURVE",
"276 177 OFFCURVE",
"340 185 CURVE SMOOTH",
"486 205 OFFCURVE",
"589 241 OFFCURVE",
"589 283 CURVE SMOOTH"
);
}
);
width = 672;
},
{
layerId = "6FA4A80C-3D50-4FAF-A835-1EC9F66A3889";
name = Light;
paths = (
{
closed = 1;
nodes = (
"584 481 OFFCURVE",
"560 489 OFFCURVE",
"524 489 CURVE SMOOTH",
"480 489 OFFCURVE",
"82 459 OFFCURVE",
"81 430 CURVE SMOOTH",
"81 418 OFFCURVE",
"94 394 OFFCURVE",
"109 394 CURVE SMOOTH",
"134 394 OFFCURVE",
"287 410 OFFCURVE",
"415 426 CURVE SMOOTH",
"559 444 OFFCURVE",
"584 450 OFFCURVE",
"584 466 CURVE SMOOTH"
);
},
{
closed = 1;
nodes = (
"559 285 OFFCURVE",
"537 294 OFFCURVE",
"503 294 CURVE SMOOTH",
"460 294 OFFCURVE",
"55 259 OFFCURVE",
"55 232 CURVE SMOOTH",
"55 221 OFFCURVE",
"68 197 OFFCURVE",
"82 196 CURVE SMOOTH",
"110 196 OFFCURVE",
"246 209 OFFCURVE",
"335 221 CURVE SMOOTH",
"463 238 OFFCURVE",
"559 252 OFFCURVE",
"559 272 CURVE SMOOTH"
);
}
);
width = 609;
}
);
unicode = 003D;
},
{
glyphname = greater;
lastChange = "2014-11-17 07:04:19 +0000";
layers = (
{
layerId = UUID0;
name = Bold;
paths = (
{
closed = 1;
nodes = (
"134 607 OFFCURVE",
"129 597 OFFCURVE",
"129 581 CURVE SMOOTH",
"129 556 OFFCURVE",
"187 486 OFFCURVE",
"217 476 CURVE SMOOTH",
"282 455 OFFCURVE",
"422 367 OFFCURVE",
"422 347 CURVE SMOOTH",
"422 308 OFFCURVE",
"93 157 OFFCURVE",
"93 82 CURVE SMOOTH",
"93 59 OFFCURVE",
"110 47 OFFCURVE",
"139 47 CURVE SMOOTH",
"187 47 OFFCURVE",
"233 66 OFFCURVE",
"398 171 CURVE SMOOTH",
"512 243 OFFCURVE",
"568 288 OFFCURVE",
"568 341 CURVE SMOOTH",
"568 357 OFFCURVE",
"554 382 OFFCURVE",
"526 410 CURVE SMOOTH",
"445 491 OFFCURVE",
"284 607 OFFCURVE",
"152 607 CURVE SMOOTH"
);
}
);
width = 616;
},
{
layerId = "6FA4A80C-3D50-4FAF-A835-1EC9F66A3889";
name = Light;
paths = (
{
closed = 1;
nodes = (
"144 508 OFFCURVE",
"134 506 OFFCURVE",
"134 498 CURVE SMOOTH",
"134 488 OFFCURVE",
"156 456 OFFCURVE",
"182 449 CURVE SMOOTH",
"241 432 OFFCURVE",
"400 356 OFFCURVE",
"400 321 CURVE SMOOTH",
"400 301 OFFCURVE",
"82 168 OFFCURVE",
"82 134 CURVE SMOOTH",
"82 127 OFFCURVE",
"87 122 OFFCURVE",
"103 122 CURVE SMOOTH",
"129 122 OFFCURVE",
"181 136 OFFCURVE",
"294 194 CURVE SMOOTH",
"380 237 OFFCURVE",
"473 276 OFFCURVE",
"473 310 CURVE SMOOTH",
"473 324 OFFCURVE",
"460 350 OFFCURVE",
"446 364 CURVE SMOOTH",
"382 425 OFFCURVE",
"237 507 OFFCURVE",
"156 508 CURVE SMOOTH"
);
}
);
width = 531;
}
);
unicode = 003E;
},
{
glyphname = question;
lastChange = "2014-11-17 07:04:19 +0000";
layers = (
{
layerId = UUID0;
name = Bold;
paths = (
{
closed = 1;
nodes = (
"573 744 OFFCURVE",
"503 802 OFFCURVE",
"406 802 CURVE SMOOTH",
"321 802 OFFCURVE",
"230 730 OFFCURVE",
"230 650 CURVE SMOOTH",
"230 624 OFFCURVE",
"284 571 OFFCURVE",
"301 571 CURVE SMOOTH",
"312 571 OFFCURVE",
"326 580 OFFCURVE",
"334 583 CURVE SMOOTH",
"346 589 OFFCURVE",
"349 602 OFFCURVE",
"349 620 CURVE SMOOTH",
"349 643 OFFCURVE",
"370 663 OFFCURVE",
"401 663 CURVE SMOOTH",
"422 663 OFFCURVE",
"442 651 OFFCURVE",
"442 628 CURVE SMOOTH",
"442 538 OFFCURVE",
"266 472 OFFCURVE",
"266 341 CURVE SMOOTH",
"266 289 OFFCURVE",
"276 246 OFFCURVE",
"302 246 CURVE SMOOTH",
"336 246 OFFCURVE",
"354 310 OFFCURVE",
"375 353 CURVE SMOOTH",
"419 444 OFFCURVE",
"573 516 OFFCURVE",
"573 645 CURVE SMOOTH"
);
},
{
closed = 1;
nodes = (
"177 66 OFFCURVE",
"241 1 OFFCURVE",
"281 1 CURVE SMOOTH",
"303 1 OFFCURVE",
"330 29 OFFCURVE",
"330 46 CURVE SMOOTH",
"330 78 OFFCURVE",
"279 181 OFFCURVE",
"247 181 CURVE SMOOTH",
"214 181 OFFCURVE",
"177 135 OFFCURVE",
"177 103 CURVE SMOOTH"
);
}
);
width = 626;
},
{
layerId = "6FA4A80C-3D50-4FAF-A835-1EC9F66A3889";
name = Light;
paths = (
{
closed = 1;
nodes = (
"456 725 OFFCURVE",
"384 781 OFFCURVE",
"302 781 CURVE SMOOTH",
"221 781 OFFCURVE",
"150 716 OFFCURVE",
"150 646 CURVE SMOOTH",
"150 626 OFFCURVE",
"174 592 OFFCURVE",
"186 592 CURVE SMOOTH",
"198 592 OFFCURVE",
"217 598 OFFCURVE",
"217 608 CURVE SMOOTH",
"217 621 OFFCURVE",
"209 622 OFFCURVE",
"209 642 CURVE SMOOTH",
"209 689 OFFCURVE",
"255 722 OFFCURVE",
"302 722 CURVE SMOOTH",
"349 722 OFFCURVE",
"393 687 OFFCURVE",
"393 634 CURVE SMOOTH",
"393 516 OFFCURVE",
"178 402 OFFCURVE",
"178 282 CURVE SMOOTH",
"178 258 OFFCURVE",
"185 235 OFFCURVE",
"198 235 CURVE SMOOTH",
"210 235 OFFCURVE",
"217 249 OFFCURVE",
"239 304 CURVE SMOOTH",
"281 409 OFFCURVE",
"456 518 OFFCURVE",
"456 631 CURVE SMOOTH"
);
},
{
closed = 1;
nodes = (
"113 44 OFFCURVE",
"161 -5 OFFCURVE",
"190 -5 CURVE SMOOTH",
"199 -5 OFFCURVE",
"209 4 OFFCURVE",
"209 9 CURVE SMOOTH",
"209 36 OFFCURVE",
"175 122 OFFCURVE",
"153 122 CURVE SMOOTH",
"134 122 OFFCURVE",
"113 92 OFFCURVE",
"113 72 CURVE SMOOTH"
);
}
);
width = 469;
}
);
unicode = 003F;
},
{
glyphname = at;
lastChange = "2014-11-17 07:04:19 +0000";
layers = (
{
layerId = UUID0;
name = Bold;
paths = (
{
closed = 1;
nodes = (
"294 767 OFFCURVE",
"47 425 OFFCURVE",
"47 156 CURVE SMOOTH",
"47 -26 OFFCURVE",
"214 -165 OFFCURVE",
"386 -165 CURVE SMOOTH",
"486 -165 OFFCURVE",
"657 -99 OFFCURVE",
"657 -21 CURVE SMOOTH",
"657 -2 OFFCURVE",
"649 5 OFFCURVE",
"634 5 CURVE SMOOTH",
"596 5 OFFCURVE",
"512 -37 OFFCURVE",
"379 -37 CURVE SMOOTH",
"243 -37 OFFCURVE",
"197 35 OFFCURVE",
"197 158 CURVE SMOOTH",
"197 374 OFFCURVE",
"406 634 OFFCURVE",
"664 634 CURVE SMOOTH",
"781 634 OFFCURVE",
"867 565 OFFCURVE",
"867 428 CURVE SMOOTH",
"867 292 OFFCURVE",
"750 209 OFFCURVE",
"740 209 CURVE SMOOTH",
"738 209 OFFCURVE",
"737 210 OFFCURVE",
"737 212 CURVE SMOOTH",
"737 221 OFFCURVE",
"752 250 OFFCURVE",
"752 287 CURVE SMOOTH",
"752 327 OFFCURVE",
"676 374 OFFCURVE",
"655 374 CURVE SMOOTH",
"638 374 OFFCURVE",
"629 372 OFFCURVE",
"626 360 CURVE SMOOTH",
"605 255 OFFCURVE",
"462 182 OFFCURVE",
"439 182 CURVE SMOOTH",
"428 182 OFFCURVE",
"427 192 OFFCURVE",
"427 199 CURVE SMOOTH",
"427 236 OFFCURVE",
"529 406 OFFCURVE",
"603 406 CURVE SMOOTH",
"614 406 OFFCURVE",
"633 386 OFFCURVE",
"643 337 CURVE SMOOTH",
"651 301 OFFCURVE",
"656 281 OFFCURVE",
"675 281 CURVE SMOOTH",
"697 281 OFFCURVE",
"745 340 OFFCURVE",
"745 386 CURVE SMOOTH",
"745 463 OFFCURVE",
"647 532 OFFCURVE",
"596 532 CURVE SMOOTH",
"445 532 OFFCURVE",
"305 293 OFFCURVE",
"305 199 CURVE SMOOTH",
"305 143 OFFCURVE",
"392 62 OFFCURVE",
"447 62 CURVE SMOOTH",
"527 62 OFFCURVE",
"655 205 OFFCURVE",
"709 280 CURVE",
"626 322 LINE",
"602 283 OFFCURVE",
"595 240 OFFCURVE",
"595 195 CURVE SMOOTH",
"595 147 OFFCURVE",
"618 73 OFFCURVE",
"693 73 CURVE SMOOTH",
"800 73 OFFCURVE",
"1004 228 OFFCURVE",
"1004 436 CURVE SMOOTH",
"1004 641 OFFCURVE",
"853 767 OFFCURVE",
"662 767 CURVE SMOOTH"
);
}
);
width = 1078;
},
{
layerId = "6FA4A80C-3D50-4FAF-A835-1EC9F66A3889";
name = Light;
paths = (
{
closed = 1;
nodes = (
"252 710 OFFCURVE",
"41 362 OFFCURVE",
"41 112 CURVE SMOOTH",
"41 -35 OFFCURVE",
"144 -165 OFFCURVE",
"319 -165 CURVE SMOOTH",
"429 -165 OFFCURVE",
"590 -116 OFFCURVE",
"590 -70 CURVE SMOOTH",
"590 -65 OFFCURVE",
"587 -62 OFFCURVE",
"582 -62 CURVE SMOOTH",
"557 -62 OFFCURVE",
"483 -114 OFFCURVE",
"320 -114 CURVE SMOOTH",
"190 -114 OFFCURVE",
"100 -19 OFFCURVE",
"100 114 CURVE SMOOTH",
"100 346 OFFCURVE",
"300 658 OFFCURVE",
"579 658 CURVE SMOOTH",
"749 658 OFFCURVE",
"804 531 OFFCURVE",
"804 395 CURVE SMOOTH",
"804 248 OFFCURVE",
"688 117 OFFCURVE",
"621 117 CURVE SMOOTH",
"591 117 OFFCURVE",
"575 147 OFFCURVE",
"575 172 CURVE SMOOTH",
"575 228 OFFCURVE",
"618 290 OFFCURVE",
"618 311 CURVE SMOOTH",
"618 330 OFFCURVE",
"604 345 OFFCURVE",
"589 345 CURVE SMOOTH",
"576 345 OFFCURVE",
"569 337 OFFCURVE",
"567 327 CURVE SMOOTH",
"534 193 OFFCURVE",
"446 91 OFFCURVE",
"376 91 CURVE SMOOTH",
"347 91 OFFCURVE",
"309 114 OFFCURVE",
"309 148 CURVE SMOOTH",
"309 250 OFFCURVE",
"455 468 OFFCURVE",
"535 468 CURVE SMOOTH",
"570 468 OFFCURVE",
"584 416 OFFCURVE",
"584 374 CURVE SMOOTH",
"584 339 OFFCURVE",
"586 330 OFFCURVE",
"597 330 CURVE SMOOTH",
"607 330 OFFCURVE",
"631 366 OFFCURVE",
"631 398 CURVE SMOOTH",
"631 436 OFFCURVE",
"598 517 OFFCURVE",
"530 517 CURVE SMOOTH",
"412 517 OFFCURVE",
"253 277 OFFCURVE",
"253 149 CURVE SMOOTH",
"253 95 OFFCURVE",
"320 42 OFFCURVE",
"381 42 CURVE SMOOTH",
"430 42 OFFCURVE",
"489 81 OFFCURVE",
"543 155 CURVE",
"539 180 LINE",
"534 174 OFFCURVE",
"529 166 OFFCURVE",
"529 153 CURVE SMOOTH",
"529 99 OFFCURVE",
"569 68 OFFCURVE",
"608 68 CURVE SMOOTH",
"730 68 OFFCURVE",
"864 235 OFFCURVE",
"864 401 CURVE SMOOTH",
"864 569 OFFCURVE",
"767 710 OFFCURVE",
"577 710 CURVE SMOOTH"
);
}
);
width = 904;
}
);
unicode = 0040;
},
{
glyphname = A;
lastChange = "2014-11-17 07:04:19 +0000";
layers = (
{
anchors = (
{
name = ogonek;
position = "{398, 8}";
},
{
name = top;
position = "{333, 743}";
}
);
layerId = UUID0;
name = Bold;
paths = (
{
closed = 1;
nodes = (
"359 744 OFFCURVE",
"259 707 OFFCURVE",
"245 662 CURVE SMOOTH",
"209 550 OFFCURVE",
"170 454 OFFCURVE",
"147 384 CURVE SMOOTH",
"107 267 OFFCURVE",
"35 135 OFFCURVE",
"35 100 CURVE SMOOTH",
"35 55 OFFCURVE",
"102 14 OFFCURVE",
"125 14 CURVE SMOOTH",
"173 14 OFFCURVE",
"342 570 OFFCURVE",
"368 651 CURVE",
"337 656 LINE",
"351 560 OFFCURVE",
"375 241 OFFCURVE",
"391 136 CURVE SMOOTH",
"407 33 OFFCURVE",
"424 14 OFFCURVE",
"451 14 CURVE SMOOTH",
"484 14 OFFCURVE",
"499 48 OFFCURVE",
"499 177 CURVE SMOOTH",
"499 505 OFFCURVE",
"452 744 OFFCURVE",
"391 744 CURVE SMOOTH"
);
},
{
closed = 1;
nodes = (
"584 381 OFFCURVE",
"560 388 OFFCURVE",
"509 388 CURVE SMOOTH",
"300 388 OFFCURVE",
"32 338 OFFCURVE",
"32 277 CURVE SMOOTH",
"32 243 OFFCURVE",
"68 196 OFFCURVE",
"101 196 CURVE SMOOTH",
"132 196 OFFCURVE",
"191 220 OFFCURVE",
"271 242 CURVE SMOOTH",
"373 270 OFFCURVE",
"584 303 OFFCURVE",
"584 353 CURVE SMOOTH"
);
}
);
width = 630;
},
{
anchors = (
{
name = ogonek;
position = "{420, 0}";
},
{
name = top;
position = "{365, 683}";
}
);
layerId = "6FA4A80C-3D50-4FAF-A835-1EC9F66A3889";
name = Light;
paths = (
{
closed = 1;
nodes = (
"332 722 OFFCURVE",
"320 699 OFFCURVE",
"302 662 CURVE SMOOTH",
"282 622 OFFCURVE",
"228 500 OFFCURVE",
"178 380 CURVE SMOOTH",
"116 230 OFFCURVE",
"47 73 OFFCURVE",
"47 65 CURVE SMOOTH",
"47 39 OFFCURVE",
"63 17 OFFCURVE",
"79 17 CURVE SMOOTH",
"102 17 OFFCURVE",
"194 299 OFFCURVE",
"359 655 CURVE",
"352 655 LINE",
"389 503 OFFCURVE",
"407 320 OFFCURVE",
"419 96 CURVE SMOOTH",
"422 43 OFFCURVE",
"431 17 OFFCURVE",
"452 17 CURVE SMOOTH",
"469 17 OFFCURVE",
"476 60 OFFCURVE",
"476 123 CURVE SMOOTH",
"476 244 OFFCURVE",
"435 722 OFFCURVE",
"367 722 CURVE SMOOTH"
);
},
{
closed = 1;
nodes = (
"553 385 OFFCURVE",
"540 390 OFFCURVE",
"524 390 CURVE SMOOTH",
"460 390 OFFCURVE",
"48 291 OFFCURVE",
"48 257 CURVE SMOOTH",
"48 236 OFFCURVE",
"68 232 OFFCURVE",
"88 232 CURVE SMOOTH",
"108 232 OFFCURVE",
"158 248 OFFCURVE",
"298 286 CURVE SMOOTH",
"441 324 OFFCURVE",
"553 350 OFFCURVE",
"553 369 CURVE SMOOTH"
);
}
);
width = 596;
}
);
unicode = 0041;
},
{
glyphname = B;
lastChange = "2014-11-17 07:04:19 +0000";
layers = (
{
layerId = UUID0;
name = Bold;
paths = (
{
closed = 1;
nodes = (
"107 654 OFFCURVE",
"153 580 OFFCURVE",
"185 580 CURVE SMOOTH",
"225 580 OFFCURVE",
"331 609 OFFCURVE",
"388 609 CURVE SMOOTH",
"415 609 OFFCURVE",
"432 600 OFFCURVE",
"432 573 CURVE SMOOTH",
"432 513 OFFCURVE",
"351 478 OFFCURVE",
"299 447 CURVE SMOOTH",
"259 423 OFFCURVE",
"225 403 OFFCURVE",
"225 381 CURVE SMOOTH",
"225 356 OFFCURVE",
"263 313 OFFCURVE",
"286 313 CURVE SMOOTH",
"321 313 OFFCURVE",
"439 295 OFFCURVE",
"439 264 CURVE SMOOTH",
"439 207 OFFCURVE",
"200 134 OFFCURVE",
"133 134 CURVE SMOOTH",
"90 134 OFFCURVE",
"53 167 OFFCURVE",
"33 167 CURVE SMOOTH",
"16 167 OFFCURVE",
"5 152 OFFCURVE",
"5 130 CURVE SMOOTH",
"5 92 OFFCURVE",
"92 7 OFFCURVE",
"145 7 CURVE SMOOTH",
"321 7 OFFCURVE",
"565 131 OFFCURVE",
"565 260 CURVE SMOOTH",
"565 314 OFFCURVE",
"499 358 OFFCURVE",
"424 378 CURVE SMOOTH",
"404 384 OFFCURVE",
"383 387 OFFCURVE",
"362 389 CURVE",
"386 364 LINE",
"488 422 OFFCURVE",
"570 504 OFFCURVE",
"570 582 CURVE SMOOTH",
"570 697 OFFCURVE",
"433 737 OFFCURVE",
"261 737 CURVE SMOOTH",
"175 737 OFFCURVE",
"107 714 OFFCURVE",
"107 675 CURVE SMOOTH"
);
},
{
closed = 1;
nodes = (
"158 636 OFFCURVE",
"154 627 OFFCURVE",
"154 606 CURVE SMOOTH",
"153 440 OFFCURVE",
"86 267 OFFCURVE",
"86 220 CURVE SMOOTH",
"86 179 OFFCURVE",
"156 132 OFFCURVE",
"178 132 CURVE SMOOTH",
"189 132 OFFCURVE",
"200 172 OFFCURVE",
"224 274 CURVE SMOOTH",
"263 434 OFFCURVE",
"278 484 OFFCURVE",
"278 521 CURVE SMOOTH",
"278 559 OFFCURVE",
"202 636 OFFCURVE",
"177 636 CURVE SMOOTH"
);
}
);
width = 624;
},
{
layerId = "6FA4A80C-3D50-4FAF-A835-1EC9F66A3889";
name = Light;
paths = (
{
closed = 1;
nodes = (
"149 659 OFFCURVE",
"170 633 OFFCURVE",
"193 633 CURVE SMOOTH",
"238 633 OFFCURVE",
"278 645 OFFCURVE",
"351 645 CURVE SMOOTH",
"434 645 OFFCURVE",
"507 610 OFFCURVE",
"507 556 CURVE SMOOTH",
"507 479 OFFCURVE",
"397 443 OFFCURVE",
"317 417 CURVE SMOOTH",
"271 402 OFFCURVE",
"228 392 OFFCURVE",
"228 371 CURVE SMOOTH",
"228 356 OFFCURVE",
"252 337 OFFCURVE",
"276 337 CURVE SMOOTH",
"383 337 OFFCURVE",
"514 304 OFFCURVE",
"514 254 CURVE SMOOTH",
"514 162 OFFCURVE",
"329 76 OFFCURVE",
"146 76 CURVE SMOOTH",
"60 76 OFFCURVE",
"36 125 OFFCURVE",
"18 125 CURVE SMOOTH",
"13 125 OFFCURVE",
"7 120 OFFCURVE",
"7 106 CURVE SMOOTH",
"7 68 OFFCURVE",
"65 22 OFFCURVE",
"165 22 CURVE SMOOTH",
"385 22 OFFCURVE",
"580 133 OFFCURVE",
"580 250 CURVE SMOOTH",
"580 315 OFFCURVE",
"494 378 OFFCURVE",
"360 378 CURVE SMOOTH",
"349 378 OFFCURVE",
"336 378 OFFCURVE",
"324 377 CURVE",
"327 376 LINE",
"499 407 OFFCURVE",
"571 472 OFFCURVE",
"571 559 CURVE SMOOTH",
"571 644 OFFCURVE",
"481 703 OFFCURVE",
"288 703 CURVE SMOOTH",
"211 703 OFFCURVE",
"149 687 OFFCURVE",
"149 672 CURVE SMOOTH"
);
},
{
closed = 1;
nodes = (
"225 648 OFFCURVE",
"221 639 OFFCURVE",
"221 625 CURVE SMOOTH",
"221 444 OFFCURVE",
"104 171 OFFCURVE",
"104 127 CURVE SMOOTH",
"104 99 OFFCURVE",
"118 72 OFFCURVE",
"131 72 CURVE SMOOTH",
"141 72 OFFCURVE",
"159 111 OFFCURVE",
"187 209 CURVE SMOOTH",
"232 367 OFFCURVE",
"280 554 OFFCURVE",
"280 592 CURVE SMOOTH",
"280 612 OFFCURVE",
"254 648 OFFCURVE",
"237 648 CURVE SMOOTH"
);
}
);
width = 644;
}
);
unicode = 0042;
},
{
glyphname = C;
lastChange = "2014-11-17 07:04:19 +0000";
layers = (
{
anchors = (
{
name = cedilla;
position = "{206, 8}";
},
{
name = top;
position = "{436, 743}";
}
);
layerId = UUID0;
name = Bold;
paths = (
{
closed = 1;
nodes = (
"533 661 OFFCURVE",
"476 747 OFFCURVE",
"439 747 CURVE SMOOTH",
"252 747 OFFCURVE",
"35 423 OFFCURVE",
"35 231 CURVE SMOOTH",
"35 142 OFFCURVE",
"150 13 OFFCURVE",
"237 13 CURVE SMOOTH",
"360 13 OFFCURVE",
"557 135 OFFCURVE",
"557 206 CURVE SMOOTH",
"557 228 OFFCURVE",
"546 245 OFFCURVE",
"538 245 CURVE SMOOTH",
"512 245 OFFCURVE",
"385 160 OFFCURVE",
"228 160 CURVE SMOOTH",
"192 160 OFFCURVE",
"182 180 OFFCURVE",
"182 221 CURVE SMOOTH",
"182 356 OFFCURVE",
"357 592 OFFCURVE",
"461 592 CURVE SMOOTH",
"487 592 OFFCURVE",
"505 584 OFFCURVE",
"520 584 CURVE SMOOTH",
"526 584 OFFCURVE",
"533 589 OFFCURVE",
"533 609 CURVE SMOOTH"
);
}
);
width = 617;
},
{
anchors = (
{
name = cedilla;
position = "{276, 0}";
},
{
name = top;
position = "{504, 683}";
}
);
layerId = "6FA4A80C-3D50-4FAF-A835-1EC9F66A3889";
name = Light;
paths = (
{
closed = 1;
nodes = (
"560 660 OFFCURVE",
"521 702 OFFCURVE",
"487 702 CURVE SMOOTH",
"301 702 OFFCURVE",
"81 395 OFFCURVE",
"81 207 CURVE SMOOTH",
"81 103 OFFCURVE",
"176 25 OFFCURVE",
"271 25 CURVE SMOOTH",
"380 25 OFFCURVE",
"533 132 OFFCURVE",
"533 164 CURVE SMOOTH",
"533 171 OFFCURVE",
"526 178 OFFCURVE",
"521 178 CURVE SMOOTH",
"489 178 OFFCURVE",
"412 89 OFFCURVE",
"273 89 CURVE SMOOTH",
"210 89 OFFCURVE",
"145 129 OFFCURVE",
"145 206 CURVE SMOOTH",
"145 406 OFFCURVE",
"379 641 OFFCURVE",
"485 641 CURVE SMOOTH",
"520 641 OFFCURVE",
"538 623 OFFCURVE",
"555 623 CURVE SMOOTH",
"559 623 OFFCURVE",
"560 624 OFFCURVE",
"560 633 CURVE SMOOTH"
);
}
);
width = 589;
}
);
unicode = 0043;
},
{
glyphname = D;
lastChange = "2014-11-17 07:04:19 +0000";
layers = (
{
anchors = (
{
name = top;
position = "{429, 683}";
}
);
layerId = UUID0;
name = Bold;
paths = (
{
closed = 1;
nodes = (
"270 409 OFFCURVE",
"299 518 OFFCURVE",
"299 568 CURVE SMOOTH",
"299 624 OFFCURVE",
"225 703 OFFCURVE",
"204 703 CURVE SMOOTH",
"188 703 OFFCURVE",
"183 696 OFFCURVE",
"182 672 CURVE SMOOTH",
"175 534 OFFCURVE",
"52 210 OFFCURVE",
"52 123 CURVE SMOOTH",
"52 94 OFFCURVE",
"122 13 OFFCURVE",
"144 13 CURVE SMOOTH",
"301 13 OFFCURVE",
"639 240 OFFCURVE",
"639 358 CURVE SMOOTH",
"639 566 OFFCURVE",
"319 747 OFFCURVE",
"110 747 CURVE SMOOTH",
"98 747 OFFCURVE",
"90 740 OFFCURVE",
"90 724 CURVE SMOOTH",
"90 679 OFFCURVE",
"158 601 OFFCURVE",
"237 580 CURVE SMOOTH",
"368 544 OFFCURVE",
"495 436 OFFCURVE",
"495 386 CURVE SMOOTH",
"495 331 OFFCURVE",
"320 199 OFFCURVE",
"189 155 CURVE",
"196 173 OFFCURVE",
"204 206 OFFCURVE",
"214 237 CURVE SMOOTH"
);
}
);
width = 666;
},
{
anchors = (
{
name = top;
position = "{445, 633}";
}
);
layerId = "6FA4A80C-3D50-4FAF-A835-1EC9F66A3889";
name = Light;
paths = (
{
closed = 1;
nodes = (
"239 435 OFFCURVE",
"268 529 OFFCURVE",
"268 576 CURVE SMOOTH",
"268 629 OFFCURVE",
"243 656 OFFCURVE",
"226 656 CURVE SMOOTH",
"211 656 OFFCURVE",
"211 643 OFFCURVE",
"211 619 CURVE SMOOTH",
"211 508 OFFCURVE",
"95 180 OFFCURVE",
"95 97 CURVE SMOOTH",
"95 56 OFFCURVE",
"124 15 OFFCURVE",
"150 15 CURVE SMOOTH",
"297 15 OFFCURVE",
"598 224 OFFCURVE",
"598 356 CURVE SMOOTH",
"598 544 OFFCURVE",
"346 707 OFFCURVE",
"173 707 CURVE SMOOTH",
"161 707 OFFCURVE",
"153 702 OFFCURVE",
"153 689 CURVE SMOOTH",
"153 670 OFFCURVE",
"177 648 OFFCURVE",
"228 639 CURVE SMOOTH",
"386 611 OFFCURVE",
"534 471 OFFCURVE",
"534 358 CURVE SMOOTH",
"534 283 OFFCURVE",
"311 84 OFFCURVE",
"155 77 CURVE",
"161 130 OFFCURVE",
"175 205 OFFCURVE",
"190 256 CURVE SMOOTH"
);
}
);
width = 633;
}
);
unicode = 0044;
},
{
glyphname = E;
lastChange = "2014-11-17 07:04:19 +0000";
layers = (
{
anchors = (
{
name = ogonek;
position = "{440, 101}";
},
{
name = top;
position = "{342, 743}";
}
);
layerId = UUID0;
name = Bold;
paths = (
{
closed = 1;
nodes = (
"301 20 OFFCURVE",
"488 90 OFFCURVE",
"488 164 CURVE SMOOTH",
"488 180 OFFCURVE",
"482 191 OFFCURVE",
"469 191 CURVE SMOOTH",
"446 191 OFFCURVE",
"330 150 OFFCURVE",
"187 150 CURVE SMOOTH",
"177 150 OFFCURVE",
"170 156 OFFCURVE",
"170 167 CURVE SMOOTH",
"170 242 OFFCURVE",
"266 433 OFFCURVE",
"266 594 CURVE SMOOTH",
"266 639 OFFCURVE",
"172 690 OFFCURVE",
"147 690 CURVE SMOOTH",
"133 690 OFFCURVE",
"131 683 OFFCURVE",
"131 666 CURVE SMOOTH",
"131 487 OFFCURVE",
"25 246 OFFCURVE",
"25 131 CURVE SMOOTH",
"25 75 OFFCURVE",
"84 20 OFFCURVE",
"145 20 CURVE SMOOTH"
);
},
{
closed = 1;
nodes = (
"289 320 OFFCURVE",
"469 350 OFFCURVE",
"469 420 CURVE SMOOTH",
"469 434 OFFCURVE",
"456 444 OFFCURVE",
"439 444 CURVE SMOOTH",
"395 444 OFFCURVE",
"342 433 OFFCURVE",
"248 433 CURVE SMOOTH",
"175 433 OFFCURVE",
"146 452 OFFCURVE",
"113 452 CURVE SMOOTH",
"101 452 OFFCURVE",
"97 447 OFFCURVE",
"97 431 CURVE SMOOTH",
"97 408 OFFCURVE",
"158 320 OFFCURVE",
"187 320 CURVE SMOOTH"
);
},
{
closed = 1;
nodes = (
"130 620 OFFCURVE",
"171 577 OFFCURVE",
"194 577 CURVE SMOOTH",
"231 577 OFFCURVE",
"284 598 OFFCURVE",
"349 610 CURVE SMOOTH",
"462 631 OFFCURVE",
"591 624 OFFCURVE",
"591 680 CURVE SMOOTH",
"591 720 OFFCURVE",
"469 728 OFFCURVE",
"375 728 CURVE SMOOTH",
"187 728 OFFCURVE",
"130 722 OFFCURVE",
"130 661 CURVE SMOOTH"
);
}
);
width = 551;
},
{
anchors = (
{
name = ogonek;
position = "{471, 94}";
},
{
name = top;
position = "{417, 683}";
}
);
layerId = "6FA4A80C-3D50-4FAF-A835-1EC9F66A3889";
name = Light;
paths = (
{
closed = 1;
nodes = (
"321 12 OFFCURVE",
"509 72 OFFCURVE",
"509 107 CURVE SMOOTH",
"509 116 OFFCURVE",
"506 125 OFFCURVE",
"497 125 CURVE SMOOTH",
"471 125 OFFCURVE",
"340 72 OFFCURVE",
"178 72 CURVE SMOOTH",
"160 72 OFFCURVE",
"145 83 OFFCURVE",
"145 104 CURVE SMOOTH",
"145 169 OFFCURVE",
"268 482 OFFCURVE",
"268 621 CURVE",
"268 666 OFFCURVE",
"253 680 OFFCURVE",
"238 680 CURVE SMOOTH",
"224 680 OFFCURVE",
"209 671 OFFCURVE",
"209 641 CURVE SMOOTH",
"209 460 OFFCURVE",
"83 206 OFFCURVE",
"83 91 CURVE SMOOTH",
"83 48 OFFCURVE",
"134 12 OFFCURVE",
"195 12 CURVE SMOOTH"
);
},
{
closed = 1;
nodes = (
"352 340 OFFCURVE",
"486 352 OFFCURVE",
"486 392 CURVE SMOOTH",
"486 399 OFFCURVE",
"473 401 OFFCURVE",
"449 401 CURVE SMOOTH",
"382 401 OFFCURVE",
"351 391 OFFCURVE",
"254 391 CURVE SMOOTH",
"224 391 OFFCURVE",
"212 394 OFFCURVE",
"190 394 CURVE SMOOTH",
"175 394 OFFCURVE",
"166 389 OFFCURVE",
"166 375 CURVE SMOOTH",
"166 362 OFFCURVE",
"180 340 OFFCURVE",
"218 340 CURVE SMOOTH"
);
},
{
closed = 1;
nodes = (
"213 647 OFFCURVE",
"227 630 OFFCURVE",
"248 630 CURVE SMOOTH",
"276 630 OFFCURVE",
"325 641 OFFCURVE",
"394 646 CURVE SMOOTH",
"535 657 OFFCURVE",
"612 659 OFFCURVE",
"612 682 CURVE SMOOTH",
"612 696 OFFCURVE",
"545 701 OFFCURVE",
"420 701 CURVE SMOOTH",
"249 701 OFFCURVE",
"213 677 OFFCURVE",
"213 661 CURVE SMOOTH"
);
}
);
width = 604;
}
);
unicode = 0045;
},
{
glyphname = F;
lastChange = "2014-11-17 07:04:19 +0000";
layers = (
{
layerId = UUID0;
name = Bold;
paths = (
{
closed = 1;
nodes = (
"41 100 OFFCURVE",
"105 13 OFFCURVE",
"134 13 CURVE SMOOTH",
"152 13 OFFCURVE",
"172 129 OFFCURVE",
"206 265 CURVE SMOOTH",
"246 429 OFFCURVE",
"267 567 OFFCURVE",
"267 591 CURVE SMOOTH",
"267 624 OFFCURVE",
"199 696 OFFCURVE",
"170 696 CURVE SMOOTH",
"147 696 OFFCURVE",
"144 683 OFFCURVE",
"144 666 CURVE SMOOTH",
"144 572 OFFCURVE",
"41 213 OFFCURVE",
"41 130 CURVE SMOOTH"
);
},
{
closed = 1;
nodes = (
"102 354 OFFCURVE",
"159 274 OFFCURVE",
"197 274 CURVE SMOOTH",
"264 274 OFFCURVE",
"489 301 OFFCURVE",
"489 381 CURVE SMOOTH",
"489 396 OFFCURVE",
"471 410 OFFCURVE",
"449 410 CURVE SMOOTH",
"404 410 OFFCURVE",
"352 399 OFFCURVE",
"277 399 CURVE SMOOTH",
"220 399 OFFCURVE",
"184 406 OFFCURVE",
"128 406 CURVE SMOOTH",
"109 406 OFFCURVE",
"102 396 OFFCURVE",
"102 380 CURVE SMOOTH"
);
},
{
closed = 1;
nodes = (
"143 617 OFFCURVE",
"185 587 OFFCURVE",
"215 587 CURVE SMOOTH",
"249 587 OFFCURVE",
"308 601 OFFCURVE",
"372 608 CURVE SMOOTH",
"486 620 OFFCURVE",
"592 624 OFFCURVE",
"592 667 CURVE SMOOTH",
"592 712 OFFCURVE",
"496 734 OFFCURVE",
"398 734 CURVE SMOOTH",
"209 734 OFFCURVE",
"143 727 OFFCURVE",
"143 661 CURVE SMOOTH"
);
}
);
width = 542;
},
{
layerId = "6FA4A80C-3D50-4FAF-A835-1EC9F66A3889";
name = Light;
paths = (
{
closed = 1;
nodes = (
"64 49 OFFCURVE",
"87 17 OFFCURVE",
"99 17 CURVE SMOOTH",
"109 17 OFFCURVE",
"123 70 OFFCURVE",
"138 129 CURVE SMOOTH",
"162 225 OFFCURVE",
"246 522 OFFCURVE",
"246 619 CURVE SMOOTH",
"246 646 OFFCURVE",
"231 680 OFFCURVE",
"217 680 CURVE SMOOTH",
"208 680 OFFCURVE",
"190 671 OFFCURVE",
"189 641 CURVE SMOOTH",
"184 482 OFFCURVE",
"64 109 OFFCURVE",
"64 69 CURVE SMOOTH"
);
},
{
closed = 1;
nodes = (
"144 355 OFFCURVE",
"158 334 OFFCURVE",
"197 334 CURVE SMOOTH",
"360 334 OFFCURVE",
"464 366 OFFCURVE",
"464 388 CURVE SMOOTH",
"464 394 OFFCURVE",
"451 397 OFFCURVE",
"427 397 CURVE SMOOTH",
"392 397 OFFCURVE",
"350 390 OFFCURVE",
"266 388 CURVE SMOOTH",
"247 387 OFFCURVE",
"226 387 OFFCURVE",
"203 387 CURVE SMOOTH",
"170 387 OFFCURVE",
"144 383 OFFCURVE",
"144 369 CURVE SMOOTH"
);
},
{
closed = 1;
nodes = (
"195 647 OFFCURVE",
"205 632 OFFCURVE",
"227 632 CURVE SMOOTH",
"255 632 OFFCURVE",
"304 638 OFFCURVE",
"373 645 CURVE SMOOTH",
"497 658 OFFCURVE",
"588 659 OFFCURVE",
"588 680 CURVE SMOOTH",
"588 694 OFFCURVE",
"505 701 OFFCURVE",
"400 701 CURVE SMOOTH",
"242 701 OFFCURVE",
"195 682 OFFCURVE",
"195 661 CURVE SMOOTH"
);
}
);
width = 512;
}
);
unicode = 0046;
},
{
glyphname = G;
lastChange = "2014-11-17 07:04:19 +0000";
layers = (
{
anchors = (
{
name = top;
position = "{461, 723}";
}
);
layerId = UUID0;
name = Bold;
paths = (
{
closed = 1;
nodes = (
"251 740 OFFCURVE",
"21 403 OFFCURVE",
"21 183 CURVE SMOOTH",
"21 99 OFFCURVE",
"131 20 OFFCURVE",
"215 20 CURVE SMOOTH",
"294 20 OFFCURVE",
"384 92 OFFCURVE",
"446 184 CURVE",
"436 192 LINE",
"404 94 OFFCURVE",
"384 -2 OFFCURVE",
"384 -52 CURVE SMOOTH",
"384 -70 OFFCURVE",
"398 -82 OFFCURVE",
"417 -82 CURVE SMOOTH",
"468 -82 OFFCURVE",
"544 186 OFFCURVE",
"544 239 CURVE SMOOTH",
"544 305 OFFCURVE",
"512 387 OFFCURVE",
"426 387 CURVE SMOOTH",
"363 387 OFFCURVE",
"277 370 OFFCURVE",
"277 339 CURVE SMOOTH",
"277 313 OFFCURVE",
"318 281 OFFCURVE",
"356 281 CURVE SMOOTH",
"373 281 OFFCURVE",
"391 281 OFFCURVE",
"413 282 CURVE",
"363 213 OFFCURVE",
"254 146 OFFCURVE",
"192 146 CURVE SMOOTH",
"168 146 OFFCURVE",
"158 157 OFFCURVE",
"158 172 CURVE SMOOTH",
"158 351 OFFCURVE",
"313 597 OFFCURVE",
"453 597 CURVE SMOOTH",
"496 597 OFFCURVE",
"503 589 OFFCURVE",
"514 589 CURVE SMOOTH",
"523 589 OFFCURVE",
"527 594 OFFCURVE",
"527 607 CURVE SMOOTH",
"527 658 OFFCURVE",
"473 740 OFFCURVE",
"432 740 CURVE SMOOTH"
);
}
);
width = 597;
},
{
anchors = (
{
name = top;
position = "{487, 683}";
}
);
layerId = "6FA4A80C-3D50-4FAF-A835-1EC9F66A3889";
name = Light;
paths = (
{
closed = 1;
nodes = (
"288 704 OFFCURVE",
"59 392 OFFCURVE",
"59 195 CURVE SMOOTH",
"59 107 OFFCURVE",
"143 16 OFFCURVE",
"229 16 CURVE SMOOTH",
"305 16 OFFCURVE",
"417 108 OFFCURVE",
"486 265 CURVE",
"481 277 LINE",
"435 109 OFFCURVE",
"377 -17 OFFCURVE",
"377 -64 CURVE SMOOTH",
"377 -84 OFFCURVE",
"385 -93 OFFCURVE",
"398 -93 CURVE",
"428 -93 OFFCURVE",
"523 215 OFFCURVE",
"523 269 CURVE SMOOTH",
"523 296 OFFCURVE",
"493 335 OFFCURVE",
"461 335 CURVE SMOOTH",
"366 335 OFFCURVE",
"309 324 OFFCURVE",
"309 307 CURVE SMOOTH",
"309 294 OFFCURVE",
"334 273 OFFCURVE",
"358 273 CURVE SMOOTH",
"378 273 OFFCURVE",
"412 279 OFFCURVE",
"463 296 CURVE",
"378 166 OFFCURVE",
"291 80 OFFCURVE",
"226 80 CURVE SMOOTH",
"176 80 OFFCURVE",
"125 132 OFFCURVE",
"125 200 CURVE SMOOTH",
"125 390 OFFCURVE",
"344 638 OFFCURVE",
"466 638 CURVE",
"501 638 OFFCURVE",
"516 619 OFFCURVE",
"530 619 CURVE",
"537 619 OFFCURVE",
"540 623 OFFCURVE",
"540 634 CURVE",
"540 653 OFFCURVE",
"504 704 OFFCURVE",
"464 704 CURVE SMOOTH"
);
}
);
width = 618;
}
);
unicode = 0047;
},
{
glyphname = H;
lastChange = "2014-11-17 07:04:19 +0000";
layers = (
{
layerId = UUID0;
name = Bold;
paths = (
{
closed = 1;
nodes = (
"50 101 OFFCURVE",
"118 13 OFFCURVE",
"147 13 CURVE SMOOTH",
"166 13 OFFCURVE",
"177 103 OFFCURVE",
"210 229 CURVE SMOOTH",
"255 398 OFFCURVE",
"297 571 OFFCURVE",
"297 607 CURVE SMOOTH",
"297 667 OFFCURVE",
"225 745 OFFCURVE",
"196 745 CURVE SMOOTH",
"175 745 OFFCURVE",
"167 733 OFFCURVE",
"167 712 CURVE SMOOTH",
"167 595 OFFCURVE",
"50 204 OFFCURVE",
"50 132 CURVE SMOOTH"
);
},
{
closed = 1;
nodes = (
"360 73 OFFCURVE",
"422 13 OFFCURVE",
"451 13 CURVE SMOOTH",
"469 13 OFFCURVE",
"483 103 OFFCURVE",
"516 229 CURVE SMOOTH",
"560 398 OFFCURVE",
"610 571 OFFCURVE",
"610 607 CURVE SMOOTH",
"610 667 OFFCURVE",
"537 745 OFFCURVE",
"509 745 CURVE SMOOTH",
"487 745 OFFCURVE",
"480 733 OFFCURVE",
"480 712 CURVE SMOOTH",
"480 591 OFFCURVE",
"360 179 OFFCURVE",
"360 127 CURVE SMOOTH"
);
},
{
closed = 1;
nodes = (
"621 440 OFFCURVE",
"517 446 OFFCURVE",
"462 446 CURVE SMOOTH",
"326 446 OFFCURVE",
"56 402 OFFCURVE",
"56 348 CURVE SMOOTH",
"56 305 OFFCURVE",
"88 267 OFFCURVE",
"126 267 CURVE SMOOTH",
"166 267 OFFCURVE",
"212 286 OFFCURVE",
"295 303 CURVE SMOOTH",
"446 334 OFFCURVE",
"621 339 OFFCURVE",
"621 396 CURVE SMOOTH"
);
}
);
width = 651;
},
{
layerId = "6FA4A80C-3D50-4FAF-A835-1EC9F66A3889";
name = Light;
paths = (
{
closed = 1;
nodes = (
"75 42 OFFCURVE",
"97 19 OFFCURVE",
"105 19 CURVE",
"122 19 OFFCURVE",
"154 163 OFFCURVE",
"189 287 CURVE SMOOTH",
"238 459 OFFCURVE",
"268 600 OFFCURVE",
"268 637 CURVE SMOOTH",
"268 673 OFFCURVE",
"243 707 OFFCURVE",
"228 707 CURVE SMOOTH",
"217 707 OFFCURVE",
"213 702 OFFCURVE",
"213 678 CURVE SMOOTH",
"213 561 OFFCURVE",
"75 137 OFFCURVE",
"75 65 CURVE SMOOTH"
);
},
{
closed = 1;
nodes = (
"434 44 OFFCURVE",
"453 19 OFFCURVE",
"463 19 CURVE SMOOTH",
"482 19 OFFCURVE",
"512 163 OFFCURVE",
"547 287 CURVE SMOOTH",
"596 459 OFFCURVE",
"628 600 OFFCURVE",
"628 637 CURVE SMOOTH",
"628 673 OFFCURVE",
"602 707 OFFCURVE",
"586 707 CURVE SMOOTH",
"574 707 OFFCURVE",
"571 701 OFFCURVE",
"571 678 CURVE SMOOTH",
"571 560 OFFCURVE",
"434 135 OFFCURVE",
"434 65 CURVE"
);
},
{
closed = 1;
nodes = (
"624 406 OFFCURVE",
"608 412 OFFCURVE",
"548 412 CURVE SMOOTH",
"457 412 OFFCURVE",
"90 357 OFFCURVE",
"90 329 CURVE SMOOTH",
"90 311 OFFCURVE",
"109 298 OFFCURVE",
"122 298 CURVE SMOOTH",
"164 298 OFFCURVE",
"232 318 OFFCURVE",
"324 333 CURVE SMOOTH",
"517 365 OFFCURVE",
"624 364 OFFCURVE",
"624 391 CURVE SMOOTH"
);
}
);
width = 680;
}
);
unicode = 0048;
},
{
glyphname = I;
lastChange = "2014-11-17 07:04:19 +0000";
layers = (
{
anchors = (
{
name = ogonek;
position = "{77, 8}";
},
{
name = top;
position = "{234, 743}";
}
);
layerId = UUID0;
name = Bold;
paths = (
{
closed = 1;
nodes = (
"148 608 OFFCURVE",
"50 162 OFFCURVE",
"50 118 CURVE SMOOTH",
"50 90 OFFCURVE",
"110 13 OFFCURVE",
"138 13 CURVE SMOOTH",
"168 13 OFFCURVE",
"187 140 OFFCURVE",
"217 285 CURVE SMOOTH",
"253 459 OFFCURVE",
"286 573 OFFCURVE",
"286 607 CURVE SMOOTH",
"286 667 OFFCURVE",
"210 745 OFFCURVE",
"182 745 CURVE SMOOTH",
"160 745 OFFCURVE",
"152 733 OFFCURVE",
"151 712 CURVE SMOOTH"
);
}
);
width = 309;
},
{
anchors = (
{
name = ogonek;
position = "{74, 29}";
},
{
name = top;
position = "{247, 683}";
}
);
layerId = "6FA4A80C-3D50-4FAF-A835-1EC9F66A3889";
name = Light;
paths = (
{
closed = 1;
nodes = (
"208 559 OFFCURVE",
"77 132 OFFCURVE",
"77 66 CURVE SMOOTH",
"77 45 OFFCURVE",
"99 22 OFFCURVE",
"111 22 CURVE SMOOTH",
"123 22 OFFCURVE",
"158 170 OFFCURVE",
"192 296 CURVE SMOOTH",
"238 465 OFFCURVE",
"266 598 OFFCURVE",
"266 635 CURVE",
"266 670 OFFCURVE",
"240 704 OFFCURVE",
"223 704 CURVE SMOOTH",
"210 704 OFFCURVE",
"208 698 OFFCURVE",
"208 675 CURVE SMOOTH"
);
}
);
width = 311;
}
);
unicode = 0049;
},
{
glyphname = J;
lastChange = "2014-11-17 07:04:19 +0000";
layers = (
{
layerId = UUID0;
name = Bold;
paths = (
{
closed = 1;
nodes = (
"19 255 OFFCURVE",
"13 241 OFFCURVE",
"13 206 CURVE SMOOTH",
"13 138 OFFCURVE",
"113 13 OFFCURVE",
"213 13 CURVE SMOOTH",
"338 13 OFFCURVE",
"371 166 OFFCURVE",
"434 435 CURVE SMOOTH",
"453 517 OFFCURVE",
"514 674 OFFCURVE",
"514 704 CURVE SMOOTH",
"514 730 OFFCURVE",
"491 740 OFFCURVE",
"471 740 CURVE SMOOTH",
"408 740 OFFCURVE",
"123 703 OFFCURVE",
"123 623 CURVE SMOOTH",
"123 600 OFFCURVE",
"140 579 OFFCURVE",
"173 579 CURVE SMOOTH",
"198 579 OFFCURVE",
"307 594 OFFCURVE",
"343 602 CURVE",
"334 578 OFFCURVE",
"320 502 OFFCURVE",
"308 454 CURVE SMOOTH",
"250 228 OFFCURVE",
"225 143 OFFCURVE",
"192 143 CURVE SMOOTH",
"121 143 OFFCURVE",
"76 255 OFFCURVE",
"38 255 CURVE SMOOTH"
);
}
);
width = 486;
},
{
layerId = "6FA4A80C-3D50-4FAF-A835-1EC9F66A3889";
name = Light;
paths = (
{
closed = 1;
nodes = (
"11 161 OFFCURVE",
"5 155 OFFCURVE",
"5 143 CURVE SMOOTH",
"5 106 OFFCURVE",
"104 13 OFFCURVE",
"188 13 CURVE SMOOTH",
"278 13 OFFCURVE",
"298 70 OFFCURVE",
"385 366 CURVE SMOOTH",
"440 553 OFFCURVE",
"488 650 OFFCURVE",
"488 684 CURVE SMOOTH",
"488 707 OFFCURVE",
"462 715 OFFCURVE",
"441 715 CURVE SMOOTH",
"390 715 OFFCURVE",
"157 656 OFFCURVE",
"157 619 CURVE",
"157 609 OFFCURVE",
"167 603 OFFCURVE",
"187 603 CURVE SMOOTH",
"224 603 OFFCURVE",
"318 644 OFFCURVE",
"432 660 CURVE",
"399 611 OFFCURVE",
"364 517 OFFCURVE",
"337 421 CURVE SMOOTH",
"267 168 OFFCURVE",
"236 69 OFFCURVE",
"181 69 CURVE SMOOTH",
"103 69 OFFCURVE",
"39 161 OFFCURVE",
"20 161 CURVE SMOOTH"
);
}
);
width = 458;
}
);
unicode = 004A;
},
{
glyphname = K;
lastChange = "2014-11-17 07:04:19 +0000";
layers = (
{
layerId = UUID0;
name = Bold;
paths = (
{
closed = 1;
nodes = (
"29 82 OFFCURVE",
"88 13 OFFCURVE",
"117 13 CURVE SMOOTH",
"143 13 OFFCURVE",
"147 103 OFFCURVE",
"180 229 CURVE SMOOTH",
"224 398 OFFCURVE",
"267 571 OFFCURVE",
"267 607 CURVE SMOOTH",
"267 667 OFFCURVE",
"204 745 OFFCURVE",
"175 745 CURVE SMOOTH",
"154 745 OFFCURVE",
"146 731 OFFCURVE",
"146 705 CURVE SMOOTH",
"146 588 OFFCURVE",
"29 197 OFFCURVE",
"29 125 CURVE SMOOTH"
);
},
{
closed = 1;
nodes = (
"574 690 OFFCURVE",
"529 730 OFFCURVE",
"496 730 CURVE SMOOTH",
"413 730 OFFCURVE",
"42 239 OFFCURVE",
"42 118 CURVE SMOOTH",
"42 95 OFFCURVE",
"97 13 OFFCURVE",
"118 13 CURVE SMOOTH",
"138 13 OFFCURVE",
"175 295 OFFCURVE",
"267 351 CURVE",
"163 314 LINE",
"191 122 OFFCURVE",
"362 13 OFFCURVE",
"465 13 CURVE SMOOTH",
"509 13 OFFCURVE",
"538 28 OFFCURVE",
"538 64 CURVE SMOOTH",
"538 105 OFFCURVE",
"439 129 OFFCURVE",
"370 189 CURVE SMOOTH",
"308 243 OFFCURVE",
"281 298 OFFCURVE",
"281 344 CURVE",
"378 494 OFFCURVE",
"574 628 OFFCURVE",
"574 668 CURVE SMOOTH"
);
}
);
width = 602;
},
{
layerId = "6FA4A80C-3D50-4FAF-A835-1EC9F66A3889";
name = Light;
paths = (
{
closed = 1;
nodes = (
"68 47 OFFCURVE",
"86 23 OFFCURVE",
"99 23 CURVE",
"109 23 OFFCURVE",
"144 165 OFFCURVE",
"179 288 CURVE SMOOTH",
"228 458 OFFCURVE",
"257 598 OFFCURVE",
"257 635 CURVE SMOOTH",
"257 667 OFFCURVE",
"238 704 OFFCURVE",
"218 704 CURVE SMOOTH",
"207 704 OFFCURVE",
"205 699 OFFCURVE",
"205 675 CURVE SMOOTH",
"205 558 OFFCURVE",
"68 139 OFFCURVE",
"68 68 CURVE SMOOTH"
);
},
{
closed = 1;
nodes = (
"590 688 OFFCURVE",
"574 702 OFFCURVE",
"547 702 CURVE SMOOTH",
"500 702 OFFCURVE",
"78 267 OFFCURVE",
"78 79 CURVE SMOOTH",
"78 45 OFFCURVE",
"94 23 OFFCURVE",
"99 23 CURVE SMOOTH",
"115 23 OFFCURVE",
"159 236 OFFCURVE",
"233 310 CURVE",
"216 313 LINE",
"227 119 OFFCURVE",
"420 23 OFFCURVE",
"510 23 CURVE SMOOTH",
"527 23 OFFCURVE",
"538 26 OFFCURVE",
"538 36 CURVE SMOOTH",
"538 74 OFFCURVE",
"434 92 OFFCURVE",
"357 152 CURVE SMOOTH",
"286 208 OFFCURVE",
"267 291 OFFCURVE",
"267 338 CURVE",
"423 539 OFFCURVE",
"590 647 OFFCURVE",
"590 679 CURVE SMOOTH"
);
}
);
width = 585;
}
);
unicode = 004B;
},
{
glyphname = M;
lastChange = "2014-11-17 07:04:19 +0000";
layers = (
{
layerId = UUID0;
name = Bold;
paths = (
{
closed = 1;
nodes = (
"309 672 OFFCURVE",
"201 745 OFFCURVE",
"179 745 CURVE SMOOTH",
"157 745 OFFCURVE",
"150 733 OFFCURVE",
"150 712 CURVE SMOOTH",
"150 595 OFFCURVE",
"33 204 OFFCURVE",
"33 132 CURVE SMOOTH",
"33 101 OFFCURVE",
"90 13 OFFCURVE",
"114 13 CURVE SMOOTH",
"137 13 OFFCURVE",
"160 103 OFFCURVE",
"193 229 CURVE SMOOTH",
"203 267 OFFCURVE",
"224 363 OFFCURVE",
"233 436 CURVE",
"266 315 OFFCURVE",
"279 244 OFFCURVE",
"301 223 CURVE SMOOTH",
"322 202 OFFCURVE",
"348 199 OFFCURVE",
"367 199 CURVE SMOOTH",
"426 199 OFFCURVE",
"490 303 OFFCURVE",
"578 416 CURVE",
"534 290 OFFCURVE",
"517 201 OFFCURVE",
"517 135 CURVE SMOOTH",
"517 78 OFFCURVE",
"549 13 OFFCURVE",
"578 13 CURVE SMOOTH",
"620 13 OFFCURVE",
"625 90 OFFCURVE",
"676 289 CURVE SMOOTH",
"712 429 OFFCURVE",
"756 559 OFFCURVE",
"756 637 CURVE SMOOTH",
"756 674 OFFCURVE",
"712 718 OFFCURVE",
"680 718 CURVE SMOOTH",
"626 718 OFFCURVE",
"481 495 OFFCURVE",
"385 384 CURVE",
"344 473 OFFCURVE",
"309 599 OFFCURVE",
"309 644 CURVE SMOOTH"
);
}
);
width = 756;
},
{
layerId = "6FA4A80C-3D50-4FAF-A835-1EC9F66A3889";
name = Light;
paths = (
{
closed = 1;
nodes = (
"264 675 OFFCURVE",
"232 704 OFFCURVE",
"220 704 CURVE SMOOTH",
"206 704 OFFCURVE",
"204 698 OFFCURVE",
"204 675 CURVE SMOOTH",
"204 558 OFFCURVE",
"68 139 OFFCURVE",
"68 68 CURVE SMOOTH",
"68 47 OFFCURVE",
"87 23 OFFCURVE",
"98 23 CURVE SMOOTH",
"108 23 OFFCURVE",
"144 165 OFFCURVE",
"180 288 CURVE SMOOTH",
"202 363 OFFCURVE",
"227 464 OFFCURVE",
"240 542 CURVE",
"278 432 OFFCURVE",
"331 316 OFFCURVE",
"353 278 CURVE SMOOTH",
"366 257 OFFCURVE",
"385 243 OFFCURVE",
"402 243 CURVE SMOOTH",
"434 243 OFFCURVE",
"505 328 OFFCURVE",
"739 619 CURVE",
"677 453 OFFCURVE",
"604 141 OFFCURVE",
"604 78 CURVE SMOOTH",
"604 44 OFFCURVE",
"621 23 OFFCURVE",
"634 23 CURVE SMOOTH",
"645 23 OFFCURVE",
"675 188 OFFCURVE",
"712 320 CURVE SMOOTH",
"759 486 OFFCURVE",
"797 612 OFFCURVE",
"797 652 CURVE SMOOTH",
"797 675 OFFCURVE",
"768 701 OFFCURVE",
"751 701 CURVE SMOOTH",
"715 701 OFFCURVE",
"607 541 OFFCURVE",
"407 301 CURVE",
"341 440 OFFCURVE",
"277 591 OFFCURVE",
"269 643 CURVE SMOOTH"
);
}
);
width = 806;
}
);
unicode = 004D;
},
{
glyphname = N;
lastChange = "2014-11-17 07:04:19 +0000";
layers = (
{
anchors = (
{
name = top;
position = "{381, 743}";
}
);
layerId = UUID0;
name = Bold;
paths = (
{
closed = 1;
nodes = (
"624 694 OFFCURVE",
"565 750 OFFCURVE",
"524 750 CURVE SMOOTH",
"514 750 OFFCURVE",
"508 745 OFFCURVE",
"505 730 CURVE SMOOTH",
"489 649 OFFCURVE",
"468 420 OFFCURVE",
"416 266 CURVE",
"351 415 OFFCURVE",
"304 618 OFFCURVE",
"261 682 CURVE SMOOTH",
"241 711 OFFCURVE",
"198 745 OFFCURVE",
"175 745 CURVE SMOOTH",
"160 745 OFFCURVE",
"154 732 OFFCURVE",
"152 707 CURVE SMOOTH",
"142 584 OFFCURVE",
"32 174 OFFCURVE",
"32 108 CURVE SMOOTH",
"32 78 OFFCURVE",
"90 13 OFFCURVE",
"116 13 CURVE SMOOTH",
"149 13 OFFCURVE",
"190 232 OFFCURVE",
"234 432 CURVE",
"293 300 OFFCURVE",
"336 148 OFFCURVE",
"365 68 CURVE SMOOTH",
"377 36 OFFCURVE",
"419 13 OFFCURVE",
"436 13 CURVE SMOOTH",
"517 13 OFFCURVE",
"624 556 OFFCURVE",
"624 671 CURVE SMOOTH"
);
}
);
width = 631;
},
{
anchors = (
{
name = top;
position = "{410, 683}";
}
);
layerId = "6FA4A80C-3D50-4FAF-A835-1EC9F66A3889";
name = Light;
paths = (
{
closed = 1;
nodes = (
"656 676 OFFCURVE",
"631 708 OFFCURVE",
"615 708 CURVE SMOOTH",
"599 708 OFFCURVE",
"592 680 OFFCURVE",
"592 653 CURVE SMOOTH",
"592 601 OFFCURVE",
"587 331 OFFCURVE",
"491 88 CURVE",
"417 247 OFFCURVE",
"273 602 OFFCURVE",
"261 651 CURVE SMOOTH",
"253 683 OFFCURVE",
"226 708 OFFCURVE",
"216 708 CURVE SMOOTH",
"204 708 OFFCURVE",
"202 703 OFFCURVE",
"202 679 CURVE SMOOTH",
"202 563 OFFCURVE",
"64 136 OFFCURVE",
"64 64 CURVE SMOOTH",
"64 42 OFFCURVE",
"86 19 OFFCURVE",
"96 19 CURVE SMOOTH",
"108 19 OFFCURVE",
"115 70 OFFCURVE",
"241 546 CURVE",
"271 460 OFFCURVE",
"419 108 OFFCURVE",
"444 59 CURVE SMOOTH",
"456 35 OFFCURVE",
"475 19 OFFCURVE",
"490 19 CURVE SMOOTH",
"573 19 OFFCURVE",
"656 474 OFFCURVE",
"656 652 CURVE SMOOTH"
);
}
);
width = 702;
}
);
unicode = 004E;
},
{
glyphname = O;
lastChange = "2014-11-17 07:04:19 +0000";
layers = (
{
anchors = (
{
name = top;
position = "{454, 743}";
}
);
layerId = UUID0;
name = Bold;
paths = (
{
closed = 1;
nodes = (
"32 140 OFFCURVE",
"118 13 OFFCURVE",
"222 13 CURVE SMOOTH",
"429 13 OFFCURVE",
"607 284 OFFCURVE",
"607 471 CURVE SMOOTH",
"607 613 OFFCURVE",
"520 747 OFFCURVE",
"386 747 CURVE SMOOTH",
"242 747 OFFCURVE",
"32 487 OFFCURVE",
"32 230 CURVE SMOOTH"
);
},
{
closed = 1;
nodes = (
"437 616 OFFCURVE",
"465 567 OFFCURVE",
"465 461 CURVE SMOOTH",
"465 320 OFFCURVE",
"306 134 OFFCURVE",
"221 134 CURVE SMOOTH",
"197 134 OFFCURVE",
"179 172 OFFCURVE",
"179 230 CURVE SMOOTH",
"179 411 OFFCURVE",
"333 616 OFFCURVE",
"398 616 CURVE SMOOTH"
);
}
);
width = 619;
},
{
anchors = (
{
name = top;
position = "{455, 683}";
}
);
layerId = "6FA4A80C-3D50-4FAF-A835-1EC9F66A3889";
name = Light;
paths = (
{
closed = 1;
nodes = (
"66 127 OFFCURVE",
"130 19 OFFCURVE",
"218 19 CURVE SMOOTH",
"396 19 OFFCURVE",
"584 283 OFFCURVE",
"584 469 CURVE SMOOTH",
"584 589 OFFCURVE",
"507 708 OFFCURVE",
"402 708 CURVE SMOOTH",
"261 708 OFFCURVE",
"66 454 OFFCURVE",
"66 206 CURVE SMOOTH"
);
},
{
closed = 1;
nodes = (
"456 648 OFFCURVE",
"519 581 OFFCURVE",
"519 457 CURVE SMOOTH",
"519 306 OFFCURVE",
"338 75 OFFCURVE",
"227 75 CURVE SMOOTH",
"178 75 OFFCURVE",
"126 127 OFFCURVE",
"126 215 CURVE SMOOTH",
"126 419 OFFCURVE",
"316 648 OFFCURVE",
"404 648 CURVE SMOOTH"
);
}
);
width = 610;
}
);
unicode = 004F;
},
{
glyphname = P;
lastChange = "2014-11-17 07:04:19 +0000";
layers = (
{
layerId = UUID0;
name = Bold;
paths = (
{
closed = 1;
nodes = (
"125 384 OFFCURVE",
"22 190 OFFCURVE",
"22 119 CURVE SMOOTH",
"22 88 OFFCURVE",
"77 18 OFFCURVE",
"109 18 CURVE SMOOTH",
"133 18 OFFCURVE",
"154 102 OFFCURVE",
"191 229 CURVE SMOOTH",
"246 415 OFFCURVE",
"263 477 OFFCURVE",
"263 541 CURVE SMOOTH",
"263 601 OFFCURVE",
"189 680 OFFCURVE",
"157 680 CURVE SMOOTH",
"133 680 OFFCURVE",
"125 667 OFFCURVE",
"125 647 CURVE SMOOTH"
);
},
{
closed = 1;
nodes = (
"145 239 LINE",
"385 270 OFFCURVE",
"578 408 OFFCURVE",
"578 571 CURVE SMOOTH",
"578 684 OFFCURVE",
"483 770 OFFCURVE",
"319 770 CURVE SMOOTH",
"231 770 OFFCURVE",
"91 725 OFFCURVE",
"91 678 CURVE SMOOTH",
"91 656 OFFCURVE",
"145 583 OFFCURVE",
"186 583 CURVE SMOOTH",
"229 583 OFFCURVE",
"278 641 OFFCURVE",
"357 641 CURVE SMOOTH",
"400 641 OFFCURVE",
"436 611 OFFCURVE",
"436 568 CURVE SMOOTH",
"436 471 OFFCURVE",
"286 378 OFFCURVE",
"114 343 CURVE"
);
}
);
width = 549;
},
{
layerId = "6FA4A80C-3D50-4FAF-A835-1EC9F66A3889";
name = Light;
paths = (
{
closed = 1;
nodes = (
"190 503 OFFCURVE",
"54 128 OFFCURVE",
"54 57 CURVE SMOOTH",
"54 36 OFFCURVE",
"75 14 OFFCURVE",
"88 14 CURVE SMOOTH",
"98 14 OFFCURVE",
"143 165 OFFCURVE",
"179 288 CURVE SMOOTH",
"228 460 OFFCURVE",
"248 558 OFFCURVE",
"248 597 CURVE SMOOTH",
"248 633 OFFCURVE",
"223 665 OFFCURVE",
"206 665 CURVE SMOOTH",
"192 665 OFFCURVE",
"190 658 OFFCURVE",
"190 636 CURVE SMOOTH"
);
},
{
closed = 1;
nodes = (
"158 266 LINE",
"385 308 OFFCURVE",
"549 392 OFFCURVE",
"549 543 CURVE SMOOTH",
"549 645 OFFCURVE",
"459 708 OFFCURVE",
"352 708 CURVE SMOOTH",
"278 708 OFFCURVE",
"170 677 OFFCURVE",
"170 649 CURVE SMOOTH",
"170 631 OFFCURVE",
"188 615 OFFCURVE",
"204 615 CURVE SMOOTH",
"227 615 OFFCURVE",
"286 652 OFFCURVE",
"354 652 CURVE SMOOTH",
"431 652 OFFCURVE",
"490 604 OFFCURVE",
"490 536 CURVE SMOOTH",
"490 442 OFFCURVE",
"357 352 OFFCURVE",
"152 317 CURVE"
);
}
);
width = 539;
}
);
unicode = 0050;
},
{
glyphname = Q;
lastChange = "2014-11-17 07:04:19 +0000";
layers = (
{
layerId = UUID0;
name = Bold;
paths = (
{
closed = 1;
nodes = (
"32 140 OFFCURVE",
"175 13 OFFCURVE",
"279 13 CURVE SMOOTH",
"486 13 OFFCURVE",
"644 284 OFFCURVE",
"644 471 CURVE SMOOTH",
"644 613 OFFCURVE",
"520 747 OFFCURVE",
"386 747 CURVE SMOOTH",
"242 747 OFFCURVE",
"32 487 OFFCURVE",
"32 230 CURVE SMOOTH"
);
},
{
closed = 1;
nodes = (
"179 411 OFFCURVE",
"333 616 OFFCURVE",
"398 616 CURVE SMOOTH",
"437 616 OFFCURVE",
"502 567 OFFCURVE",
"502 461 CURVE SMOOTH",
"502 320 OFFCURVE",
"363 134 OFFCURVE",
"278 134 CURVE SMOOTH",
"254 134 OFFCURVE",
"179 172 OFFCURVE",
"179 230 CURVE SMOOTH"
);
},
{
closed = 1;
nodes = (
"540 -34 OFFCURVE",
"377 224 OFFCURVE",
"377 587 CURVE SMOOTH",
"377 607 OFFCURVE",
"400 621 OFFCURVE",
"418 628 CURVE",
"418 684 LINE",
"272 626 OFFCURVE",
"254 570 OFFCURVE",
"254 462 CURVE SMOOTH",
"254 348 OFFCURVE",
"394 -172 OFFCURVE",
"503 -172 CURVE SMOOTH",
"531 -172 OFFCURVE",
"540 -161 OFFCURVE",
"540 -131 CURVE SMOOTH"
);
}
);
width = 659;
},
{
layerId = "6FA4A80C-3D50-4FAF-A835-1EC9F66A3889";
name = Light;
paths = (
{
closed = 1;
nodes = (
"70 101 OFFCURVE",
"136 23 OFFCURVE",
"224 23 CURVE SMOOTH",
"413 23 OFFCURVE",
"587 280 OFFCURVE",
"587 469 CURVE SMOOTH",
"587 588 OFFCURVE",
"505 704 OFFCURVE",
"402 704 CURVE SMOOTH",
"258 704 OFFCURVE",
"70 463 OFFCURVE",
"70 206 CURVE SMOOTH"
);
},
{
closed = 1;
nodes = (
"127 416 OFFCURVE",
"292 646 OFFCURVE",
"406 646 CURVE SMOOTH",
"460 646 OFFCURVE",
"523 580 OFFCURVE",
"523 461 CURVE SMOOTH",
"523 302 OFFCURVE",
"349 76 OFFCURVE",
"230 76 CURVE SMOOTH",
"176 76 OFFCURVE",
"127 127 OFFCURVE",
"127 216 CURVE SMOOTH"
);
},
{
closed = 1;
nodes = (
"486 -56 OFFCURVE",
"327 185 OFFCURVE",
"327 501 CURVE SMOOTH",
"327 591 OFFCURVE",
"344 650 OFFCURVE",
"389 665 CURVE",
"372 678 LINE",
"317 655 OFFCURVE",
"268 586 OFFCURVE",
"268 485 CURVE SMOOTH",
"268 270 OFFCURVE",
"413 -121 OFFCURVE",
"467 -121 CURVE SMOOTH",
"475 -121 OFFCURVE",
"486 -118 OFFCURVE",
"486 -108 CURVE SMOOTH"
);
}
);
width = 631;
}
);
unicode = 0051;
},
{
glyphname = R;
lastChange = "2014-11-17 07:04:19 +0000";
layers = (
{
anchors = (
{
name = top;
position = "{367, 743}";
}
);
layerId = UUID0;
name = Bold;
paths = (
{
closed = 1;
nodes = (
"581 674 OFFCURVE",
"480 744 OFFCURVE",
"337 744 CURVE SMOOTH",
"203 744 OFFCURVE",
"87 685 OFFCURVE",
"87 648 CURVE SMOOTH",
"87 616 OFFCURVE",
"131 549 OFFCURVE",
"162 549 CURVE SMOOTH",
"211 549 OFFCURVE",
"265 603 OFFCURVE",
"345 603 CURVE SMOOTH",
"405 603 OFFCURVE",
"427 587 OFFCURVE",
"427 561 CURVE SMOOTH",
"427 447 OFFCURVE",
"209 387 OFFCURVE",
"210 320 CURVE SMOOTH",
"211 220 OFFCURVE",
"375 8 OFFCURVE",
"510 8 CURVE SMOOTH",
"552 8 OFFCURVE",
"567 26 OFFCURVE",
"567 49 CURVE SMOOTH",
"567 78 OFFCURVE",
"504 125 OFFCURVE",
"443 185 CURVE SMOOTH",
"394 234 OFFCURVE",
"368 260 OFFCURVE",
"368 295 CURVE SMOOTH",
"368 321 OFFCURVE",
"581 403 OFFCURVE",
"581 571 CURVE SMOOTH"
);
},
{
closed = 1;
nodes = (
"35 78 OFFCURVE",
"91 8 OFFCURVE",
"123 8 CURVE SMOOTH",
"147 8 OFFCURVE",
"168 92 OFFCURVE",
"205 199 CURVE SMOOTH",
"268 382 OFFCURVE",
"277 447 OFFCURVE",
"277 511 CURVE SMOOTH",
"277 571 OFFCURVE",
"202 650 OFFCURVE",
"170 650 CURVE SMOOTH",
"146 650 OFFCURVE",
"138 637 OFFCURVE",
"138 617 CURVE SMOOTH",
"138 354 OFFCURVE",
"35 180 OFFCURVE",
"35 109 CURVE SMOOTH"
);
}
);
width = 601;
},
{
anchors = (
{
name = top;
position = "{379, 683}";
}
);
layerId = "6FA4A80C-3D50-4FAF-A835-1EC9F66A3889";
name = Light;
paths = (
{
closed = 1;
nodes = (
"540 668 OFFCURVE",
"448 708 OFFCURVE",
"338 708 CURVE SMOOTH",
"264 708 OFFCURVE",
"156 676 OFFCURVE",
"156 649 CURVE SMOOTH",
"156 631 OFFCURVE",
"175 609 OFFCURVE",
"189 609 CURVE SMOOTH",
"214 609 OFFCURVE",
"277 647 OFFCURVE",
"360 647 CURVE SMOOTH",
"428 647 OFFCURVE",
"482 625 OFFCURVE",
"482 575 CURVE SMOOTH",
"482 428 OFFCURVE",
"177 377 OFFCURVE",
"177 324 CURVE SMOOTH",
"177 250 OFFCURVE",
"430 22 OFFCURVE",
"496 22 CURVE SMOOTH",
"512 22 OFFCURVE",
"516 26 OFFCURVE",
"516 37 CURVE SMOOTH",
"516 57 OFFCURVE",
"458 97 OFFCURVE",
"403 144 CURVE SMOOTH",
"338 201 OFFCURVE",
"243 288 OFFCURVE",
"243 314 CURVE SMOOTH",
"243 340 OFFCURVE",
"540 390 OFFCURVE",
"540 570 CURVE SMOOTH"
);
},
{
closed = 1;
nodes = (
"54 41 OFFCURVE",
"74 20 OFFCURVE",
"87 20 CURVE SMOOTH",
"96 20 OFFCURVE",
"133 165 OFFCURVE",
"168 288 CURVE SMOOTH",
"217 460 OFFCURVE",
"237 558 OFFCURVE",
"237 597 CURVE SMOOTH",
"237 633 OFFCURVE",
"212 665 OFFCURVE",
"196 665 CURVE SMOOTH",
"183 665 OFFCURVE",
"181 659 OFFCURVE",
"181 636 CURVE SMOOTH",
"181 503 OFFCURVE",
"54 134 OFFCURVE",
"54 63 CURVE SMOOTH"
);
}
);
width = 575;
}
);
unicode = 0052;
},
{
glyphname = S;
lastChange = "2014-11-17 07:04:19 +0000";
layers = (
{
anchors = (
{
name = cedilla;
position = "{191, 0}";
},
{
name = top;
position = "{400, 743}";
}
);
layerId = UUID0;
name = Bold;
paths = (
{
closed = 1;
nodes = (
"373 13 OFFCURVE",
"499 106 OFFCURVE",
"499 220 CURVE SMOOTH",
"499 365 OFFCURVE",
"276 478 OFFCURVE",
"276 518 CURVE SMOOTH",
"276 540 OFFCURVE",
"322 561 OFFCURVE",
"397 590 CURVE SMOOTH",
"465 616 OFFCURVE",
"552 616 OFFCURVE",
"552 648 CURVE SMOOTH",
"552 690 OFFCURVE",
"518 748 OFFCURVE",
"464 748 CURVE SMOOTH",
"377 748 OFFCURVE",
"246 689 OFFCURVE",
"174 618 CURVE SMOOTH",
"151 598 OFFCURVE",
"134 539 OFFCURVE",
"134 497 CURVE SMOOTH",
"134 427 OFFCURVE",
"360 275 OFFCURVE",
"360 222 CURVE SMOOTH",
"360 191 OFFCURVE",
"271 130 OFFCURVE",
"214 130 CURVE SMOOTH",
"121 130 OFFCURVE",
"92 226 OFFCURVE",
"33 226 CURVE SMOOTH",
"11 226 OFFCURVE",
"2 202 OFFCURVE",
"2 172 CURVE SMOOTH",
"2 106 OFFCURVE",
"86 13 OFFCURVE",
"227 13 CURVE SMOOTH"
);
}
);
width = 552;
},
{
anchors = (
{
name = cedilla;
position = "{209, 0}";
},
{
name = top;
position = "{350, 683}";
}
);
layerId = "6FA4A80C-3D50-4FAF-A835-1EC9F66A3889";
name = Light;
paths = (
{
closed = 1;
nodes = (
"344 25 OFFCURVE",
"452 103 OFFCURVE",
"452 211 CURVE",
"452 323 OFFCURVE",
"210 477 OFFCURVE",
"210 523 CURVE SMOOTH",
"210 552 OFFCURVE",
"247 585 OFFCURVE",
"321 615 CURVE SMOOTH",
"411 652 OFFCURVE",
"485 648 OFFCURVE",
"485 666 CURVE SMOOTH",
"485 683 OFFCURVE",
"461 704 OFFCURVE",
"426 704 CURVE",
"360 704 OFFCURVE",
"225 649 OFFCURVE",
"182 597 CURVE SMOOTH",
"169 581 OFFCURVE",
"154 544 OFFCURVE",
"154 521 CURVE SMOOTH",
"154 430 OFFCURVE",
"387 302 OFFCURVE",
"387 208 CURVE SMOOTH",
"387 140 OFFCURVE",
"308 82 OFFCURVE",
"191 82 CURVE SMOOTH",
"89 82 OFFCURVE",
"40 177 OFFCURVE",
"18 177 CURVE",
"9 177 OFFCURVE",
"6 171 OFFCURVE",
"6 160 CURVE",
"6 116 OFFCURVE",
"92 25 OFFCURVE",
"207 25 CURVE SMOOTH"
);
}
);
width = 519;
}
);
unicode = 0053;
},
{
glyphname = T;
lastChange = "2014-11-17 07:04:19 +0000";
layers = (
{
anchors = (
{
name = cedilla;
position = "{193, 0}";
},
{
name = top;
position = "{365, 743}";
}
);
layerId = UUID0;
name = Bold;
paths = (
{
closed = 1;
nodes = (
"249 471 OFFCURVE",
"153 190 OFFCURVE",
"153 119 CURVE SMOOTH",
"153 88 OFFCURVE",
"208 18 OFFCURVE",
"237 18 CURVE SMOOTH",
"259 18 OFFCURVE",
"273 99 OFFCURVE",
"300 229 CURVE SMOOTH",
"337 405 OFFCURVE",
"380 537 OFFCURVE",
"380 579 CURVE SMOOTH",
"380 639 OFFCURVE",
"307 717 OFFCURVE",
"278 717 CURVE SMOOTH",
"256 717 OFFCURVE",
"249 704 OFFCURVE",
"249 684 CURVE SMOOTH"
);
},
{
closed = 1;
nodes = (
"208 737 OFFCURVE",
"55 730 OFFCURVE",
"55 688 CURVE SMOOTH",
"55 644 OFFCURVE",
"96 597 OFFCURVE",
"127 597 CURVE SMOOTH",
"177 597 OFFCURVE",
"235 605 OFFCURVE",
"324 605 CURVE SMOOTH",
"454 605 OFFCURVE",
"518 598 OFFCURVE",
"569 598 CURVE SMOOTH",
"604 598 OFFCURVE",
"624 618 OFFCURVE",
"624 634 CURVE SMOOTH",
"624 684 OFFCURVE",
"550 737 OFFCURVE",
"340 737 CURVE SMOOTH"
);
}
);
width = 544;
},
{
anchors = (
{
name = cedilla;
position = "{224, 0}";
},
{
name = top;
position = "{361, 883}";
}
);
layerId = "6FA4A80C-3D50-4FAF-A835-1EC9F66A3889";
name = Light;
paths = (
{
closed = 1;
nodes = (
"306 540 OFFCURVE",
"174 135 OFFCURVE",
"174 63 CURVE SMOOTH",
"174 41 OFFCURVE",
"196 20 OFFCURVE",
"209 20 CURVE SMOOTH",
"226 20 OFFCURVE",
"254 165 OFFCURVE",
"288 288 CURVE SMOOTH",
"335 459 OFFCURVE",
"364 591 OFFCURVE",
"364 628 CURVE SMOOTH",
"364 664 OFFCURVE",
"336 698 OFFCURVE",
"320 698 CURVE SMOOTH",
"308 698 OFFCURVE",
"306 693 OFFCURVE",
"306 669 CURVE SMOOTH"
);
},
{
closed = 1;
nodes = (
"73 701 OFFCURVE",
"67 701 OFFCURVE",
"67 685 CURVE SMOOTH",
"67 669 OFFCURVE",
"90 639 OFFCURVE",
"106 639 CURVE SMOOTH",
"152 639 OFFCURVE",
"271 648 OFFCURVE",
"335 648 CURVE SMOOTH",
"466 648 OFFCURVE",
"490 638 OFFCURVE",
"566 638 CURVE SMOOTH",
"586 638 OFFCURVE",
"594 640 OFFCURVE",
"594 648 CURVE SMOOTH",
"594 671 OFFCURVE",
"496 701 OFFCURVE",
"390 701 CURVE SMOOTH"
);
}
);
width = 530;
}
);
unicode = 0054;
},
{
glyphname = U;
lastChange = "2014-11-17 07:04:19 +0000";
layers = (
{
anchors = (
{
name = ogonek;
position = "{255, 23}";
},
{
name = top;
position = "{327, 743}";
}
);
layerId = UUID0;
name = Bold;
paths = (
{
closed = 1;
nodes = (
"272 694 OFFCURVE",
"198 747 OFFCURVE",
"170 747 CURVE SMOOTH",
"147 747 OFFCURVE",
"140 734 OFFCURVE",
"140 714 CURVE SMOOTH",
"140 623 OFFCURVE",
"60 425 OFFCURVE",
"60 229 CURVE SMOOTH",
"60 143 OFFCURVE",
"147 12 OFFCURVE",
"240 12 CURVE SMOOTH",
"449 12 OFFCURVE",
"590 358 OFFCURVE",
"590 574 CURVE SMOOTH",
"590 672 OFFCURVE",
"490 748 OFFCURVE",
"457 748 CURVE SMOOTH",
"437 748 OFFCURVE",
"431 736 OFFCURVE",
"431 717 CURVE SMOOTH",
"431 684 OFFCURVE",
"444 668 OFFCURVE",
"444 569 CURVE SMOOTH",
"444 354 OFFCURVE",
"318 151 OFFCURVE",
"250 151 CURVE SMOOTH",
"217 151 OFFCURVE",
"200 199 OFFCURVE",
"200 249 CURVE SMOOTH",
"200 374 OFFCURVE",
"272 563 OFFCURVE",
"272 635 CURVE SMOOTH"
);
}
);
width = 595;
},
{
anchors = (
{
name = ogonek;
position = "{286, 40}";
},
{
name = top;
position = "{354, 683}";
}
);
layerId = "6FA4A80C-3D50-4FAF-A835-1EC9F66A3889";
name = Light;
paths = (
{
closed = 1;
nodes = (
"245 671 OFFCURVE",
"214 704 OFFCURVE",
"199 704 CURVE SMOOTH",
"187 704 OFFCURVE",
"185 699 OFFCURVE",
"185 675 CURVE SMOOTH",
"185 531 OFFCURVE",
"99 336 OFFCURVE",
"99 193 CURVE SMOOTH",
"99 96 OFFCURVE",
"157 10 OFFCURVE",
"242 10 CURVE SMOOTH",
"398 10 OFFCURVE",
"558 243 OFFCURVE",
"558 608 CURVE SMOOTH",
"558 679 OFFCURVE",
"519 704 OFFCURVE",
"502 704 CURVE SMOOTH",
"491 704 OFFCURVE",
"488 701 OFFCURVE",
"488 688 CURVE SMOOTH",
"488 658 OFFCURVE",
"495 618 OFFCURVE",
"495 558 CURVE SMOOTH",
"495 286 OFFCURVE",
"344 66 OFFCURVE",
"249 66 CURVE SMOOTH",
"195 66 OFFCURVE",
"158 119 OFFCURVE",
"158 207 CURVE SMOOTH",
"158 308 OFFCURVE",
"245 542 OFFCURVE",
"245 636 CURVE SMOOTH"
);
}
);
width = 599;
}
);
unicode = 0055;
},
{
glyphname = V;
lastChange = "2014-11-17 07:04:19 +0000";
layers = (
{
layerId = UUID0;
name = Bold;
paths = (
{
closed = 1;
nodes = (
"179 705 OFFCURVE",
"123 745 OFFCURVE",
"80 745 CURVE SMOOTH",
"65 745 OFFCURVE",
"53 733 OFFCURVE",
"53 701 CURVE SMOOTH",
"53 631 OFFCURVE",
"137 188 OFFCURVE",
"178 80 CURVE SMOOTH",
"190 49 OFFCURVE",
"237 14 OFFCURVE",
"255 14 CURVE SMOOTH",
"314 14 OFFCURVE",
"359 171 OFFCURVE",
"443 341 CURVE SMOOTH",
"524 506 OFFCURVE",
"597 629 OFFCURVE",
"597 681 CURVE SMOOTH",
"597 712 OFFCURVE",
"548 745 OFFCURVE",
"512 745 CURVE SMOOTH",
"470 745 OFFCURVE",
"394 596 OFFCURVE",
"249 195 CURVE",
"269 195 LINE",
"234 366 OFFCURVE",
"225 590 OFFCURVE",
"206 639 CURVE SMOOTH"
);
}
);
width = 532;
},
{
layerId = "6FA4A80C-3D50-4FAF-A835-1EC9F66A3889";
name = Light;
paths = (
{
closed = 1;
nodes = (
"130 678 OFFCURVE",
"108 704 OFFCURVE",
"89 704 CURVE SMOOTH",
"81 704 OFFCURVE",
"78 696 OFFCURVE",
"78 680 CURVE SMOOTH",
"78 611 OFFCURVE",
"155 164 OFFCURVE",
"192 76 CURVE SMOOTH",
"206 43 OFFCURVE",
"220 12 OFFCURVE",
"237 12 CURVE SMOOTH",
"264 12 OFFCURVE",
"304 133 OFFCURVE",
"422 366 CURVE SMOOTH",
"524 570 OFFCURVE",
"591 641 OFFCURVE",
"591 682 CURVE SMOOTH",
"591 693 OFFCURVE",
"575 704 OFFCURVE",
"563 704 CURVE SMOOTH",
"517 704 OFFCURVE",
"279 234 OFFCURVE",
"233 84 CURVE",
"248 80 LINE",
"176 300 OFFCURVE",
"161 576 OFFCURVE",
"141 643 CURVE SMOOTH"
);
}
);
width = 532;
}
);
unicode = 0056;
},
{
glyphname = W;
lastChange = "2014-11-17 07:04:19 +0000";
layers = (
{
layerId = UUID0;
name = Bold;
paths = (
{
closed = 1;
nodes = (
"744 585 OFFCURVE",
"671 747 OFFCURVE",
"466 747 CURVE SMOOTH",
"432 747 OFFCURVE",
"411 735 OFFCURVE",
"411 702 CURVE SMOOTH",
"411 673 OFFCURVE",
"451 613 OFFCURVE",
"495 613 CURVE SMOOTH",
"573 613 OFFCURVE",
"601 529 OFFCURVE",
"601 426 CURVE SMOOTH",
"601 304 OFFCURVE",
"555 164 OFFCURVE",
"501 164 CURVE SMOOTH",
"438 164 OFFCURVE",
"463 430 OFFCURVE",
"413 430 CURVE SMOOTH",
"355 430 OFFCURVE",
"238 317 OFFCURVE",
"173 162 CURVE",
"191 166 LINE",
"191 335 OFFCURVE",
"263 574 OFFCURVE",
"263 625 CURVE SMOOTH",
"263 682 OFFCURVE",
"170 745 OFFCURVE",
"126 745 CURVE SMOOTH",
"110 745 OFFCURVE",
"100 733 OFFCURVE",
"100 703 CURVE SMOOTH",
"100 404 OFFCURVE",
"58 284 OFFCURVE",
"58 107 CURVE SMOOTH",
"58 60 OFFCURVE",
"133 13 OFFCURVE",
"153 13 CURVE SMOOTH",
"191 13 OFFCURVE",
"253 69 OFFCURVE",
"325 176 CURVE SMOOTH",
"369 240 OFFCURVE",
"393 273 OFFCURVE",
"425 327 CURVE",
"352 305 LINE",
"353 123 OFFCURVE",
"391 13 OFFCURVE",
"495 13 CURVE SMOOTH",
"632 13 OFFCURVE",
"744 222 OFFCURVE",
"744 410 CURVE SMOOTH"
);
}
);
width = 785;
},
{
layerId = "6FA4A80C-3D50-4FAF-A835-1EC9F66A3889";
name = Light;
paths = (
{
closed = 1;
nodes = (
"730 557 OFFCURVE",
"659 704 OFFCURVE",
"515 704 CURVE SMOOTH",
"485 704 OFFCURVE",
"471 699 OFFCURVE",
"471 683 CURVE SMOOTH",
"471 668 OFFCURVE",
"503 634 OFFCURVE",
"539 634 CURVE SMOOTH",
"627 634 OFFCURVE",
"670 495 OFFCURVE",
"670 392 CURVE SMOOTH",
"670 239 OFFCURVE",
"599 86 OFFCURVE",
"510 86 CURVE SMOOTH",
"432 86 OFFCURVE",
"456 404 OFFCURVE",
"394 404 CURVE SMOOTH",
"354 404 OFFCURVE",
"208 217 OFFCURVE",
"126 86 CURVE",
"133 84 LINE",
"149 288 OFFCURVE",
"211 598 OFFCURVE",
"211 649 CURVE SMOOTH",
"211 675 OFFCURVE",
"177 704 OFFCURVE",
"160 704 CURVE SMOOTH",
"148 704 OFFCURVE",
"140 696 OFFCURVE",
"140 669 CURVE SMOOTH",
"140 509 OFFCURVE",
"80 186 OFFCURVE",
"80 99 CURVE SMOOTH",
"80 56 OFFCURVE",
"100 22 OFFCURVE",
"118 22 CURVE SMOOTH",
"138 22 OFFCURVE",
"168 48 OFFCURVE",
"261 172 CURVE SMOOTH",
"300 224 OFFCURVE",
"341 283 OFFCURVE",
"389 344 CURVE",
"380 343 LINE",
"393 167 OFFCURVE",
"417 24 OFFCURVE",
"510 24 CURVE SMOOTH",
"627 24 OFFCURVE",
"730 200 OFFCURVE",
"730 383 CURVE SMOOTH"
);
}
);
width = 780;
}
);
unicode = 0057;
},
{
glyphname = X;
lastChange = "2014-11-17 07:04:19 +0000";
layers = (
{
layerId = UUID0;
name = Bold;
paths = (
{
closed = 1;
nodes = (
"235 722 OFFCURVE",
"149 747 OFFCURVE",
"100 747 CURVE SMOOTH",
"82 747 OFFCURVE",
"82 719 OFFCURVE",
"82 702 CURVE SMOOTH",
"82 580 OFFCURVE",
"373 12 OFFCURVE",
"468 12 CURVE SMOOTH",
"493 12 OFFCURVE",
"519 30 OFFCURVE",
"519 66 CURVE SMOOTH",
"519 125 OFFCURVE",
"235 506 OFFCURVE",
"235 689 CURVE SMOOTH"
);
},
{
closed = 1;
nodes = (
"581 613 OFFCURVE",
"618 614 OFFCURVE",
"618 640 CURVE SMOOTH",
"618 675 OFFCURVE",
"558 736 OFFCURVE",
"534 736 CURVE SMOOTH",
"485 736 OFFCURVE",
"437 702 OFFCURVE",
"292 477 CURVE SMOOTH",
"183 307 OFFCURVE",
"61 157 OFFCURVE",
"22 113 CURVE SMOOTH",
"7 96 OFFCURVE",
"-1 90 OFFCURVE",
"-1 77 CURVE SMOOTH",
"-1 50 OFFCURVE",
"51 13 OFFCURVE",
"90 13 CURVE SMOOTH",
"158 13 OFFCURVE",
"293 245 OFFCURVE",
"360 334 CURVE SMOOTH",
"461 468 OFFCURVE",
"508 522 OFFCURVE",
"551 576 CURVE SMOOTH"
);
}
);
width = 585;
},
{
layerId = "6FA4A80C-3D50-4FAF-A835-1EC9F66A3889";
name = Light;
paths = (
{
closed = 1;
nodes = (
"215 685 OFFCURVE",
"184 704 OFFCURVE",
"156 704 CURVE SMOOTH",
"148 704 OFFCURVE",
"144 700 OFFCURVE",
"144 686 CURVE SMOOTH",
"144 498 OFFCURVE",
"465 23 OFFCURVE",
"526 23 CURVE SMOOTH",
"531 23 OFFCURVE",
"539 29 OFFCURVE",
"539 44 CURVE SMOOTH",
"539 112 OFFCURVE",
"215 457 OFFCURVE",
"215 661 CURVE SMOOTH"
);
},
{
closed = 1;
nodes = (
"613 648 OFFCURVE",
"631 659 OFFCURVE",
"631 669 CURVE SMOOTH",
"631 680 OFFCURVE",
"606 704 OFFCURVE",
"595 704 CURVE SMOOTH",
"566 704 OFFCURVE",
"522 656 OFFCURVE",
"362 445 CURVE SMOOTH",
"235 277 OFFCURVE",
"109 127 OFFCURVE",
"63 80 CURVE SMOOTH",
"47 63 OFFCURVE",
"39 59 OFFCURVE",
"39 47 CURVE SMOOTH",
"39 37 OFFCURVE",
"56 23 OFFCURVE",
"66 23 CURVE SMOOTH",
"108 23 OFFCURVE",
"157 96 OFFCURVE",
"354 343 CURVE SMOOTH",
"477 499 OFFCURVE",
"555 603 OFFCURVE",
"588 629 CURVE SMOOTH"
);
}
);
width = 645;
}
);
unicode = 0058;
},
{
glyphname = Y;
lastChange = "2014-11-17 07:04:19 +0000";
layers = (
{
anchors = (
{
name = top;
position = "{336, 743}";
}
);
layerId = UUID0;
name = Bold;
paths = (
{
closed = 1;
nodes = (
"282 404 OFFCURVE",
"244 468 OFFCURVE",
"217 541 CURVE SMOOTH",
"185 627 OFFCURVE",
"193 747 OFFCURVE",
"143 747 CURVE SMOOTH",
"83 747 OFFCURVE",
"74 703 OFFCURVE",
"74 631 CURVE SMOOTH",
"74 507 OFFCURVE",
"132 335 OFFCURVE",
"255 287 CURVE",
"216 212 OFFCURVE",
"162 116 OFFCURVE",
"162 77 CURVE SMOOTH",
"162 35 OFFCURVE",
"177 13 OFFCURVE",
"202 13 CURVE SMOOTH",
"243 13 OFFCURVE",
"287 74 OFFCURVE",
"300 101 CURVE SMOOTH",
"406 318 OFFCURVE",
"607 573 OFFCURVE",
"607 642 CURVE SMOOTH",
"607 697 OFFCURVE",
"575 747 OFFCURVE",
"528 747 CURVE SMOOTH",
"473 747 OFFCURVE",
"347 404 OFFCURVE",
"302 404 CURVE SMOOTH"
);
}
);
width = 561;
},
{
anchors = (
{
name = top;
position = "{343, 683}";
}
);
layerId = "6FA4A80C-3D50-4FAF-A835-1EC9F66A3889";
name = Light;
paths = (
{
closed = 1;
nodes = (
"310 356 OFFCURVE",
"256 390 OFFCURVE",
"212 477 CURVE SMOOTH",
"157 583 OFFCURVE",
"155 700 OFFCURVE",
"126 700 CURVE SMOOTH",
"112 700 OFFCURVE",
"101 679 OFFCURVE",
"101 650 CURVE SMOOTH",
"101 514 OFFCURVE",
"205 322 OFFCURVE",
"328 300 CURVE",
"262 174 OFFCURVE",
"205 66 OFFCURVE",
"205 28 CURVE SMOOTH",
"205 13 OFFCURVE",
"209 7 OFFCURVE",
"217 7 CURVE SMOOTH",
"246 7 OFFCURVE",
"293 113 OFFCURVE",
"396 303 CURVE SMOOTH",
"494 485 OFFCURVE",
"607 642 OFFCURVE",
"607 674 CURVE SMOOTH",
"607 691 OFFCURVE",
"597 700 OFFCURVE",
"577 700 CURVE SMOOTH",
"530 700 OFFCURVE",
"383 356 OFFCURVE",
"341 356 CURVE SMOOTH"
);
}
);
width = 582;
}
);
unicode = 0059;
},
{
glyphname = bracketleft;
lastChange = "2014-11-17 07:04:19 +0000";
layers = (
{
layerId = UUID0;
name = Bold;
paths = (
{
closed = 1;
nodes = (
"598 813 OFFCURVE",
"501 819 OFFCURVE",
"423 819 CURVE SMOOTH",
"264 819 OFFCURVE",
"253 811 OFFCURVE",
"253 757 CURVE SMOOTH",
"253 717 OFFCURVE",
"282 674 OFFCURVE",
"304 674 CURVE SMOOTH",
"331 674 OFFCURVE",
"381 695 OFFCURVE",
"420 705 CURVE SMOOTH",
"493 723 OFFCURVE",
"598 715 OFFCURVE",
"598 771 CURVE SMOOTH"
);
},
{
closed = 1;
nodes = (
"391 751 OFFCURVE",
"320 797 OFFCURVE",
"292 797 CURVE SMOOTH",
"275 797 OFFCURVE",
"254 779 OFFCURVE",
"254 767 CURVE SMOOTH",
"254 603 OFFCURVE",
"65 112 OFFCURVE",
"65 25 CURVE SMOOTH",
"65 -28 OFFCURVE",
"129 -82 OFFCURVE",
"195 -82 CURVE SMOOTH",
"274 -82 OFFCURVE",
"423 -6 OFFCURVE",
"423 36 CURVE SMOOTH",
"423 53 OFFCURVE",
"419 65 OFFCURVE",
"398 65 CURVE SMOOTH",
"373 65 OFFCURVE",
"283 49 OFFCURVE",
"230 49 CURVE SMOOTH",
"220 49 OFFCURVE",
"218 49 OFFCURVE",
"218 55 CURVE SMOOTH",
"218 84 OFFCURVE",
"249 177 OFFCURVE",
"276 256 CURVE SMOOTH",
"329 411 OFFCURVE",
"391 597 OFFCURVE",
"391 705 CURVE SMOOTH"
);
}
);
width = 463;
},
{
layerId = "6FA4A80C-3D50-4FAF-A835-1EC9F66A3889";
name = Light;
paths = (
{
closed = 1;
nodes = (
"524 790 OFFCURVE",
"468 793 OFFCURVE",
"428 793 CURVE SMOOTH",
"368 793 OFFCURVE",
"280 786 OFFCURVE",
"278 761 CURVE SMOOTH",
"278 749 OFFCURVE",
"296 727 OFFCURVE",
"310 727 CURVE SMOOTH",
"328 727 OFFCURVE",
"345 731 OFFCURVE",
"384 735 CURVE SMOOTH",
"500 747 OFFCURVE",
"524 749 OFFCURVE",
"524 766 CURVE SMOOTH"
);
},
{
closed = 1;
nodes = (
"335 741 OFFCURVE",
"310 772 OFFCURVE",
"294 772 CURVE SMOOTH",
"285 772 OFFCURVE",
"275 763 OFFCURVE",
"275 742 CURVE SMOOTH",
"275 622 OFFCURVE",
"81 98 OFFCURVE",
"81 15 CURVE SMOOTH",
"81 -29 OFFCURVE",
"130 -56 OFFCURVE",
"186 -56 CURVE SMOOTH",
"228 -56 OFFCURVE",
"329 -33 OFFCURVE",
"329 1 CURVE SMOOTH",
"329 9 OFFCURVE",
"325 13 OFFCURVE",
"314 13 CURVE SMOOTH",
"289 13 OFFCURVE",
"221 2 OFFCURVE",
"171 2 CURVE SMOOTH",
"155 2 OFFCURVE",
"145 11 OFFCURVE",
"145 27 CURVE SMOOTH",
"145 44 OFFCURVE",
"154 78 OFFCURVE",
"213 267 CURVE SMOOTH",
"261 419 OFFCURVE",
"335 667 OFFCURVE",
"335 709 CURVE SMOOTH"
);
}
);
width = 448;
}
);
unicode = 005B;
},
{
glyphname = bracketright;
lastChange = "2014-11-17 07:04:19 +0000";
layers = (
{
layerId = UUID0;
name = Bold;
paths = (
{
closed = 1;
nodes = (
"131 650 OFFCURVE",
"168 644 OFFCURVE",
"204 644 CURVE SMOOTH",
"244 644 OFFCURVE",
"281 649 OFFCURVE",
"318 649 CURVE SMOOTH",
"382 649 OFFCURVE",
"398 644 OFFCURVE",
"437 644 CURVE SMOOTH",
"469 644 OFFCURVE",
"498 667 OFFCURVE",
"498 707 CURVE SMOOTH",
"498 765 OFFCURVE",
"414 768 OFFCURVE",
"328 768 CURVE SMOOTH",
"212 768 OFFCURVE",
"131 727 OFFCURVE",
"131 676 CURVE SMOOTH"
);
},
{
closed = 1;
nodes = (
"22 -27 OFFCURVE",
"143 -78 OFFCURVE",
"222 -78 CURVE SMOOTH",
"316 -78 OFFCURVE",
"357 -57 OFFCURVE",
"374 17 CURVE SMOOTH",
"410 182 OFFCURVE",
"498 544 OFFCURVE",
"498 714 CURVE SMOOTH",
"498 727 OFFCURVE",
"477 744 OFFCURVE",
"460 744 CURVE SMOOTH",
"432 744 OFFCURVE",
"336 696 OFFCURVE",
"336 651 CURVE SMOOTH",
"336 464 OFFCURVE",
"223 83 OFFCURVE",
"222 68 CURVE SMOOTH",
"221 55 OFFCURVE",
"208 53 OFFCURVE",
"189 53 CURVE SMOOTH",
"138 53 OFFCURVE",
"110 63 OFFCURVE",
"61 63 CURVE SMOOTH",
"40 63 OFFCURVE",
"22 55 OFFCURVE",
"22 33 CURVE SMOOTH"
);
}
);
width = 521;
},
{
layerId = "6FA4A80C-3D50-4FAF-A835-1EC9F66A3889";
name = Light;
paths = (
{
closed = 1;
nodes = (
"126 699 OFFCURVE",
"137 694 OFFCURVE",
"155 691 CURVE SMOOTH",
"175 688 OFFCURVE",
"203 687 OFFCURVE",
"231 687 CURVE SMOOTH",
"299 687 OFFCURVE",
"313 682 OFFCURVE",
"341 682 CURVE SMOOTH",
"356 682 OFFCURVE",
"362 700 OFFCURVE",
"362 713 CURVE SMOOTH",
"362 732 OFFCURVE",
"340 747 OFFCURVE",
"277 747 CURVE SMOOTH",
"220 747 OFFCURVE",
"126 737 OFFCURVE",
"126 709 CURVE SMOOTH"
);
},
{
closed = 1;
nodes = (
"-19 -43 OFFCURVE",
"73 -73 OFFCURVE",
"132 -73 CURVE SMOOTH",
"192 -73 OFFCURVE",
"216 -50 OFFCURVE",
"228 -4 CURVE SMOOTH",
"257 112 OFFCURVE",
"362 581 OFFCURVE",
"362 702 CURVE SMOOTH",
"362 723 OFFCURVE",
"353 732 OFFCURVE",
"344 732 CURVE SMOOTH",
"327 732 OFFCURVE",
"299 700 OFFCURVE",
"299 668 CURVE SMOOTH",
"299 590 OFFCURVE",
"179 66 OFFCURVE",
"164 11 CURVE SMOOTH",
"160 -6 OFFCURVE",
"152 -15 OFFCURVE",
"135 -15 CURVE SMOOTH",
"86 -15 OFFCURVE",
"25 -1 OFFCURVE",
"-3 -1 CURVE SMOOTH",
"-14 -1 OFFCURVE",
"-19 -4 OFFCURVE",
"-19 -13 CURVE SMOOTH"
);
}
);
width = 411;
}
);
unicode = 005D;
},
{
glyphname = asciicircum;
lastChange = "2014-11-17 07:04:19 +0000";
layers = (
{
layerId = UUID0;
name = Bold;
paths = (
{
closed = 1;
nodes = (
"15 556 OFFCURVE",
"58 523 OFFCURVE",
"91 523 CURVE SMOOTH",
"124 523 OFFCURVE",
"132 572 OFFCURVE",
"166 635 CURVE SMOOTH",
"201 700 OFFCURVE",
"225 723 OFFCURVE",
"265 761 CURVE",
"227 749 LINE",
"272 671 OFFCURVE",
"354 528 OFFCURVE",
"398 528 CURVE SMOOTH",
"416 528 OFFCURVE",
"423 534 OFFCURVE",
"423 551 CURVE SMOOTH",
"423 568 OFFCURVE",
"409 603 OFFCURVE",
"381 669 CURVE SMOOTH",
"332 782 OFFCURVE",
"329 834 OFFCURVE",
"308 849 CURVE SMOOTH",
"293 859 OFFCURVE",
"248 882 OFFCURVE",
"216 882 CURVE SMOOTH",
"156 882 OFFCURVE",
"15 652 OFFCURVE",
"15 575 CURVE SMOOTH"
);
}
);
width = 422;
},
{
layerId = "6FA4A80C-3D50-4FAF-A835-1EC9F66A3889";
name = Light;
paths = (
{
closed = 1;
nodes = (
"77 584 OFFCURVE",
"83 575 OFFCURVE",
"94 575 CURVE SMOOTH",
"115 575 OFFCURVE",
"131 617 OFFCURVE",
"159 668 CURVE SMOOTH",
"179 705 OFFCURVE",
"206 745 OFFCURVE",
"246 778 CURVE",
"218 772 LINE",
"241 714 OFFCURVE",
"306 566 OFFCURVE",
"339 566 CURVE SMOOTH",
"347 566 OFFCURVE",
"351 570 OFFCURVE",
"351 581 CURVE SMOOTH",
"351 593 OFFCURVE",
"331 635 OFFCURVE",
"308 690 CURVE SMOOTH",
"278 765 OFFCURVE",
"276 787 OFFCURVE",
"261 808 CURVE SMOOTH",
"252 821 OFFCURVE",
"223 825 OFFCURVE",
"212 825 CURVE SMOOTH",
"175 825 OFFCURVE",
"77 657 OFFCURVE",
"77 595 CURVE SMOOTH"
);
}
);
width = 422;
}
);
unicode = 005E;
},
{
glyphname = underscore;
lastChange = "2014-11-17 07:04:19 +0000";
layers = (
{
layerId = UUID0;
name = Bold;
paths = (
{
closed = 1;
nodes = (
"590 44 OFFCURVE",
"575 55 OFFCURVE",
"551 62 CURVE SMOOTH",
"499 79 OFFCURVE",
"395 80 OFFCURVE",
"311 80 CURVE SMOOTH",
"160 80 OFFCURVE",
"24 71 OFFCURVE",
"24 38 CURVE SMOOTH",
"24 1 OFFCURVE",
"58 -46 OFFCURVE",
"83 -46 CURVE SMOOTH",
"137 -46 OFFCURVE",
"173 -37 OFFCURVE",
"239 -33 CURVE SMOOTH",
"433 -20 OFFCURVE",
"590 -16 OFFCURVE",
"590 29 CURVE SMOOTH"
);
}
);
width = 619;
},
{
layerId = "6FA4A80C-3D50-4FAF-A835-1EC9F66A3889";
name = Light;
paths = (
{
closed = 1;
nodes = (
"533 37 OFFCURVE",
"517 47 OFFCURVE",
"486 51 CURVE SMOOTH",
"432 58 OFFCURVE",
"367 60 OFFCURVE",
"307 60 CURVE SMOOTH",
"191 60 OFFCURVE",
"55 48 OFFCURVE",
"55 28 CURVE SMOOTH",
"55 12 OFFCURVE",
"69 -7 OFFCURVE",
"84 -8 CURVE SMOOTH",
"128 -7 OFFCURVE",
"224 3 OFFCURVE",
"334 4 CURVE SMOOTH",
"434 5 OFFCURVE",
"533 6 OFFCURVE",
"533 25 CURVE SMOOTH"
);
}
);
width = 602;
}
);
unicode = 005F;
},
{
glyphname = grave;
lastChange = "2014-11-17 07:04:19 +0000";
layers = (
{
anchors = (
{
name = _top;
position = "{0, 603}";
}
);
layerId = UUID0;
name = Bold;
paths = (
{
closed = 1;
nodes = (
"-125 765 OFFCURVE",
"-85 745 OFFCURVE",
"-22 706 CURVE SMOOTH",
"32 673 OFFCURVE",
"50 650 OFFCURVE",
"73 650 CURVE SMOOTH",
"93 650 OFFCURVE",
"113 671 OFFCURVE",
"113 695 CURVE SMOOTH",
"113 720 OFFCURVE",
"100 735 OFFCURVE",
"35 799 CURVE SMOOTH",
"-6 839 OFFCURVE",
"-32 875 OFFCURVE",
"-58 875 CURVE SMOOTH",
"-89 875 OFFCURVE",
"-125 832 OFFCURVE",
"-125 793 CURVE SMOOTH"
);
}
);
width = 0;
},
{
anchors = (
{
name = _top;
position = "{0, 566}";
}
);
layerId = "6FA4A80C-3D50-4FAF-A835-1EC9F66A3889";
name = Light;
paths = (
{
closed = 1;
nodes = (
"-97 767 OFFCURVE",
"-69 750 OFFCURVE",
"-22 714 CURVE SMOOTH",
"10 690 OFFCURVE",
"37 663 OFFCURVE",
"52 663 CURVE SMOOTH",
"62 663 OFFCURVE",
"72 673 OFFCURVE",
"72 682 CURVE SMOOTH",
"72 699 OFFCURVE",
"59 709 OFFCURVE",
"7 765 CURVE SMOOTH",
"-30 804 OFFCURVE",
"-45 828 OFFCURVE",
"-60 828 CURVE SMOOTH",
"-81 828 OFFCURVE",
"-97 803 OFFCURVE",
"-97 786 CURVE SMOOTH"
);
}
);
width = 0;
}
);
unicode = 0060;
},
{
glyphname = a;
lastChange = "2014-11-17 07:04:19 +0000";
layers = (
{
anchors = (
{
name = ogonek;
position = "{335, 7}";
},
{
name = top;
position = "{365, 507}";
}
);
layerId = UUID0;
name = Bold;
paths = (
{
closed = 1;
nodes = (
"480 448 OFFCURVE",
"381 528 OFFCURVE",
"328 528 CURVE SMOOTH",
"171 528 OFFCURVE",
"20 248 OFFCURVE",
"20 149 CURVE SMOOTH",
"20 92 OFFCURVE",
"107 12 OFFCURVE",
"163 12 CURVE SMOOTH",
"253 12 OFFCURVE",
"383 167 OFFCURVE",
"439 260 CURVE",
"354 312 LINE",
"325 267 OFFCURVE",
"314 212 OFFCURVE",
"314 162 CURVE SMOOTH",
"314 83 OFFCURVE",
"359 12 OFFCURVE",
"390 12 CURVE SMOOTH",
"420 12 OFFCURVE",
"426 72 OFFCURVE",
"437 134 CURVE SMOOTH",
"451 211 OFFCURVE",
"468 239 OFFCURVE",
"468 269 CURVE SMOOTH",
"468 291 OFFCURVE",
"393 345 OFFCURVE",
"377 345 CURVE SMOOTH",
"359 345 OFFCURVE",
"350 342 OFFCURVE",
"348 330 CURVE SMOOTH",
"324 205 OFFCURVE",
"198 138 OFFCURVE",
"159 138 CURVE SMOOTH",
"146 138 OFFCURVE",
"144 140 OFFCURVE",
"144 151 CURVE SMOOTH",
"144 203 OFFCURVE",
"258 401 OFFCURVE",
"346 401 CURVE SMOOTH",
"362 401 OFFCURVE",
"366 365 OFFCURVE",
"366 301 CURVE SMOOTH",
"366 262 OFFCURVE",
"376 237 OFFCURVE",
"397 237 CURVE SMOOTH",
"421 237 OFFCURVE",
"480 333 OFFCURVE",
"480 385 CURVE SMOOTH"
);
}
);
width = 510;
},
{
anchors = (
{
name = ogonek;
position = "{302, -31}";
},
{
name = top;
position = "{303, 470}";
}
);
layerId = "6FA4A80C-3D50-4FAF-A835-1EC9F66A3889";
name = Light;
paths = (
{
closed = 1;
nodes = (
"384 417 OFFCURVE",
"350 502 OFFCURVE",
"280 502 CURVE SMOOTH",
"161 502 OFFCURVE",
"0 259 OFFCURVE",
"0 129 CURVE SMOOTH",
"0 72 OFFCURVE",
"69 17 OFFCURVE",
"131 17 CURVE SMOOTH",
"210 17 OFFCURVE",
"299 120 OFFCURVE",
"326 206 CURVE",
"309 209 LINE",
"303 192 OFFCURVE",
"301 174 OFFCURVE",
"301 156 CURVE SMOOTH",
"301 77 OFFCURVE",
"302 17 OFFCURVE",
"328 17 CURVE SMOOTH",
"348 17 OFFCURVE",
"343 72 OFFCURVE",
"354 134 CURVE SMOOTH",
"368 211 OFFCURVE",
"371 261 OFFCURVE",
"371 291 CURVE SMOOTH",
"371 313 OFFCURVE",
"355 330 OFFCURVE",
"339 330 CURVE SMOOTH",
"325 330 OFFCURVE",
"317 320 OFFCURVE",
"314 308 CURVE SMOOTH",
"277 177 OFFCURVE",
"195 76 OFFCURVE",
"126 76 CURVE SMOOTH",
"97 76 OFFCURVE",
"62 97 OFFCURVE",
"62 128 CURVE SMOOTH",
"62 228 OFFCURVE",
"206 443 OFFCURVE",
"285 443 CURVE SMOOTH",
"318 443 OFFCURVE",
"331 395 OFFCURVE",
"331 354 CURVE SMOOTH",
"331 318 OFFCURVE",
"334 305 OFFCURVE",
"347 305 CURVE SMOOTH",
"358 305 OFFCURVE",
"384 344 OFFCURVE",
"384 378 CURVE SMOOTH"
);
}
);
width = 447;
}
);
unicode = 0061;
},
{
glyphname = b;
lastChange = "2014-11-17 07:04:19 +0000";
layers = (
{
layerId = UUID0;
name = Bold;
paths = (
{
closed = 1;
nodes = (
"150 548 OFFCURVE",
"18 169 OFFCURVE",
"18 104 CURVE SMOOTH",
"18 76 OFFCURVE",
"74 12 OFFCURVE",
"103 12 CURVE SMOOTH",
"134 12 OFFCURVE",
"176 226 OFFCURVE",
"211 341 CURVE SMOOTH",
"242 443 OFFCURVE",
"280 603 OFFCURVE",
"280 683 CURVE SMOOTH",
"280 737 OFFCURVE",
"207 808 OFFCURVE",
"179 808 CURVE SMOOTH",
"157 808 OFFCURVE",
"150 796 OFFCURVE",
"150 778 CURVE SMOOTH"
);
},
{
closed = 1;
nodes = (
"301 527 OFFCURVE",
"115 284 OFFCURVE",
"46 143 CURVE",
"138 69 LINE",
"194 229 OFFCURVE",
"310 392 OFFCURVE",
"405 392 CURVE SMOOTH",
"420 392 OFFCURVE",
"421 391 OFFCURVE",
"421 383 CURVE SMOOTH",
"421 272 OFFCURVE",
"325 128 OFFCURVE",
"251 128 CURVE SMOOTH",
"216 128 OFFCURVE",
"160 164 OFFCURVE",
"117 225 CURVE",
"37 161 LINE",
"105 81 OFFCURVE",
"195 13 OFFCURVE",
"268 13 CURVE SMOOTH",
"427 13 OFFCURVE",
"542 259 OFFCURVE",
"542 379 CURVE SMOOTH",
"542 436 OFFCURVE",
"478 527 OFFCURVE",
"413 527 CURVE SMOOTH"
);
}
);
width = 567;
},
{
layerId = "6FA4A80C-3D50-4FAF-A835-1EC9F66A3889";
name = Light;
paths = (
{
closed = 1;
nodes = (
"147 418 OFFCURVE",
"24 125 OFFCURVE",
"24 60 CURVE SMOOTH",
"24 39 OFFCURVE",
"45 17 OFFCURVE",
"58 17 CURVE SMOOTH",
"73 17 OFFCURVE",
"111 163 OFFCURVE",
"140 278 CURVE SMOOTH",
"199 512 OFFCURVE",
"206 676 OFFCURVE",
"206 715 CURVE SMOOTH",
"206 748 OFFCURVE",
"181 782 OFFCURVE",
"165 782 CURVE SMOOTH",
"150 782 OFFCURVE",
"147 773 OFFCURVE",
"147 752 CURVE SMOOTH"
);
},
{
closed = 1;
nodes = (
"271 507 OFFCURVE",
"160 358 OFFCURVE",
"70 165 CURVE",
"88 88 LINE",
"144 254 OFFCURVE",
"282 445 OFFCURVE",
"377 445 CURVE SMOOTH",
"411 445 OFFCURVE",
"424 410 OFFCURVE",
"424 358 CURVE SMOOTH",
"424 214 OFFCURVE",
"314 72 OFFCURVE",
"223 72 CURVE SMOOTH",
"177 72 OFFCURVE",
"119 112 OFFCURVE",
"87 214 CURVE",
"66 141 LINE",
"110 61 OFFCURVE",
"159 14 OFFCURVE",
"232 14 CURVE SMOOTH",
"355 14 OFFCURVE",
"487 207 OFFCURVE",
"487 358 CURVE SMOOTH",
"487 438 OFFCURVE",
"448 507 OFFCURVE",
"383 507 CURVE SMOOTH"
);
}
);
width = 502;
}
);
unicode = 0062;
},
{
glyphname = c;
lastChange = "2014-11-17 07:04:19 +0000";
layers = (
{
anchors = (
{
name = cedilla;
position = "{164, 7}";
},
{
name = top;
position = "{279, 507}";
}
);
layerId = UUID0;
name = Bold;
paths = (
{
closed = 1;
nodes = (
"180 527 OFFCURVE",
"25 310 OFFCURVE",
"25 169 CURVE SMOOTH",
"25 103 OFFCURVE",
"136 12 OFFCURVE",
"199 12 CURVE SMOOTH",
"302 12 OFFCURVE",
"430 89 OFFCURVE",
"430 147 CURVE SMOOTH",
"430 164 OFFCURVE",
"418 171 OFFCURVE",
"402 171 CURVE SMOOTH",
"362 171 OFFCURVE",
"357 138 OFFCURVE",
"220 138 CURVE SMOOTH",
"181 138 OFFCURVE",
"168 149 OFFCURVE",
"168 179 CURVE SMOOTH",
"168 256 OFFCURVE",
"286 396 OFFCURVE",
"337 396 CURVE SMOOTH",
"372 396 OFFCURVE",
"384 374 OFFCURVE",
"410 374 CURVE SMOOTH",
"424 374 OFFCURVE",
"434 384 OFFCURVE",
"434 400 CURVE SMOOTH",
"434 445 OFFCURVE",
"374 527 OFFCURVE",
"325 527 CURVE SMOOTH"
);
}
);
width = 489;
},
{
anchors = (
{
name = cedilla;
position = "{175, 0}";
},
{
name = top;
position = "{270, 470}";
}
);
layerId = "6FA4A80C-3D50-4FAF-A835-1EC9F66A3889";
name = Light;
paths = (
{
closed = 1;
nodes = (
"181 502 OFFCURVE",
"35 296 OFFCURVE",
"35 160 CURVE SMOOTH",
"35 76 OFFCURVE",
"107 17 OFFCURVE",
"189 17 CURVE SMOOTH",
"256 17 OFFCURVE",
"369 80 OFFCURVE",
"369 107 CURVE SMOOTH",
"369 118 OFFCURVE",
"366 123 OFFCURVE",
"355 123 CURVE SMOOTH",
"325 123 OFFCURVE",
"289 76 OFFCURVE",
"181 76 CURVE SMOOTH",
"129 76 OFFCURVE",
"96 112 OFFCURVE",
"96 158 CURVE SMOOTH",
"96 261 OFFCURVE",
"225 442 OFFCURVE",
"309 442 CURVE SMOOTH",
"346 442 OFFCURVE",
"366 399 OFFCURVE",
"391 399 CURVE SMOOTH",
"398 399 OFFCURVE",
"404 405 OFFCURVE",
"404 414 CURVE SMOOTH",
"404 438 OFFCURVE",
"372 502 OFFCURVE",
"305 502 CURVE SMOOTH"
);
}
);
width = 422;
}
);
unicode = 0063;
},
{
glyphname = d;
lastChange = "2014-11-17 07:04:19 +0000";
layers = (
{
layerId = UUID0;
name = Bold;
paths = (
{
closed = 1;
nodes = (
"427 629 OFFCURVE",
"287 151 OFFCURVE",
"287 86 CURVE SMOOTH",
"287 53 OFFCURVE",
"334 12 OFFCURVE",
"360 12 CURVE SMOOTH",
"391 12 OFFCURVE",
"447 228 OFFCURVE",
"477 357 CURVE SMOOTH",
"499 450 OFFCURVE",
"554 660 OFFCURVE",
"554 683 CURVE SMOOTH",
"554 737 OFFCURVE",
"480 808 OFFCURVE",
"452 808 CURVE SMOOTH",
"430 808 OFFCURVE",
"423 796 OFFCURVE",
"423 778 CURVE SMOOTH"
);
},
{
closed = 1;
nodes = (
"219 12 OFFCURVE",
"436 215 OFFCURVE",
"436 273 CURVE SMOOTH",
"436 313 OFFCURVE",
"386 346 OFFCURVE",
"373 346 CURVE SMOOTH",
"354 346 OFFCURVE",
"346 342 OFFCURVE",
"343 330 CURVE SMOOTH",
"313 201 OFFCURVE",
"180 139 OFFCURVE",
"157 139 CURVE SMOOTH",
"144 139 OFFCURVE",
"143 141 OFFCURVE",
"143 152 CURVE SMOOTH",
"143 197 OFFCURVE",
"191 401 OFFCURVE",
"278 401 CURVE SMOOTH",
"293 401 OFFCURVE",
"329 372 OFFCURVE",
"329 316 CURVE SMOOTH",
"329 272 OFFCURVE",
"339 246 OFFCURVE",
"360 246 CURVE SMOOTH",
"384 246 OFFCURVE",
"400 303 OFFCURVE",
"400 358 CURVE SMOOTH",
"400 444 OFFCURVE",
"344 528 OFFCURVE",
"266 528 CURVE SMOOTH",
"114 528 OFFCURVE",
"20 250 OFFCURVE",
"20 149 CURVE SMOOTH",
"20 91 OFFCURVE",
"86 12 OFFCURVE",
"142 12 CURVE SMOOTH"
);
}
);
width = 539;
},
{
layerId = "6FA4A80C-3D50-4FAF-A835-1EC9F66A3889";
name = Light;
paths = (
{
closed = 1;
nodes = (
"428 478 OFFCURVE",
"303 123 OFFCURVE",
"303 58 CURVE SMOOTH",
"303 36 OFFCURVE",
"323 17 OFFCURVE",
"336 17 CURVE SMOOTH",
"351 17 OFFCURVE",
"389 163 OFFCURVE",
"419 280 CURVE SMOOTH",
"479 513 OFFCURVE",
"504 683 OFFCURVE",
"504 715 CURVE SMOOTH",
"504 748 OFFCURVE",
"479 782 OFFCURVE",
"462 782 CURVE SMOOTH",
"447 782 OFFCURVE",
"445 773 OFFCURVE",
"445 752 CURVE SMOOTH"
);
},
{
closed = 1;
nodes = (
"257 17 OFFCURVE",
"406 228 OFFCURVE",
"406 303 CURVE SMOOTH",
"406 317 OFFCURVE",
"396 327 OFFCURVE",
"385 327 CURVE SMOOTH",
"375 327 OFFCURVE",
"368 323 OFFCURVE",
"365 311 CURVE SMOOTH",
"335 182 OFFCURVE",
"198 71 OFFCURVE",
"137 71 CURVE SMOOTH",
"109 71 OFFCURVE",
"77 94 OFFCURVE",
"77 126 CURVE SMOOTH",
"77 254 OFFCURVE",
"196 443 OFFCURVE",
"290 443 CURVE SMOOTH",
"336 443 OFFCURVE",
"359 372 OFFCURVE",
"359 291 CURVE SMOOTH",
"359 276 OFFCURVE",
"366 267 OFFCURVE",
"377 267 CURVE SMOOTH",
"390 267 OFFCURVE",
"394 293 OFFCURVE",
"394 316 CURVE SMOOTH",
"394 421 OFFCURVE",
"364 502 OFFCURVE",
"286 502 CURVE SMOOTH",
"142 502 OFFCURVE",
"17 256 OFFCURVE",
"17 132 CURVE SMOOTH",
"17 79 OFFCURVE",
"64 17 OFFCURVE",
"128 17 CURVE SMOOTH"
);
}
);
width = 478;
}
);
unicode = 0064;
},
{
glyphname = e;
lastChange = "2014-11-17 07:04:19 +0000";
layers = (
{
anchors = (
{
name = ogonek;
position = "{289, 43}";
},
{
name = top;
position = "{273, 507}";
}
);
layerId = UUID0;
name = Bold;
paths = (
{
closed = 1;
nodes = (
"176 528 OFFCURVE",
"25 336 OFFCURVE",
"25 194 CURVE SMOOTH",
"25 99 OFFCURVE",
"89 12 OFFCURVE",
"221 12 CURVE SMOOTH",
"322 12 OFFCURVE",
"425 69 OFFCURVE",
"425 121 CURVE SMOOTH",
"425 137 OFFCURVE",
"415 148 OFFCURVE",
"384 148 CURVE SMOOTH",
"356 148 OFFCURVE",
"326 120 OFFCURVE",
"200 120 CURVE SMOOTH",
"149 120 OFFCURVE",
"146 137 OFFCURVE",
"146 173 CURVE SMOOTH",
"146 256 OFFCURVE",
"238 405 OFFCURVE",
"302 405 CURVE SMOOTH",
"320 405 OFFCURVE",
"357 370 OFFCURVE",
"357 357 CURVE SMOOTH",
"357 318 OFFCURVE",
"286 309 OFFCURVE",
"220 309 CURVE SMOOTH",
"192 309 OFFCURVE",
"154 314 OFFCURVE",
"136 318 CURVE",
"125 232 LINE",
"153 222 OFFCURVE",
"200 214 OFFCURVE",
"262 214 CURVE SMOOTH",
"363 214 OFFCURVE",
"473 274 OFFCURVE",
"473 341 CURVE SMOOTH",
"473 417 OFFCURVE",
"393 528 OFFCURVE",
"296 528 CURVE SMOOTH"
);
}
);
width = 488;
},
{
anchors = (
{
name = ogonek;
position = "{244, -8}";
},
{
name = top;
position = "{259, 470}";
}
);
layerId = "6FA4A80C-3D50-4FAF-A835-1EC9F66A3889";
name = Light;
paths = (
{
closed = 1;
nodes = (
"141 502 OFFCURVE",
"15 315 OFFCURVE",
"15 173 CURVE SMOOTH",
"15 78 OFFCURVE",
"91 17 OFFCURVE",
"181 17 CURVE SMOOTH",
"250 17 OFFCURVE",
"348 71 OFFCURVE",
"348 96 CURVE SMOOTH",
"348 106 OFFCURVE",
"342 112 OFFCURVE",
"330 112 CURVE SMOOTH",
"302 112 OFFCURVE",
"254 74 OFFCURVE",
"170 74 CURVE SMOOTH",
"114 74 OFFCURVE",
"71 106 OFFCURVE",
"71 156 CURVE SMOOTH",
"71 277 OFFCURVE",
"171 446 OFFCURVE",
"267 446 CURVE SMOOTH",
"307 446 OFFCURVE",
"350 390 OFFCURVE",
"350 347 CURVE SMOOTH",
"350 308 OFFCURVE",
"302 278 OFFCURVE",
"211 278 CURVE SMOOTH",
"173 278 OFFCURVE",
"118 286 OFFCURVE",
"73 301 CURVE",
"62 257 LINE",
"114 242 OFFCURVE",
"167 231 OFFCURVE",
"223 231 CURVE SMOOTH",
"324 231 OFFCURVE",
"407 274 OFFCURVE",
"407 341 CURVE SMOOTH",
"407 413 OFFCURVE",
"337 502 OFFCURVE",
"261 502 CURVE SMOOTH"
);
}
);
width = 429;
}
);
unicode = 0065;
},
{
glyphname = f;
lastChange = "2014-11-17 07:04:19 +0000";
layers = (
{
layerId = UUID0;
name = Bold;
paths = (
{
closed = 1;
nodes = (
"510 723 OFFCURVE",
"445 791 OFFCURVE",
"385 791 CURVE SMOOTH",
"246 791 OFFCURVE",
"188 665 OFFCURVE",
"150 398 CURVE SMOOTH",
"120 184 OFFCURVE",
"79 131 OFFCURVE",
"79 97 CURVE SMOOTH",
"79 70 OFFCURVE",
"123 13 OFFCURVE",
"149 13 CURVE SMOOTH",
"198 13 OFFCURVE",
"227 181 OFFCURVE",
"277 386 CURVE SMOOTH",
"303 494 OFFCURVE",
"333 669 OFFCURVE",
"378 669 CURVE SMOOTH",
"416 669 OFFCURVE",
"404 548 OFFCURVE",
"462 548 CURVE SMOOTH",
"492 548 OFFCURVE",
"510 581 OFFCURVE",
"510 636 CURVE SMOOTH"
);
},
{
closed = 1;
nodes = (
"33 394 OFFCURVE",
"10 379 OFFCURVE",
"10 364 CURVE SMOOTH",
"10 321 OFFCURVE",
"48 290 OFFCURVE",
"86 290 CURVE SMOOTH",
"119 290 OFFCURVE",
"168 312 OFFCURVE",
"262 327 CURVE SMOOTH",
"369 343 OFFCURVE",
"481 361 OFFCURVE",
"481 408 CURVE SMOOTH",
"481 428 OFFCURVE",
"458 447 OFFCURVE",
"406 447 CURVE SMOOTH",
"275 447 OFFCURVE",
"143 430 OFFCURVE",
"71 406 CURVE SMOOTH"
);
}
);
width = 435;
},
{
layerId = "6FA4A80C-3D50-4FAF-A835-1EC9F66A3889";
name = Light;
paths = (
{
closed = 1;
nodes = (
"434 713 OFFCURVE",
"402 780 OFFCURVE",
"326 780 CURVE SMOOTH",
"255 780 OFFCURVE",
"211 726 OFFCURVE",
"183 592 CURVE SMOOTH",
"119 287 OFFCURVE",
"49 74 OFFCURVE",
"49 50 CURVE SMOOTH",
"49 33 OFFCURVE",
"66 13 OFFCURVE",
"78 13 CURVE SMOOTH",
"111 13 OFFCURVE",
"193 375 OFFCURVE",
"238 558 CURVE SMOOTH",
"262 656 OFFCURVE",
"279 726 OFFCURVE",
"332 726 CURVE SMOOTH",
"392 726 OFFCURVE",
"386 625 OFFCURVE",
"418 625 CURVE SMOOTH",
"425 625 OFFCURVE",
"434 632 OFFCURVE",
"434 666 CURVE SMOOTH"
);
},
{
closed = 1;
nodes = (
"56 440 OFFCURVE",
"42 433 OFFCURVE",
"42 423 CURVE SMOOTH",
"42 410 OFFCURVE",
"63 393 OFFCURVE",
"79 393 CURVE SMOOTH",
"101 393 OFFCURVE",
"135 402 OFFCURVE",
"214 417 CURVE SMOOTH",
"313 436 OFFCURVE",
"336 440 OFFCURVE",
"336 457 CURVE SMOOTH",
"336 470 OFFCURVE",
"315 479 OFFCURVE",
"283 479 CURVE SMOOTH",
"252 479 OFFCURVE",
"189 473 OFFCURVE",
"79 446 CURVE SMOOTH"
);
}
);
width = 344;
}
);
unicode = 0066;
},
{
glyphname = g;
lastChange = "2014-11-17 07:04:19 +0000";
layers = (
{
anchors = (
{
name = top;
position = "{337, 507}";
}
);
layerId = UUID0;
name = Bold;
paths = (
{
closed = 1;
nodes = (
"422 412 OFFCURVE",
"406 528 OFFCURVE",
"300 528 CURVE SMOOTH",
"143 528 OFFCURVE",
"20 248 OFFCURVE",
"20 149 CURVE SMOOTH",
"20 92 OFFCURVE",
"85 12 OFFCURVE",
"141 12 CURVE SMOOTH",
"232 12 OFFCURVE",
"435 171 OFFCURVE",
"435 278 CURVE SMOOTH",
"435 312 OFFCURVE",
"387 345 OFFCURVE",
"364 345 CURVE SMOOTH",
"357 345 OFFCURVE",
"343 342 OFFCURVE",
"343 330 CURVE SMOOTH",
"343 250 OFFCURVE",
"194 138 OFFCURVE",
"154 138 CURVE SMOOTH",
"144 138 OFFCURVE",
"143 142 OFFCURVE",
"143 151 CURVE SMOOTH",
"143 203 OFFCURVE",
"236 401 OFFCURVE",
"307 401 CURVE SMOOTH",
"335 401 OFFCURVE",
"335 355 OFFCURVE",
"335 315 CURVE SMOOTH",
"335 272 OFFCURVE",
"339 241 OFFCURVE",
"366 241 CURVE SMOOTH",
"389 241 OFFCURVE",
"422 273 OFFCURVE",
"422 338 CURVE SMOOTH"
);
},
{
closed = 1;
nodes = (
"331 277 LINE",
"242 128 OFFCURVE",
"239 -158 OFFCURVE",
"150 -158 CURVE SMOOTH",
"85 -158 OFFCURVE",
"65 -57 OFFCURVE",
"28 -57 CURVE SMOOTH",
"5 -57 OFFCURVE",
"-23 -99 OFFCURVE",
"-23 -136 CURVE SMOOTH",
"-23 -176 OFFCURVE",
"52 -259 OFFCURVE",
"150 -259 CURVE SMOOTH",
"359 -259 OFFCURVE",
"352 93 OFFCURVE",
"424 232 CURVE"
);
}
);
width = 481;
},
{
anchors = (
{
name = top;
position = "{326, 470}";
}
);
layerId = "6FA4A80C-3D50-4FAF-A835-1EC9F66A3889";
name = Light;
paths = (
{
closed = 1;
nodes = (
"412 401 OFFCURVE",
"380 502 OFFCURVE",
"301 502 CURVE SMOOTH",
"176 502 OFFCURVE",
"26 262 OFFCURVE",
"26 132 CURVE SMOOTH",
"26 75 OFFCURVE",
"78 17 OFFCURVE",
"141 17 CURVE SMOOTH",
"238 17 OFFCURVE",
"422 190 OFFCURVE",
"422 289 CURVE SMOOTH",
"422 309 OFFCURVE",
"413 330 OFFCURVE",
"400 330 CURVE SMOOTH",
"387 330 OFFCURVE",
"380 320 OFFCURVE",
"376 308 CURVE SMOOTH",
"326 169 OFFCURVE",
"218 76 OFFCURVE",
"138 76 CURVE SMOOTH",
"109 76 OFFCURVE",
"84 97 OFFCURVE",
"84 128 CURVE SMOOTH",
"84 228 OFFCURVE",
"215 443 OFFCURVE",
"305 443 CURVE SMOOTH",
"343 443 OFFCURVE",
"352 392 OFFCURVE",
"361 338 CURVE SMOOTH",
"367 307 OFFCURVE",
"375 289 OFFCURVE",
"387 289 CURVE SMOOTH",
"401 289 OFFCURVE",
"412 303 OFFCURVE",
"412 334 CURVE SMOOTH"
);
},
{
closed = 1;
nodes = (
"360 265 LINE",
"242 66 OFFCURVE",
"254 -191 OFFCURVE",
"151 -191 CURVE SMOOTH",
"51 -191 OFFCURVE",
"40 -99 OFFCURVE",
"7 -99 CURVE SMOOTH",
"-2 -99 OFFCURVE",
"-11 -119 OFFCURVE",
"-11 -130 CURVE SMOOTH",
"-11 -177 OFFCURVE",
"51 -240 OFFCURVE",
"154 -240 CURVE SMOOTH",
"306 -240 OFFCURVE",
"282 20 OFFCURVE",
"408 243 CURVE"
);
}
);
width = 471;
}
);
unicode = 0067;
},
{
glyphname = h;
lastChange = "2014-11-17 07:04:19 +0000";
layers = (
{
layerId = UUID0;
name = Bold;
paths = (
{
closed = 1;
nodes = (
"161 808 OFFCURVE",
"150 791 OFFCURVE",
"150 766 CURVE SMOOTH",
"150 741 OFFCURVE",
"110 554 OFFCURVE",
"81 416 CURVE SMOOTH",
"49 258 OFFCURVE",
"17 152 OFFCURVE",
"17 108 CURVE SMOOTH",
"17 80 OFFCURVE",
"74 12 OFFCURVE",
"104 12 CURVE SMOOTH",
"140 12 OFFCURVE",
"175 69 OFFCURVE",
"217 142 CURVE SMOOTH",
"269 232 OFFCURVE",
"336 335 OFFCURVE",
"387 335 CURVE SMOOTH",
"395 335 OFFCURVE",
"395 326 OFFCURVE",
"395 313 CURVE SMOOTH",
"395 295 OFFCURVE",
"391 278 OFFCURVE",
"388 261 CURVE SMOOTH",
"378 202 OFFCURVE",
"346 118 OFFCURVE",
"346 59 CURVE SMOOTH",
"346 24 OFFCURVE",
"358 12 OFFCURVE",
"379 12 CURVE SMOOTH",
"438 12 OFFCURVE",
"497 145 OFFCURVE",
"520 262 CURVE SMOOTH",
"528 305 OFFCURVE",
"533 348 OFFCURVE",
"533 382 CURVE SMOOTH",
"533 429 OFFCURVE",
"464 528 OFFCURVE",
"422 528 CURVE SMOOTH",
"357 528 OFFCURVE",
"250 407 OFFCURVE",
"163 230 CURVE",
"210 392 OFFCURVE",
"280 599 OFFCURVE",
"280 683 CURVE SMOOTH",
"280 730 OFFCURVE",
"219 808 OFFCURVE",
"183 808 CURVE SMOOTH"
);
}
);
width = 563;
},
{
layerId = "6FA4A80C-3D50-4FAF-A835-1EC9F66A3889";
name = Light;
paths = (
{
closed = 1;
nodes = (
"151 782 OFFCURVE",
"148 774 OFFCURVE",
"148 745 CURVE SMOOTH",
"148 701 OFFCURVE",
"146 589 OFFCURVE",
"106 386 CURVE SMOOTH",
"73 217 OFFCURVE",
"26 88 OFFCURVE",
"26 60 CURVE SMOOTH",
"26 40 OFFCURVE",
"49 17 OFFCURVE",
"62 17 CURVE SMOOTH",
"72 17 OFFCURVE",
"117 100 OFFCURVE",
"174 186 CURVE SMOOTH",
"270 330 OFFCURVE",
"331 430 OFFCURVE",
"378 430 CURVE SMOOTH",
"392 430 OFFCURVE",
"417 409 OFFCURVE",
"417 377 CURVE SMOOTH",
"417 345 OFFCURVE",
"405 294 OFFCURVE",
"388 238 CURVE SMOOTH",
"360 144 OFFCURVE",
"325 72 OFFCURVE",
"325 37 CURVE SMOOTH",
"325 24 OFFCURVE",
"330 17 OFFCURVE",
"341 17 CURVE SMOOTH",
"373 17 OFFCURVE",
"408 113 OFFCURVE",
"445 229 CURVE SMOOTH",
"464 289 OFFCURVE",
"476 342 OFFCURVE",
"476 383 CURVE SMOOTH",
"476 440 OFFCURVE",
"418 502 OFFCURVE",
"389 502 CURVE SMOOTH",
"329 502 OFFCURVE",
"256 421 OFFCURVE",
"93 136 CURVE",
"184 393 OFFCURVE",
"210 640 OFFCURVE",
"210 714 CURVE SMOOTH",
"210 746 OFFCURVE",
"186 782 OFFCURVE",
"168 782 CURVE SMOOTH"
);
}
);
width = 522;
}
);
unicode = 0068;
},
{
glyphname = i;
lastChange = "2014-11-17 07:04:19 +0000";
layers = (
{
anchors = (
{
name = ogonek;
position = "{49, 7}";
}
);
layerId = UUID0;
name = Bold;
paths = (
{
closed = 1;
nodes = (
"102 528 OFFCURVE",
"89 382 OFFCURVE",
"66 286 CURVE SMOOTH",
"40 178 OFFCURVE",
"21 106 OFFCURVE",
"21 69 CURVE SMOOTH",
"21 39 OFFCURVE",
"46 13 OFFCURVE",
"76 13 CURVE SMOOTH",
"96 13 OFFCURVE",
"115 20 OFFCURVE",
"125 52 CURVE SMOOTH",
"165 174 OFFCURVE",
"228 383 OFFCURVE",
"228 411 CURVE SMOOTH",
"228 455 OFFCURVE",
"188 528 OFFCURVE",
"138 528 CURVE SMOOTH"
);
},
{
closed = 1;
nodes = (
"277 634 OFFCURVE",
"224 734 OFFCURVE",
"193 734 CURVE SMOOTH",
"161 734 OFFCURVE",
"123 686 OFFCURVE",
"123 654 CURVE SMOOTH",
"123 618 OFFCURVE",
"189 551 OFFCURVE",
"228 551 CURVE SMOOTH",
"250 551 OFFCURVE",
"277 571 OFFCURVE",
"277 594 CURVE SMOOTH"
);
}
);
width = 260;
},
{
anchors = (
{
name = ogonek;
position = "{48, -30}";
}
);
layerId = "6FA4A80C-3D50-4FAF-A835-1EC9F66A3889";
name = Light;
paths = (
{
closed = 1;
nodes = (
"139 502 OFFCURVE",
"124 403 OFFCURVE",
"89 264 CURVE SMOOTH",
"67 175 OFFCURVE",
"31 74 OFFCURVE",
"31 47 CURVE SMOOTH",
"31 29 OFFCURVE",
"42 17 OFFCURVE",
"55 17 CURVE SMOOTH",
"65 17 OFFCURVE",
"80 31 OFFCURVE",
"94 73 CURVE SMOOTH",
"166 300 OFFCURVE",
"196 432 OFFCURVE",
"196 462 CURVE SMOOTH",
"196 480 OFFCURVE",
"177 502 OFFCURVE",
"163 502 CURVE SMOOTH"
);
},
{
closed = 1;
nodes = (
"266 635 OFFCURVE",
"235 696 OFFCURVE",
"215 696 CURVE SMOOTH",
"198 696 OFFCURVE",
"179 675 OFFCURVE",
"179 655 CURVE SMOOTH",
"179 630 OFFCURVE",
"221 588 OFFCURVE",
"249 588 CURVE SMOOTH",
"257 588 OFFCURVE",
"266 596 OFFCURVE",
"266 605 CURVE SMOOTH"
);
}
);
width = 226;
}
);
unicode = 0069;
},
{
glyphname = j;
lastChange = "2014-11-17 07:04:19 +0000";
layers = (
{
layerId = UUID0;
name = Bold;
paths = (
{
closed = 1;
nodes = (
"305 634 OFFCURVE",
"253 734 OFFCURVE",
"221 734 CURVE SMOOTH",
"189 734 OFFCURVE",
"151 686 OFFCURVE",
"151 654 CURVE SMOOTH",
"151 618 OFFCURVE",
"217 551 OFFCURVE",
"257 551 CURVE SMOOTH",
"277 551 OFFCURVE",
"305 571 OFFCURVE",
"305 594 CURVE SMOOTH"
);
},
{
closed = 1;
nodes = (
"54 290 OFFCURVE",
"-20 -149 OFFCURVE",
"-91 -149 CURVE SMOOTH",
"-112 -149 OFFCURVE",
"-125 -139 OFFCURVE",
"-147 -112 CURVE SMOOTH",
"-167 -88 OFFCURVE",
"-188 -57 OFFCURVE",
"-209 -57 CURVE SMOOTH",
"-232 -57 OFFCURVE",
"-260 -107 OFFCURVE",
"-260 -137 CURVE SMOOTH",
"-260 -178 OFFCURVE",
"-179 -256 OFFCURVE",
"-106 -256 CURVE SMOOTH",
"-14 -256 OFFCURVE",
"69 -205 OFFCURVE",
"108 -71 CURVE SMOOTH",
"152 80 OFFCURVE",
"242 378 OFFCURVE",
"242 407 CURVE SMOOTH",
"242 466 OFFCURVE",
"192 528 OFFCURVE",
"153 528 CURVE SMOOTH",
"137 528 OFFCURVE",
"126 515 OFFCURVE",
"108 455 CURVE SMOOTH"
);
}
);
width = 260;
},
{
layerId = "6FA4A80C-3D50-4FAF-A835-1EC9F66A3889";
name = Light;
paths = (
{
closed = 1;
nodes = (
"271 635 OFFCURVE",
"240 696 OFFCURVE",
"220 696 CURVE SMOOTH",
"203 696 OFFCURVE",
"184 675 OFFCURVE",
"184 655 CURVE SMOOTH",
"184 630 OFFCURVE",
"227 588 OFFCURVE",
"255 588 CURVE SMOOTH",
"262 588 OFFCURVE",
"271 596 OFFCURVE",
"271 605 CURVE SMOOTH"
);
},
{
closed = 1;
nodes = (
"26 7 OFFCURVE",
"19 -190 OFFCURVE",
"-61 -190 CURVE SMOOTH",
"-89 -190 OFFCURVE",
"-112 -171 OFFCURVE",
"-132 -147 CURVE SMOOTH",
"-153 -123 OFFCURVE",
"-170 -97 OFFCURVE",
"-181 -97 CURVE SMOOTH",
"-189 -97 OFFCURVE",
"-200 -118 OFFCURVE",
"-200 -128 CURVE SMOOTH",
"-200 -161 OFFCURVE",
"-130 -239 OFFCURVE",
"-60 -239 CURVE SMOOTH",
"8 -239 OFFCURVE",
"42 -188 OFFCURVE",
"65 -97 CURVE SMOOTH",
"175 347 OFFCURVE",
"197 431 OFFCURVE",
"197 463 CURVE SMOOTH",
"197 483 OFFCURVE",
"177 502 OFFCURVE",
"163 502 CURVE SMOOTH",
"157 502 OFFCURVE",
"151 490 OFFCURVE",
"144 466 CURVE SMOOTH"
);
}
);
width = 251;
}
);
unicode = 006A;
},
{
glyphname = k;
lastChange = "2014-11-17 07:04:19 +0000";
layers = (
{
layerId = UUID0;
name = Bold;
paths = (
{
closed = 1;
nodes = (
"166 808 OFFCURVE",
"160 796 OFFCURVE",
"160 777 CURVE SMOOTH",
"160 508 OFFCURVE",
"26 139 OFFCURVE",
"26 108 CURVE SMOOTH",
"26 80 OFFCURVE",
"86 12 OFFCURVE",
"118 12 CURVE SMOOTH",
"150 12 OFFCURVE",
"232 127 OFFCURVE",
"299 236 CURVE",
"202 180 LINE",
"213 167 OFFCURVE",
"240 141 OFFCURVE",
"262 118 CURVE SMOOTH",
"312 67 OFFCURVE",
"373 12 OFFCURVE",
"429 12 CURVE SMOOTH",
"468 12 OFFCURVE",
"482 31 OFFCURVE",
"482 51 CURVE SMOOTH",
"482 90 OFFCURVE",
"352 122 OFFCURVE",
"352 236 CURVE SMOOTH",
"352 304 OFFCURVE",
"522 410 OFFCURVE",
"522 436 CURVE SMOOTH",
"522 469 OFFCURVE",
"471 528 OFFCURVE",
"437 528 CURVE SMOOTH",
"397 528 OFFCURVE",
"279 369 OFFCURVE",
"173 234 CURVE",
"226 354 OFFCURVE",
"291 612 OFFCURVE",
"291 683 CURVE SMOOTH",
"291 737 OFFCURVE",
"217 808 OFFCURVE",
"188 808 CURVE SMOOTH"
);
}
);
width = 493;
},
{
layerId = "6FA4A80C-3D50-4FAF-A835-1EC9F66A3889";
name = Light;
paths = (
{
closed = 1;
nodes = (
"162 782 OFFCURVE",
"158 776 OFFCURVE",
"158 755 CURVE SMOOTH",
"158 464 OFFCURVE",
"30 122 OFFCURVE",
"30 65 CURVE SMOOTH",
"30 45 OFFCURVE",
"46 17 OFFCURVE",
"59 17 CURVE SMOOTH",
"79 17 OFFCURVE",
"106 50 OFFCURVE",
"237 219 CURVE",
"225 226 LINE",
"218 211 OFFCURVE",
"216 196 OFFCURVE",
"216 181 CURVE SMOOTH",
"216 90 OFFCURVE",
"327 17 OFFCURVE",
"379 17 CURVE SMOOTH",
"391 17 OFFCURVE",
"407 20 OFFCURVE",
"407 34 CURVE SMOOTH",
"407 62 OFFCURVE",
"266 90 OFFCURVE",
"266 195 CURVE SMOOTH",
"266 317 OFFCURVE",
"446 445 OFFCURVE",
"446 469 CURVE SMOOTH",
"446 482 OFFCURVE",
"429 502 OFFCURVE",
"411 502 CURVE SMOOTH",
"387 502 OFFCURVE",
"263 360 OFFCURVE",
"91 107 CURVE",
"160 323 OFFCURVE",
"215 564 OFFCURVE",
"215 715 CURVE SMOOTH",
"215 748 OFFCURVE",
"194 782 OFFCURVE",
"178 782 CURVE SMOOTH"
);
}
);
width = 456;
}
);
unicode = 006B;
},
{
glyphname = l;
lastChange = "2014-11-17 07:04:19 +0000";
layers = (
{
anchors = (
{
name = top;
position = "{243, 733}";
}
);
layerId = UUID0;
name = Bold;
paths = (
{
closed = 1;
nodes = (
"247 458 OFFCURVE",
"266 628 OFFCURVE",
"266 682 CURVE SMOOTH",
"266 736 OFFCURVE",
"195 808 OFFCURVE",
"166 808 CURVE SMOOTH",
"143 808 OFFCURVE",
"135 796 OFFCURVE",
"135 779 CURVE SMOOTH",
"135 449 OFFCURVE",
"26 132 OFFCURVE",
"26 106 CURVE SMOOTH",
"26 76 OFFCURVE",
"84 12 OFFCURVE",
"113 12 CURVE SMOOTH",
"145 12 OFFCURVE",
"197 234 OFFCURVE",
"229 374 CURVE SMOOTH"
);
}
);
width = 266;
},
{
anchors = (
{
name = top;
position = "{198, 717}";
}
);
layerId = "6FA4A80C-3D50-4FAF-A835-1EC9F66A3889";
name = Light;
paths = (
{
closed = 1;
nodes = (
"169 362 OFFCURVE",
"208 569 OFFCURVE",
"208 720 CURVE SMOOTH",
"208 751 OFFCURVE",
"174 782 OFFCURVE",
"163 782 CURVE SMOOTH",
"151 782 OFFCURVE",
"150 776 OFFCURVE",
"150 757 CURVE SMOOTH",
"150 477 OFFCURVE",
"30 99 OFFCURVE",
"30 58 CURVE SMOOTH",
"30 42 OFFCURVE",
"49 17 OFFCURVE",
"62 17 CURVE SMOOTH",
"73 17 OFFCURVE",
"88 62 OFFCURVE",
"108 136 CURVE SMOOTH"
);
}
);
width = 233;
}
);
unicode = 006C;
},
{
glyphname = m;
lastChange = "2014-11-17 07:04:19 +0000";
layers = (
{
layerId = UUID0;
name = Bold;
paths = (
{
closed = 1;
nodes = (
"211 479 OFFCURVE",
"156 536 OFFCURVE",
"102 536 CURVE SMOOTH",
"59 536 OFFCURVE",
"85 359 OFFCURVE",
"43 216 CURVE SMOOTH",
"28 167 OFFCURVE",
"15 132 OFFCURVE",
"15 103 CURVE SMOOTH",
"15 82 OFFCURVE",
"71 12 OFFCURVE",
"102 12 CURVE SMOOTH",
"140 12 OFFCURVE",
"200 104 OFFCURVE",
"230 155 CURVE SMOOTH",
"301 275 OFFCURVE",
"337 370 OFFCURVE",
"364 370 CURVE SMOOTH",
"373 370 OFFCURVE",
"373 354 OFFCURVE",
"373 331 CURVE SMOOTH",
"373 175 OFFCURVE",
"340 126 OFFCURVE",
"340 89 CURVE SMOOTH",
"340 59 OFFCURVE",
"388 13 OFFCURVE",
"414 13 CURVE SMOOTH",
"451 13 OFFCURVE",
"468 76 OFFCURVE",
"501 139 CURVE SMOOTH",
"586 301 OFFCURVE",
"622 370 OFFCURVE",
"653 370 CURVE SMOOTH",
"660 370 OFFCURVE",
"663 356 OFFCURVE",
"663 337 CURVE SMOOTH",
"663 271 OFFCURVE",
"611 141 OFFCURVE",
"611 59 CURVE SMOOTH",
"611 24 OFFCURVE",
"623 12 OFFCURVE",
"644 12 CURVE SMOOTH",
"734 12 OFFCURVE",
"789 306 OFFCURVE",
"789 385 CURVE SMOOTH",
"789 425 OFFCURVE",
"756 528 OFFCURVE",
"698 528 CURVE SMOOTH",
"611 528 OFFCURVE",
"498 382 OFFCURVE",
"473 280 CURVE",
"484 278 LINE",
"486 320 OFFCURVE",
"487 371 OFFCURVE",
"487 394 CURVE SMOOTH",
"487 447 OFFCURVE",
"417 528 OFFCURVE",
"384 528 CURVE SMOOTH",
"274 528 OFFCURVE",
"194 298 OFFCURVE",
"129 149 CURVE",
"143 156 LINE",
"172 261 OFFCURVE",
"211 364 OFFCURVE",
"211 447 CURVE SMOOTH"
);
}
);
width = 819;
},
{
layerId = "6FA4A80C-3D50-4FAF-A835-1EC9F66A3889";
name = Light;
paths = (
{
closed = 1;
nodes = (
"165 475 OFFCURVE",
"140 503 OFFCURVE",
"123 503 CURVE SMOOTH",
"94 503 OFFCURVE",
"123 406 OFFCURVE",
"75 241 CURVE SMOOTH",
"49 150 OFFCURVE",
"26 82 OFFCURVE",
"26 58 CURVE SMOOTH",
"26 42 OFFCURVE",
"48 17 OFFCURVE",
"62 17 CURVE SMOOTH",
"73 17 OFFCURVE",
"120 104 OFFCURVE",
"176 187 CURVE SMOOTH",
"278 341 OFFCURVE",
"331 435 OFFCURVE",
"375 435 CURVE SMOOTH",
"390 435 OFFCURVE",
"415 413 OFFCURVE",
"415 379 CURVE SMOOTH",
"415 228 OFFCURVE",
"324 89 OFFCURVE",
"324 47 CURVE SMOOTH",
"324 34 OFFCURVE",
"340 17 OFFCURVE",
"350 17 CURVE SMOOTH",
"372 17 OFFCURVE",
"429 146 OFFCURVE",
"455 185 CURVE SMOOTH",
"555 339 OFFCURVE",
"610 435 OFFCURVE",
"654 435 CURVE SMOOTH",
"668 435 OFFCURVE",
"680 415 OFFCURVE",
"680 366 CURVE SMOOTH",
"680 208 OFFCURVE",
"601 93 OFFCURVE",
"601 37 CURVE SMOOTH",
"601 24 OFFCURVE",
"606 17 OFFCURVE",
"617 17 CURVE SMOOTH",
"666 17 OFFCURVE",
"737 258 OFFCURVE",
"737 370 CURVE SMOOTH",
"737 457 OFFCURVE",
"697 502 OFFCURVE",
"667 502 CURVE SMOOTH",
"609 502 OFFCURVE",
"548 442 OFFCURVE",
"432 229 CURVE",
"443 240 LINE",
"461 295 OFFCURVE",
"470 346 OFFCURVE",
"470 384 CURVE SMOOTH",
"470 443 OFFCURVE",
"413 502 OFFCURVE",
"385 502 CURVE SMOOTH",
"317 502 OFFCURVE",
"246 403 OFFCURVE",
"73 97 CURVE",
"85 110 LINE",
"131 236 OFFCURVE",
"165 376 OFFCURVE",
"165 445 CURVE SMOOTH"
);
}
);
width = 783;
}
);
unicode = 006D;
},
{
glyphname = n;
lastChange = "2014-11-17 07:04:19 +0000";
layers = (
{
anchors = (
{
name = top;
position = "{288, 507}";
}
);
layerId = UUID0;
name = Bold;
paths = (
{
closed = 1;
nodes = (
"216 479 OFFCURVE",
"162 536 OFFCURVE",
"108 536 CURVE SMOOTH",
"87 536 OFFCURVE",
"86 485 OFFCURVE",
"81 416 CURVE SMOOTH",
"76 353 OFFCURVE",
"74 278 OFFCURVE",
"51 204 CURVE SMOOTH",
"35 156 OFFCURVE",
"16 119 OFFCURVE",
"16 102 CURVE SMOOTH",
"16 82 OFFCURVE",
"71 12 OFFCURVE",
"101 12 CURVE SMOOTH",
"147 12 OFFCURVE",
"199 100 OFFCURVE",
"230 155 CURVE SMOOTH",
"280 244 OFFCURVE",
"346 372 OFFCURVE",
"385 372 CURVE SMOOTH",
"395 372 OFFCURVE",
"395 353 OFFCURVE",
"395 329 CURVE SMOOTH",
"395 300 OFFCURVE",
"382 247 OFFCURVE",
"370 204 CURVE SMOOTH",
"354 151 OFFCURVE",
"337 94 OFFCURVE",
"337 59 CURVE SMOOTH",
"337 24 OFFCURVE",
"350 12 OFFCURVE",
"371 12 CURVE SMOOTH",
"418 12 OFFCURVE",
"464 95 OFFCURVE",
"491 186 CURVE SMOOTH",
"511 253 OFFCURVE",
"524 329 OFFCURVE",
"524 382 CURVE SMOOTH",
"524 450 OFFCURVE",
"465 528 OFFCURVE",
"393 528 CURVE SMOOTH",
"315 528 OFFCURVE",
"173 244 OFFCURVE",
"120 158 CURVE",
"137 144 LINE",
"191 246 OFFCURVE",
"216 415 OFFCURVE",
"216 447 CURVE SMOOTH"
);
}
);
width = 554;
},
{
anchors = (
{
name = top;
position = "{287, 470}";
}
);
layerId = "6FA4A80C-3D50-4FAF-A835-1EC9F66A3889";
name = Light;
paths = (
{
closed = 1;
nodes = (
"166 475 OFFCURVE",
"141 503 OFFCURVE",
"124 503 CURVE SMOOTH",
"111 503 OFFCURVE",
"106 487 OFFCURVE",
"106 456 CURVE SMOOTH",
"106 409 OFFCURVE",
"94 316 OFFCURVE",
"76 239 CURVE SMOOTH",
"57 157 OFFCURVE",
"26 72 OFFCURVE",
"26 63 CURVE SMOOTH",
"26 39 OFFCURVE",
"48 17 OFFCURVE",
"62 17 CURVE SMOOTH",
"73 17 OFFCURVE",
"120 104 OFFCURVE",
"176 187 CURVE SMOOTH",
"272 332 OFFCURVE",
"333 435 OFFCURVE",
"378 435 CURVE SMOOTH",
"392 435 OFFCURVE",
"417 413 OFFCURVE",
"417 379 CURVE SMOOTH",
"417 345 OFFCURVE",
"404 291 OFFCURVE",
"386 231 CURVE SMOOTH",
"357 137 OFFCURVE",
"324 69 OFFCURVE",
"324 37 CURVE SMOOTH",
"324 24 OFFCURVE",
"329 17 OFFCURVE",
"340 17 CURVE SMOOTH",
"371 17 OFFCURVE",
"405 106 OFFCURVE",
"442 219 CURVE SMOOTH",
"463 283 OFFCURVE",
"475 340 OFFCURVE",
"475 383 CURVE SMOOTH",
"475 443 OFFCURVE",
"418 502 OFFCURVE",
"386 502 CURVE SMOOTH",
"323 502 OFFCURVE",
"243 398 OFFCURVE",
"72 99 CURVE",
"84 109 LINE",
"121 195 OFFCURVE",
"166 383 OFFCURVE",
"166 445 CURVE SMOOTH"
);
}
);
width = 521;
}
);
unicode = 006E;
},
{
glyphname = o;
lastChange = "2014-11-17 07:04:19 +0000";
layers = (
{
anchors = (
{
name = top;
position = "{287, 507}";
}
);
layerId = UUID0;
name = Bold;
paths = (
{
closed = 1;
nodes = (
"431 442 OFFCURVE",
"354 529 OFFCURVE",
"253 529 CURVE SMOOTH",
"151 529 OFFCURVE",
"20 350 OFFCURVE",
"20 180 CURVE SMOOTH",
"20 86 OFFCURVE",
"83 12 OFFCURVE",
"155 12 CURVE SMOOTH",
"309 12 OFFCURVE",
"431 190 OFFCURVE",
"431 353 CURVE SMOOTH"
);
},
{
closed = 1;
nodes = (
"298 415 OFFCURVE",
"300 367 OFFCURVE",
"300 342 CURVE SMOOTH",
"300 270 OFFCURVE",
"242 148 OFFCURVE",
"166 114 CURVE",
"155 129 OFFCURVE",
"154 164 OFFCURVE",
"154 197 CURVE SMOOTH",
"154 267 OFFCURVE",
"223 402 OFFCURVE",
"282 436 CURVE"
);
}
);
width = 456;
},
{
anchors = (
{
name = top;
position = "{287, 470}";
}
);
layerId = "6FA4A80C-3D50-4FAF-A835-1EC9F66A3889";
name = Light;
paths = (
{
closed = 1;
nodes = (
"410 421 OFFCURVE",
"364 502 OFFCURVE",
"289 502 CURVE SMOOTH",
"158 502 OFFCURVE",
"45 325 OFFCURVE",
"45 175 CURVE SMOOTH",
"45 87 OFFCURVE",
"87 17 OFFCURVE",
"155 17 CURVE SMOOTH",
"294 17 OFFCURVE",
"410 185 OFFCURVE",
"410 337 CURVE SMOOTH"
);
},
{
closed = 1;
nodes = (
"330 440 OFFCURVE",
"351 392 OFFCURVE",
"351 341 CURVE SMOOTH",
"351 240 OFFCURVE",
"274 79 OFFCURVE",
"156 67 CURVE",
"117 81 OFFCURVE",
"105 120 OFFCURVE",
"105 160 CURVE SMOOTH",
"105 282 OFFCURVE",
"177 435 OFFCURVE",
"294 457 CURVE"
);
}
);
width = 452;
}
);
unicode = 006F;
},
{
glyphname = p;
lastChange = "2014-11-17 07:04:19 +0000";
layers = (
{
layerId = UUID0;
name = Bold;
paths = (
{
closed = 1;
nodes = (
"227 504 OFFCURVE",
"143 544 OFFCURVE",
"118 544 CURVE SMOOTH",
"96 544 OFFCURVE",
"89 532 OFFCURVE",
"89 514 CURVE SMOOTH",
"89 272 OFFCURVE",
"-26 -88 OFFCURVE",
"-26 -155 CURVE SMOOTH",
"-26 -184 OFFCURVE",
"13 -248 OFFCURVE",
"42 -248 CURVE SMOOTH",
"71 -248 OFFCURVE",
"112 -62 OFFCURVE",
"144 66 CURVE SMOOTH",
"166 156 OFFCURVE",
"227 355 OFFCURVE",
"227 425 CURVE SMOOTH"
);
},
{
closed = 1;
nodes = (
"510 420 OFFCURVE",
"435 527 OFFCURVE",
"388 527 CURVE SMOOTH",
"293 527 OFFCURVE",
"168 420 OFFCURVE",
"126 298 CURVE",
"176 188 LINE",
"238 380 OFFCURVE",
"332 394 OFFCURVE",
"350 394 CURVE SMOOTH",
"375 394 OFFCURVE",
"379 363 OFFCURVE",
"379 344 CURVE SMOOTH",
"379 268 OFFCURVE",
"247 130 OFFCURVE",
"130 130 CURVE SMOOTH",
"107 130 OFFCURVE",
"88 134 OFFCURVE",
"72 134 CURVE SMOOTH",
"53 134 OFFCURVE",
"40 126 OFFCURVE",
"40 101 CURVE SMOOTH",
"40 53 OFFCURVE",
"79 14 OFFCURVE",
"143 14 CURVE SMOOTH",
"313 14 OFFCURVE",
"510 220 OFFCURVE",
"510 329 CURVE SMOOTH"
);
}
);
width = 538;
},
{
layerId = "6FA4A80C-3D50-4FAF-A835-1EC9F66A3889";
name = Light;
paths = (
{
closed = 1;
nodes = (
"156 467 OFFCURVE",
"125 504 OFFCURVE",
"108 504 CURVE SMOOTH",
"93 504 OFFCURVE",
"91 495 OFFCURVE",
"91 474 CURVE SMOOTH",
"91 319 OFFCURVE",
"-44 -159 OFFCURVE",
"-44 -195 CURVE SMOOTH",
"-44 -214 OFFCURVE",
"-26 -238 OFFCURVE",
"-12 -238 CURVE SMOOTH",
"9 -238 OFFCURVE",
"40 -67 OFFCURVE",
"57 5 CURVE SMOOTH",
"130 314 OFFCURVE",
"156 402 OFFCURVE",
"156 437 CURVE SMOOTH"
);
},
{
closed = 1;
nodes = (
"439 424 OFFCURVE",
"407 507 OFFCURVE",
"342 507 CURVE SMOOTH",
"252 507 OFFCURVE",
"150 401 OFFCURVE",
"78 221 CURVE",
"101 187 LINE",
"157 326 OFFCURVE",
"277 446 OFFCURVE",
"332 446 CURVE SMOOTH",
"363 446 OFFCURVE",
"376 401 OFFCURVE",
"376 345 CURVE SMOOTH",
"376 195 OFFCURVE",
"207 76 OFFCURVE",
"105 76 CURVE SMOOTH",
"77 76 OFFCURVE",
"57 83 OFFCURVE",
"47 83 CURVE SMOOTH",
"41 83 OFFCURVE",
"37 77 OFFCURVE",
"37 71 CURVE SMOOTH",
"37 48 OFFCURVE",
"55 18 OFFCURVE",
"114 18 CURVE SMOOTH",
"236 18 OFFCURVE",
"439 184 OFFCURVE",
"439 343 CURVE SMOOTH"
);
}
);
width = 446;
}
);
unicode = 0070;
},
{
glyphname = q;
lastChange = "2014-11-17 07:04:19 +0000";
layers = (
{
layerId = UUID0;
name = Bold;
paths = (
{
closed = 1;
nodes = (
"476 444 OFFCURVE",
"407 528 OFFCURVE",
"340 528 CURVE SMOOTH",
"179 528 OFFCURVE",
"28 256 OFFCURVE",
"28 157 CURVE SMOOTH",
"28 99 OFFCURVE",
"106 12 OFFCURVE",
"165 12 CURVE SMOOTH",
"208 12 OFFCURVE",
"295 53 OFFCURVE",
"348 146 CURVE",
"288 122 LINE",
"240 -3 OFFCURVE",
"181 -148 OFFCURVE",
"181 -171 CURVE SMOOTH",
"181 -206 OFFCURVE",
"213 -256 OFFCURVE",
"240 -256 CURVE SMOOTH",
"270 -256 OFFCURVE",
"322 -202 OFFCURVE",
"397 -154 CURVE SMOOTH",
"446 -123 OFFCURVE",
"472 -106 OFFCURVE",
"472 -87 CURVE SMOOTH",
"472 -69 OFFCURVE",
"452 -42 OFFCURVE",
"427 -42 CURVE SMOOTH",
"398 -42 OFFCURVE",
"329 -67 OFFCURVE",
"301 -91 CURVE",
"324 -131 LINE",
"390 57 OFFCURVE",
"479 246 OFFCURVE",
"479 282 CURVE SMOOTH",
"479 307 OFFCURVE",
"398 354 OFFCURVE",
"382 354 CURVE SMOOTH",
"364 354 OFFCURVE",
"355 349 OFFCURVE",
"352 337 CURVE SMOOTH",
"324 213 OFFCURVE",
"200 139 OFFCURVE",
"161 138 CURVE SMOOTH",
"146 138 OFFCURVE",
"143 139 OFFCURVE",
"143 151 CURVE SMOOTH",
"143 203 OFFCURVE",
"274 406 OFFCURVE",
"369 406 CURVE SMOOTH",
"398 406 OFFCURVE",
"427 365 OFFCURVE",
"450 365 CURVE SMOOTH",
"468 365 OFFCURVE",
"476 378 OFFCURVE",
"476 393 CURVE SMOOTH"
);
}
);
width = 519;
},
{
layerId = "6FA4A80C-3D50-4FAF-A835-1EC9F66A3889";
name = Light;
paths = (
{
closed = 1;
nodes = (
"404 443 OFFCURVE",
"354 502 OFFCURVE",
"298 502 CURVE SMOOTH",
"172 502 OFFCURVE",
"10 263 OFFCURVE",
"10 132 CURVE SMOOTH",
"10 78 OFFCURVE",
"68 17 OFFCURVE",
"118 17 CURVE SMOOTH",
"183 17 OFFCURVE",
"288 84 OFFCURVE",
"330 171 CURVE",
"304 149 LINE",
"207 -117 OFFCURVE",
"187 -164 OFFCURVE",
"187 -190 CURVE SMOOTH",
"187 -208 OFFCURVE",
"201 -239 OFFCURVE",
"218 -239 CURVE SMOOTH",
"233 -239 OFFCURVE",
"289 -189 OFFCURVE",
"361 -150 CURVE SMOOTH",
"385 -137 OFFCURVE",
"398 -126 OFFCURVE",
"398 -115 CURVE SMOOTH",
"398 -105 OFFCURVE",
"388 -98 OFFCURVE",
"379 -98 CURVE SMOOTH",
"356 -98 OFFCURVE",
"304 -121 OFFCURVE",
"225 -180 CURVE",
"236 -195 LINE",
"341 108 OFFCURVE",
"405 255 OFFCURVE",
"405 296 CURVE SMOOTH",
"405 308 OFFCURVE",
"388 323 OFFCURVE",
"369 323 CURVE SMOOTH",
"359 323 OFFCURVE",
"355 321 OFFCURVE",
"352 309 CURVE SMOOTH",
"312 161 OFFCURVE",
"193 76 OFFCURVE",
"117 76 CURVE SMOOTH",
"91 76 OFFCURVE",
"67 102 OFFCURVE",
"67 128 CURVE SMOOTH",
"67 228 OFFCURVE",
"212 444 OFFCURVE",
"305 444 CURVE SMOOTH",
"346 444 OFFCURVE",
"363 398 OFFCURVE",
"391 398 CURVE SMOOTH",
"400 398 OFFCURVE",
"404 405 OFFCURVE",
"404 414 CURVE SMOOTH"
);
}
);
width = 450;
}
);
unicode = 0071;
},
{
glyphname = r;
lastChange = "2014-11-17 07:04:19 +0000";
layers = (
{
anchors = (
{
name = top;
position = "{207, 507}";
}
);
layerId = UUID0;
name = Bold;
paths = (
{
closed = 1;
nodes = (
"187 496 OFFCURVE",
"143 528 OFFCURVE",
"109 528 CURVE SMOOTH",
"81 528 OFFCURVE",
"74 504 OFFCURVE",
"74 472 CURVE SMOOTH",
"74 444 OFFCURVE",
"80 406 OFFCURVE",
"80 359 CURVE SMOOTH",
"80 331 OFFCURVE",
"78 299 OFFCURVE",
"71 263 CURVE SMOOTH",
"59 198 OFFCURVE",
"26 144 OFFCURVE",
"26 107 CURVE SMOOTH",
"26 69 OFFCURVE",
"43 13 OFFCURVE",
"86 13 CURVE SMOOTH",
"134 13 OFFCURVE",
"165 100 OFFCURVE",
"198 241 CURVE SMOOTH",
"222 346 OFFCURVE",
"277 389 OFFCURVE",
"323 418 CURVE SMOOTH",
"363 444 OFFCURVE",
"397 460 OFFCURVE",
"397 498 CURVE SMOOTH",
"397 524 OFFCURVE",
"367 533 OFFCURVE",
"324 533 CURVE SMOOTH",
"272 533 OFFCURVE",
"192 492 OFFCURVE",
"144 431 CURVE",
"167 285 LINE",
"180 323 OFFCURVE",
"187 364 OFFCURVE",
"187 398 CURVE SMOOTH"
);
}
);
width = 362;
},
{
anchors = (
{
name = top;
position = "{193, 470}";
}
);
layerId = "6FA4A80C-3D50-4FAF-A835-1EC9F66A3889";
name = Light;
paths = (
{
closed = 1;
nodes = (
"152 470 OFFCURVE",
"127 502 OFFCURVE",
"110 502 CURVE SMOOTH",
"95 502 OFFCURVE",
"95 483 OFFCURVE",
"95 459 CURVE SMOOTH",
"95 442 OFFCURVE",
"97 421 OFFCURVE",
"97 405 CURVE SMOOTH",
"97 334 OFFCURVE",
"89 274 OFFCURVE",
"79 225 CURVE SMOOTH",
"61 136 OFFCURVE",
"36 82 OFFCURVE",
"36 58 CURVE SMOOTH",
"36 36 OFFCURVE",
"48 13 OFFCURVE",
"63 13 CURVE SMOOTH",
"95 13 OFFCURVE",
"94 99 OFFCURVE",
"157 236 CURVE SMOOTH",
"209 349 OFFCURVE",
"247 421 OFFCURVE",
"333 454 CURVE SMOOTH",
"355 463 OFFCURVE",
"364 472 OFFCURVE",
"364 480 CURVE SMOOTH",
"364 490 OFFCURVE",
"349 498 OFFCURVE",
"328 498 CURVE SMOOTH",
"223 498 OFFCURVE",
"154 332 OFFCURVE",
"121 267 CURVE",
"128 243 LINE",
"152 350 OFFCURVE",
"152 400 OFFCURVE",
"152 436 CURVE SMOOTH"
);
}
);
width = 314;
}
);
unicode = 0072;
},
{
glyphname = s;
lastChange = "2014-11-17 07:04:19 +0000";
layers = (
{
anchors = (
{
name = cedilla;
position = "{170, 7}";
},
{
name = top;
position = "{261, 507}";
}
);
layerId = UUID0;
name = Bold;
paths = (
{
closed = 1;
nodes = (
"456 446 OFFCURVE",
"397 527 OFFCURVE",
"344 527 CURVE SMOOTH",
"278 527 OFFCURVE",
"92 424 OFFCURVE",
"92 346 CURVE SMOOTH",
"92 260 OFFCURVE",
"273 204 OFFCURVE",
"273 146 CURVE SMOOTH",
"273 130 OFFCURVE",
"228 125 OFFCURVE",
"198 125 CURVE SMOOTH",
"94 125 OFFCURVE",
"78 164 OFFCURVE",
"43 164 CURVE SMOOTH",
"23 164 OFFCURVE",
"11 150 OFFCURVE",
"11 122 CURVE SMOOTH",
"11 80 OFFCURVE",
"90 12 OFFCURVE",
"212 12 CURVE SMOOTH",
"322 12 OFFCURVE",
"411 85 OFFCURVE",
"411 139 CURVE SMOOTH",
"411 256 OFFCURVE",
"239 304 OFFCURVE",
"239 338 CURVE SMOOTH",
"239 378 OFFCURVE",
"337 396 OFFCURVE",
"357 396 CURVE SMOOTH",
"394 396 OFFCURVE",
"408 377 OFFCURVE",
"435 377 CURVE SMOOTH",
"448 377 OFFCURVE",
"456 386 OFFCURVE",
"456 401 CURVE SMOOTH"
);
}
);
width = 467;
},
{
anchors = (
{
name = cedilla;
position = "{151, -30}";
},
{
name = top;
position = "{240, 470}";
}
);
layerId = "6FA4A80C-3D50-4FAF-A835-1EC9F66A3889";
name = Light;
paths = (
{
closed = 1;
nodes = (
"387 436 OFFCURVE",
"350 502 OFFCURVE",
"302 502 CURVE SMOOTH",
"235 502 OFFCURVE",
"96 415 OFFCURVE",
"96 342 CURVE SMOOTH",
"96 251 OFFCURVE",
"284 216 OFFCURVE",
"284 136 CURVE SMOOTH",
"284 105 OFFCURVE",
"258 74 OFFCURVE",
"166 74 CURVE SMOOTH",
"78 74 OFFCURVE",
"47 133 OFFCURVE",
"21 133 CURVE SMOOTH",
"13 133 OFFCURVE",
"4 125 OFFCURVE",
"4 112 CURVE SMOOTH",
"4 79 OFFCURVE",
"85 17 OFFCURVE",
"172 17 CURVE SMOOTH",
"276 17 OFFCURVE",
"349 75 OFFCURVE",
"349 130 CURVE SMOOTH",
"349 231 OFFCURVE",
"159 288 OFFCURVE",
"159 339 CURVE SMOOTH",
"159 389 OFFCURVE",
"264 442 OFFCURVE",
"298 442 CURVE SMOOTH",
"333 442 OFFCURVE",
"349 398 OFFCURVE",
"374 398 CURVE SMOOTH",
"383 398 OFFCURVE",
"387 403 OFFCURVE",
"387 412 CURVE SMOOTH"
);
}
);
width = 404;
}
);
unicode = 0073;
},
{
glyphname = t;
lastChange = "2014-11-17 07:04:19 +0000";
layers = (
{
anchors = (
{
name = cedilla;
position = "{124, 7}";
}
);
layerId = UUID0;
name = Bold;
paths = (
{
closed = 1;
nodes = (
"326 643 OFFCURVE",
"248 691 OFFCURVE",
"219 691 CURVE SMOOTH",
"196 691 OFFCURVE",
"189 679 OFFCURVE",
"189 661 CURVE SMOOTH",
"189 452 OFFCURVE",
"66 197 OFFCURVE",
"66 118 CURVE SMOOTH",
"66 67 OFFCURVE",
"147 12 OFFCURVE",
"186 12 CURVE SMOOTH",
"289 12 OFFCURVE",
"393 99 OFFCURVE",
"393 145 CURVE SMOOTH",
"393 163 OFFCURVE",
"389 175 OFFCURVE",
"368 175 CURVE SMOOTH",
"342 175 OFFCURVE",
"251 130 OFFCURVE",
"212 130 CURVE SMOOTH",
"203 130 OFFCURVE",
"200 130 OFFCURVE",
"200 136 CURVE SMOOTH",
"200 148 OFFCURVE",
"221 207 OFFCURVE",
"239 265 CURVE SMOOTH",
"272 372 OFFCURVE",
"326 531 OFFCURVE",
"326 596 CURVE SMOOTH"
);
},
{
closed = 1;
nodes = (
"209 514 OFFCURVE",
"15 484 OFFCURVE",
"15 446 CURVE SMOOTH",
"15 413 OFFCURVE",
"51 366 OFFCURVE",
"82 366 CURVE SMOOTH",
"107 366 OFFCURVE",
"179 389 OFFCURVE",
"261 405 CURVE SMOOTH",
"371 426 OFFCURVE",
"461 445 OFFCURVE",
"461 480 CURVE SMOOTH",
"461 501 OFFCURVE",
"439 514 OFFCURVE",
"386 514 CURVE SMOOTH"
);
}
);
width = 451;
},
{
anchors = (
{
name = cedilla;
position = "{111, -30}";
}
);
layerId = "6FA4A80C-3D50-4FAF-A835-1EC9F66A3889";
name = Light;
paths = (
{
closed = 1;
nodes = (
"229 621 OFFCURVE",
"197 645 OFFCURVE",
"184 645 CURVE SMOOTH",
"172 645 OFFCURVE",
"169 635 OFFCURVE",
"169 615 CURVE SMOOTH",
"169 436 OFFCURVE",
"51 174 OFFCURVE",
"51 92 CURVE SMOOTH",
"51 51 OFFCURVE",
"87 17 OFFCURVE",
"145 17 CURVE SMOOTH",
"213 17 OFFCURVE",
"305 76 OFFCURVE",
"305 107 CURVE SMOOTH",
"305 115 OFFCURVE",
"302 119 OFFCURVE",
"291 119 CURVE SMOOTH",
"269 119 OFFCURVE",
"220 78 OFFCURVE",
"139 78 CURVE SMOOTH",
"123 78 OFFCURVE",
"112 86 OFFCURVE",
"112 103 CURVE SMOOTH",
"112 117 OFFCURVE",
"117 148 OFFCURVE",
"154 269 CURVE SMOOTH",
"199 416 OFFCURVE",
"229 557 OFFCURVE",
"229 594 CURVE SMOOTH"
);
},
{
closed = 1;
nodes = (
"254 494 OFFCURVE",
"35 462 OFFCURVE",
"35 434 CURVE SMOOTH",
"35 422 OFFCURVE",
"55 403 OFFCURVE",
"70 403 CURVE SMOOTH",
"92 403 OFFCURVE",
"129 412 OFFCURVE",
"206 427 CURVE SMOOTH",
"342 453 OFFCURVE",
"362 457 OFFCURVE",
"362 473 CURVE SMOOTH",
"362 486 OFFCURVE",
"342 494 OFFCURVE",
"310 494 CURVE SMOOTH"
);
}
);
width = 352;
}
);
unicode = 0074;
},
{
glyphname = u;
lastChange = "2014-11-17 07:04:19 +0000";
layers = (
{
anchors = (
{
name = ogonek;
position = "{286, 7}";
},
{
name = top;
position = "{290, 507}";
}
);
layerId = UUID0;
name = Bold;
paths = (
{
closed = 1;
nodes = (
"241 485 OFFCURVE",
"207 528 OFFCURVE",
"167 528 CURVE SMOOTH",
"98 528 OFFCURVE",
"10 250 OFFCURVE",
"10 134 CURVE SMOOTH",
"10 79 OFFCURVE",
"93 12 OFFCURVE",
"132 12 CURVE SMOOTH",
"213 12 OFFCURVE",
"343 221 OFFCURVE",
"374 300 CURVE",
"348 311 LINE",
"317 255 OFFCURVE",
"284 137 OFFCURVE",
"284 70 CURVE SMOOTH",
"284 29 OFFCURVE",
"307 12 OFFCURVE",
"331 12 CURVE SMOOTH",
"353 12 OFFCURVE",
"368 23 OFFCURVE",
"378 54 CURVE SMOOTH",
"439 250 OFFCURVE",
"495 393 OFFCURVE",
"495 416 CURVE SMOOTH",
"495 455 OFFCURVE",
"441 528 OFFCURVE",
"406 528 CURVE SMOOTH",
"390 528 OFFCURVE",
"382 521 OFFCURVE",
"376 503 CURVE SMOOTH",
"311 303 OFFCURVE",
"172 139 OFFCURVE",
"145 139 CURVE SMOOTH",
"142 139 OFFCURVE",
"140 141 OFFCURVE",
"140 145 CURVE SMOOTH",
"140 239 OFFCURVE",
"241 413 OFFCURVE",
"241 445 CURVE SMOOTH"
);
}
);
width = 486;
},
{
anchors = (
{
name = ogonek;
position = "{283, -30}";
},
{
name = top;
position = "{287, 470}";
}
);
layerId = "6FA4A80C-3D50-4FAF-A835-1EC9F66A3889";
name = Light;
paths = (
{
closed = 1;
nodes = (
"191 485 OFFCURVE",
"177 502 OFFCURVE",
"163 502 CURVE SMOOTH",
"122 502 OFFCURVE",
"19 262 OFFCURVE",
"19 130 CURVE SMOOTH",
"19 77 OFFCURVE",
"64 17 OFFCURVE",
"127 17 CURVE SMOOTH",
"201 17 OFFCURVE",
"292 106 OFFCURVE",
"350 252 CURVE",
"343 254 LINE",
"313 171 OFFCURVE",
"287 81 OFFCURVE",
"287 50 CURVE SMOOTH",
"287 29 OFFCURVE",
"297 17 OFFCURVE",
"309 17 CURVE SMOOTH",
"317 17 OFFCURVE",
"329 32 OFFCURVE",
"337 59 CURVE SMOOTH",
"401 282 OFFCURVE",
"446 429 OFFCURVE",
"446 445 CURVE SMOOTH",
"446 473 OFFCURVE",
"424 502 OFFCURVE",
"408 502 CURVE SMOOTH",
"394 502 OFFCURVE",
"395 494 OFFCURVE",
"390 472 CURVE SMOOTH",
"364 354 OFFCURVE",
"238 71 OFFCURVE",
"130 71 CURVE SMOOTH",
"103 71 OFFCURVE",
"80 94 OFFCURVE",
"80 125 CURVE SMOOTH",
"80 272 OFFCURVE",
"191 436 OFFCURVE",
"191 464 CURVE SMOOTH"
);
}
);
width = 479;
}
);
unicode = 0075;
},
{
glyphname = v;
lastChange = "2014-11-17 07:04:19 +0000";
layers = (
{
layerId = UUID0;
name = Bold;
paths = (
{
closed = 1;
nodes = (
"246 95 LINE",
"178 208 OFFCURVE",
"212 378 OFFCURVE",
"183 429 CURVE SMOOTH",
"155 491 OFFCURVE",
"102 528 OFFCURVE",
"58 528 CURVE SMOOTH",
"41 528 OFFCURVE",
"30 516 OFFCURVE",
"30 487 CURVE SMOOTH",
"30 434 OFFCURVE",
"88 154 OFFCURVE",
"122 73 CURVE SMOOTH",
"134 44 OFFCURVE",
"184 13 OFFCURVE",
"202 13 CURVE SMOOTH",
"242 13 OFFCURVE",
"317 142 OFFCURVE",
"388 299 CURVE SMOOTH",
"414 356 OFFCURVE",
"450 439 OFFCURVE",
"450 471 CURVE SMOOTH",
"450 498 OFFCURVE",
"410 528 OFFCURVE",
"375 528 CURVE SMOOTH",
"320 528 OFFCURVE",
"260 261 OFFCURVE",
"178 147 CURVE"
);
}
);
width = 422;
},
{
layerId = "6FA4A80C-3D50-4FAF-A835-1EC9F66A3889";
name = Light;
paths = (
{
closed = 1;
nodes = (
"209 62 LINE",
"140 175 OFFCURVE",
"124 372 OFFCURVE",
"120 455 CURVE SMOOTH",
"117 482 OFFCURVE",
"86 502 OFFCURVE",
"69 502 CURVE SMOOTH",
"61 502 OFFCURVE",
"56 496 OFFCURVE",
"56 477 CURVE SMOOTH",
"56 369 OFFCURVE",
"109 154 OFFCURVE",
"143 73 CURVE SMOOTH",
"155 44 OFFCURVE",
"174 13 OFFCURVE",
"192 13 CURVE SMOOTH",
"221 13 OFFCURVE",
"233 54 OFFCURVE",
"344 299 CURVE SMOOTH",
"370 356 OFFCURVE",
"412 450 OFFCURVE",
"412 471 CURVE SMOOTH",
"412 488 OFFCURVE",
"390 502 OFFCURVE",
"376 502 CURVE SMOOTH",
"355 502 OFFCURVE",
"266 251 OFFCURVE",
"189 68 CURVE"
);
}
);
width = 422;
}
);
unicode = 0076;
},
{
glyphname = w;
lastChange = "2014-11-17 07:04:19 +0000";
layers = (
{
layerId = UUID0;
name = Bold;
paths = (
{
closed = 1;
nodes = (
"577 528 OFFCURVE",
"574 265 OFFCURVE",
"477 168 CURVE",
"474 184 OFFCURVE",
"473 202 OFFCURVE",
"473 220 CURVE SMOOTH",
"473 282 OFFCURVE",
"486 355 OFFCURVE",
"486 399 CURVE SMOOTH",
"486 457 OFFCURVE",
"415 528 OFFCURVE",
"356 528 CURVE SMOOTH",
"304 528 OFFCURVE",
"286 327 OFFCURVE",
"189 179 CURVE",
"186 265 OFFCURVE",
"186 371 OFFCURVE",
"186 410 CURVE SMOOTH",
"186 438 OFFCURVE",
"124 528 OFFCURVE",
"68 528 CURVE SMOOTH",
"51 528 OFFCURVE",
"40 516 OFFCURVE",
"40 487 CURVE SMOOTH",
"40 434 OFFCURVE",
"68 154 OFFCURVE",
"102 73 CURVE SMOOTH",
"114 44 OFFCURVE",
"164 13 OFFCURVE",
"182 13 CURVE SMOOTH",
"221 13 OFFCURVE",
"307 116 OFFCURVE",
"369 318 CURVE",
"369 278 OFFCURVE",
"369 226 OFFCURVE",
"372 179 CURVE SMOOTH",
"375 135 OFFCURVE",
"381 95 OFFCURVE",
"392 73 CURVE SMOOTH",
"406 45 OFFCURVE",
"454 13 OFFCURVE",
"472 13 CURVE SMOOTH",
"512 13 OFFCURVE",
"637 154 OFFCURVE",
"684 320 CURVE SMOOTH",
"700 377 OFFCURVE",
"720 439 OFFCURVE",
"720 471 CURVE SMOOTH",
"720 498 OFFCURVE",
"660 528 OFFCURVE",
"625 528 CURVE SMOOTH"
);
}
);
width = 710;
},
{
layerId = "6FA4A80C-3D50-4FAF-A835-1EC9F66A3889";
name = Light;
paths = (
{
closed = 1;
nodes = (
"578 514 OFFCURVE",
"595 270 OFFCURVE",
"410 69 CURVE",
"402 107 OFFCURVE",
"400 161 OFFCURVE",
"400 215 CURVE SMOOTH",
"400 296 OFFCURVE",
"405 379 OFFCURVE",
"405 408 CURVE SMOOTH",
"405 478 OFFCURVE",
"394 508 OFFCURVE",
"358 508 CURVE SMOOTH",
"305 508 OFFCURVE",
"248 261 OFFCURVE",
"142 69 CURVE",
"101 258 OFFCURVE",
"123 366 OFFCURVE",
"106 457 CURVE SMOOTH",
"100 489 OFFCURVE",
"93 511 OFFCURVE",
"74 511 CURVE SMOOTH",
"57 511 OFFCURVE",
"50 499 OFFCURVE",
"50 470 CURVE SMOOTH",
"50 417 OFFCURVE",
"65 134 OFFCURVE",
"99 53 CURVE SMOOTH",
"111 24 OFFCURVE",
"121 13 OFFCURVE",
"139 13 CURVE SMOOTH",
"178 13 OFFCURVE",
"243 142 OFFCURVE",
"355 434 CURVE",
"351 374 OFFCURVE",
"349 312 OFFCURVE",
"349 255 CURVE SMOOTH",
"349 154 OFFCURVE",
"355 70 OFFCURVE",
"366 44 CURVE SMOOTH",
"378 16 OFFCURVE",
"385 13 OFFCURVE",
"403 13 CURVE SMOOTH",
"456 13 OFFCURVE",
"544 157 OFFCURVE",
"600 289 CURVE SMOOTH",
"630 360 OFFCURVE",
"650 427 OFFCURVE",
"650 467 CURVE SMOOTH",
"650 494 OFFCURVE",
"646 514 OFFCURVE",
"626 514 CURVE SMOOTH"
);
}
);
width = 653;
}
);
unicode = 0077;
},
{
glyphname = x;
lastChange = "2014-11-17 07:04:19 +0000";
layers = (
{
layerId = UUID0;
name = Bold;
paths = (
{
closed = 1;
nodes = (
"283 289 OFFCURVE",
"211 407 OFFCURVE",
"211 473 CURVE SMOOTH",
"211 504 OFFCURVE",
"126 528 OFFCURVE",
"76 528 CURVE SMOOTH",
"58 528 OFFCURVE",
"57 517 OFFCURVE",
"57 500 CURVE SMOOTH",
"57 442 OFFCURVE",
"263 12 OFFCURVE",
"371 12 CURVE SMOOTH",
"392 12 OFFCURVE",
"404 25 OFFCURVE",
"404 49 CURVE SMOOTH",
"404 70 OFFCURVE",
"374 128 OFFCURVE",
"338 191 CURVE SMOOTH"
);
},
{
closed = 1;
nodes = (
"453 410 OFFCURVE",
"489 423 OFFCURVE",
"489 448 CURVE SMOOTH",
"489 480 OFFCURVE",
"433 529 OFFCURVE",
"408 529 CURVE SMOOTH",
"365 529 OFFCURVE",
"311 475 OFFCURVE",
"202 316 CURVE SMOOTH",
"104 174 OFFCURVE",
"0 100 OFFCURVE",
"0 85 CURVE SMOOTH",
"0 61 OFFCURVE",
"38 12 OFFCURVE",
"76 12 CURVE SMOOTH",
"118 12 OFFCURVE",
"201 110 OFFCURVE",
"283 209 CURVE SMOOTH",
"341 280 OFFCURVE",
"382 335 OFFCURVE",
"424 379 CURVE SMOOTH"
);
}
);
width = 474;
},
{
layerId = "6FA4A80C-3D50-4FAF-A835-1EC9F66A3889";
name = Light;
paths = (
{
closed = 1;
nodes = (
"192 272 OFFCURVE",
"114 416 OFFCURVE",
"114 468 CURVE SMOOTH",
"114 489 OFFCURVE",
"77 502 OFFCURVE",
"56 502 CURVE SMOOTH",
"43 502 OFFCURVE",
"41 497 OFFCURVE",
"41 483 CURVE SMOOTH",
"41 428 OFFCURVE",
"267 17 OFFCURVE",
"328 17 CURVE SMOOTH",
"337 17 OFFCURVE",
"347 23 OFFCURVE",
"347 32 CURVE SMOOTH",
"347 48 OFFCURVE",
"306 93 OFFCURVE",
"259 168 CURVE SMOOTH"
);
},
{
closed = 1;
nodes = (
"395 447 OFFCURVE",
"416 458 OFFCURVE",
"416 473 CURVE SMOOTH",
"416 486 OFFCURVE",
"396 502 OFFCURVE",
"380 502 CURVE SMOOTH",
"349 502 OFFCURVE",
"290 417 OFFCURVE",
"177 268 CURVE SMOOTH",
"79 139 OFFCURVE",
"-15 63 OFFCURVE",
"-15 49 CURVE SMOOTH",
"-15 36 OFFCURVE",
"6 17 OFFCURVE",
"21 17 CURVE SMOOTH",
"46 17 OFFCURVE",
"149 151 OFFCURVE",
"226 244 CURVE SMOOTH",
"281 311 OFFCURVE",
"328 376 OFFCURVE",
"367 417 CURVE SMOOTH"
);
}
);
width = 401;
}
);
unicode = 0078;
},
{
glyphname = y;
lastChange = "2014-11-17 07:04:19 +0000";
layers = (
{
anchors = (
{
name = top;
position = "{310, 507}";
}
);
layerId = UUID0;
name = Bold;
paths = (
{
closed = 1;
nodes = (
"262 485 OFFCURVE",
"217 528 OFFCURVE",
"176 528 CURVE SMOOTH",
"119 528 OFFCURVE",
"32 266 OFFCURVE",
"32 151 CURVE SMOOTH",
"32 79 OFFCURVE",
"113 12 OFFCURVE",
"153 12 CURVE SMOOTH",
"220 12 OFFCURVE",
"352 163 OFFCURVE",
"378 309 CURVE",
"356 325 LINE",
"253 62 OFFCURVE",
"225 -158 OFFCURVE",
"170 -158 CURVE SMOOTH",
"125 -158 OFFCURVE",
"75 -64 OFFCURVE",
"40 -64 CURVE SMOOTH",
"20 -64 OFFCURVE",
"-16 -112 OFFCURVE",
"-16 -143 CURVE SMOOTH",
"-16 -191 OFFCURVE",
"70 -256 OFFCURVE",
"163 -256 CURVE SMOOTH",
"271 -256 OFFCURVE",
"322 -173 OFFCURVE",
"358 -68 CURVE SMOOTH",
"474 269 OFFCURVE",
"515 379 OFFCURVE",
"515 417 CURVE SMOOTH",
"515 476 OFFCURVE",
"466 528 OFFCURVE",
"428 528 CURVE SMOOTH",
"413 528 OFFCURVE",
"402 521 OFFCURVE",
"398 503 CURVE SMOOTH",
"336 310 OFFCURVE",
"192 139 OFFCURVE",
"168 139 CURVE SMOOTH",
"165 139 OFFCURVE",
"163 141 OFFCURVE",
"163 145 CURVE SMOOTH",
"163 249 OFFCURVE",
"262 395 OFFCURVE",
"262 445 CURVE SMOOTH"
);
}
);
width = 520;
},
{
anchors = (
{
name = top;
position = "{276, 470}";
}
);
layerId = "6FA4A80C-3D50-4FAF-A835-1EC9F66A3889";
name = Light;
paths = (
{
closed = 1;
nodes = (
"203 485 OFFCURVE",
"187 502 OFFCURVE",
"174 502 CURVE SMOOTH",
"134 502 OFFCURVE",
"31 264 OFFCURVE",
"31 132 CURVE SMOOTH",
"31 77 OFFCURVE",
"75 17 OFFCURVE",
"139 17 CURVE SMOOTH",
"218 17 OFFCURVE",
"295 98 OFFCURVE",
"351 250 CURVE",
"326 230 LINE",
"247 25 OFFCURVE",
"203 -191 OFFCURVE",
"129 -191 CURVE SMOOTH",
"58 -191 OFFCURVE",
"20 -106 OFFCURVE",
"2 -106 CURVE SMOOTH",
"-5 -106 OFFCURVE",
"-20 -124 OFFCURVE",
"-20 -137 CURVE SMOOTH",
"-20 -187 OFFCURVE",
"64 -239 OFFCURVE",
"131 -239 CURVE SMOOTH",
"191 -239 OFFCURVE",
"231 -192 OFFCURVE",
"264 -100 CURVE SMOOTH",
"363 176 OFFCURVE",
"454 423 OFFCURVE",
"454 444 CURVE SMOOTH",
"454 476 OFFCURVE",
"431 502 OFFCURVE",
"415 502 CURVE SMOOTH",
"401 502 OFFCURVE",
"403 493 OFFCURVE",
"397 472 CURVE SMOOTH",
"353 327 OFFCURVE",
"248 71 OFFCURVE",
"142 71 CURVE SMOOTH",
"115 71 OFFCURVE",
"92 94 OFFCURVE",
"92 125 CURVE SMOOTH",
"92 272 OFFCURVE",
"203 433 OFFCURVE",
"203 464 CURVE SMOOTH"
);
}
);
width = 442;
}
);
unicode = 0079;
},
{
glyphname = braceleft;
lastChange = "2014-11-17 07:04:19 +0000";
layers = (
{
layerId = UUID0;
name = Bold;
paths = (
{
closed = 1;
nodes = (
"320 499 OFFCURVE",
"277 534 OFFCURVE",
"276 649 CURVE SMOOTH",
"276 745 OFFCURVE",
"329 760 OFFCURVE",
"364 760 CURVE SMOOTH",
"401 760 OFFCURVE",
"415 743 OFFCURVE",
"415 720 CURVE SMOOTH",
"415 671 OFFCURVE",
"415 645 OFFCURVE",
"437 645 CURVE SMOOTH",
"462 645 OFFCURVE",
"504 709 OFFCURVE",
"504 732 CURVE SMOOTH",
"503 804 OFFCURVE",
"432 880 OFFCURVE",
"347 880 CURVE SMOOTH",
"231 880 OFFCURVE",
"145 811 OFFCURVE",
"145 692 CURVE SMOOTH",
"145 564 OFFCURVE",
"198 523 OFFCURVE",
"198 469 CURVE SMOOTH",
"198 440 OFFCURVE",
"182 426 OFFCURVE",
"156 426 CURVE SMOOTH",
"134 426 OFFCURVE",
"90 465 OFFCURVE",
"68 465 CURVE SMOOTH",
"57 465 OFFCURVE",
"53 443 OFFCURVE",
"53 434 CURVE SMOOTH",
"53 378 OFFCURVE",
"120 318 OFFCURVE",
"184 318 CURVE",
"271 318 OFFCURVE",
"320 381 OFFCURVE",
"320 441 CURVE SMOOTH"
);
},
{
closed = 1;
nodes = (
"338 0 OFFCURVE",
"313 10 OFFCURVE",
"259 10 CURVE SMOOTH",
"196 10 OFFCURVE",
"159 24 OFFCURVE",
"159 72 CURVE SMOOTH",
"159 175 OFFCURVE",
"209 228 OFFCURVE",
"209 309 CURVE SMOOTH",
"209 412 OFFCURVE",
"112 444 OFFCURVE",
"74 463 CURVE",
"64 394 LINE",
"73 376 OFFCURVE",
"90 360 OFFCURVE",
"90 348 CURVE SMOOTH",
"90 245 OFFCURVE",
"27 207 OFFCURVE",
"27 71 CURVE SMOOTH",
"27 -24 OFFCURVE",
"116 -115 OFFCURVE",
"226 -115 CURVE SMOOTH",
"285 -115 OFFCURVE",
"338 -74 OFFCURVE",
"338 -37 CURVE SMOOTH"
);
}
);
width = 462;
},
{
layerId = "6FA4A80C-3D50-4FAF-A835-1EC9F66A3889";
name = Light;
paths = (
{
closed = 1;
nodes = (
"289 500 OFFCURVE",
"244 553 OFFCURVE",
"244 663 CURVE SMOOTH",
"244 739 OFFCURVE",
"304 791 OFFCURVE",
"370 791 CURVE SMOOTH",
"439 791 OFFCURVE",
"442 750 OFFCURVE",
"442 691 CURVE SMOOTH",
"442 677 OFFCURVE",
"444 667 OFFCURVE",
"453 667 CURVE SMOOTH",
"471 667 OFFCURVE",
"489 700 OFFCURVE",
"489 736 CURVE SMOOTH",
"489 803 OFFCURVE",
"442 853 OFFCURVE",
"364 853 CURVE SMOOTH",
"277 853 OFFCURVE",
"189 781 OFFCURVE",
"189 682 CURVE SMOOTH",
"189 585 OFFCURVE",
"234 509 OFFCURVE",
"234 458 CURVE SMOOTH",
"234 423 OFFCURVE",
"208 398 OFFCURVE",
"167 398 CURVE SMOOTH",
"129 398 OFFCURVE",
"100 432 OFFCURVE",
"83 432 CURVE SMOOTH",
"77 432 OFFCURVE",
"72 423 OFFCURVE",
"72 414 CURVE SMOOTH",
"72 376 OFFCURVE",
"136 349 OFFCURVE",
"183 349 CURVE SMOOTH",
"249 349 OFFCURVE",
"289 396 OFFCURVE",
"289 441 CURVE SMOOTH"
);
},
{
closed = 1;
nodes = (
"285 -36 OFFCURVE",
"275 -32 OFFCURVE",
"239 -32 CURVE SMOOTH",
"152 -32 OFFCURVE",
"113 1 OFFCURVE",
"113 72 CURVE SMOOTH",
"113 180 OFFCURVE",
"169 229 OFFCURVE",
"169 297 CURVE SMOOTH",
"169 356 OFFCURVE",
"144 389 OFFCURVE",
"103 410 CURVE",
"98 377 LINE",
"104 367 OFFCURVE",
"118 348 OFFCURVE",
"118 328 CURVE SMOOTH",
"118 229 OFFCURVE",
"49 172 OFFCURVE",
"49 72 CURVE SMOOTH",
"49 -12 OFFCURVE",
"111 -84 OFFCURVE",
"201 -84 CURVE SMOOTH",
"244 -84 OFFCURVE",
"285 -70 OFFCURVE",
"285 -48 CURVE SMOOTH"
);
}
);
width = 399;
}
);
unicode = 007B;
},
{
glyphname = bar;
lastChange = "2014-11-17 07:04:19 +0000";
layers = (
{
layerId = UUID0;
name = Bold;
paths = (
{
closed = 1;
nodes = (
"95 -96 OFFCURVE",
"158 -166 OFFCURVE",
"187 -166 CURVE SMOOTH",
"217 -166 OFFCURVE",
"310 355 OFFCURVE",
"338 487 CURVE SMOOTH",
"371 645 OFFCURVE",
"389 717 OFFCURVE",
"389 750 CURVE SMOOTH",
"389 804 OFFCURVE",
"309 875 OFFCURVE",
"281 875 CURVE SMOOTH",
"258 875 OFFCURVE",
"251 863 OFFCURVE",
"251 845 CURVE SMOOTH",
"251 751 OFFCURVE",
"95 -31 OFFCURVE",
"95 -71 CURVE SMOOTH"
);
}
);
width = 456;
},
{
layerId = "6FA4A80C-3D50-4FAF-A835-1EC9F66A3889";
name = Light;
paths = (
{
closed = 1;
nodes = (
"52 -96 OFFCURVE",
"74 -119 OFFCURVE",
"87 -119 CURVE SMOOTH",
"102 -119 OFFCURVE",
"167 180 OFFCURVE",
"197 296 CURVE SMOOTH",
"236 451 OFFCURVE",
"294 703 OFFCURVE",
"294 736 CURVE SMOOTH",
"294 769 OFFCURVE",
"268 803 OFFCURVE",
"251 803 CURVE SMOOTH",
"236 803 OFFCURVE",
"234 795 OFFCURVE",
"234 773 CURVE SMOOTH",
"234 669 OFFCURVE",
"52 -14 OFFCURVE",
"52 -75 CURVE SMOOTH"
);
}
);
width = 320;
}
);
unicode = 007C;
},
